<svg width="20" height="20" viewBox="0 0 20 20" fill="none" xmlns="http://www.w3.org/2000/svg">
<g id="Frame">
<g id="Group">
<g id="Group_2" filter="url(#filter0_i_131_1292)">
<path id="Vector" d="M10.75 18.5C15.5825 18.5 19.5 14.5825 19.5 9.75C19.5 4.91751 15.5825 1 10.75 1C5.91751 1 2 4.91751 2 9.75C2 14.5825 5.91751 18.5 10.75 18.5Z" fill="url(#paint0_linear_131_1292)"/>
<path id="Vector_2" d="M10.75 18.5C15.5825 18.5 19.5 14.5825 19.5 9.75C19.5 4.91751 15.5825 1 10.75 1C5.91751 1 2 4.91751 2 9.75C2 14.5825 5.91751 18.5 10.75 18.5Z" fill="url(#paint1_radial_131_1292)"/>
<path id="Vector_3" d="M10.75 18.5C15.5825 18.5 19.5 14.5825 19.5 9.75C19.5 4.91751 15.5825 1 10.75 1C5.91751 1 2 4.91751 2 9.75C2 14.5825 5.91751 18.5 10.75 18.5Z" fill="url(#paint2_radial_131_1292)"/>
</g>
<path id="Vector_4" d="M10.75 14.125C13.1662 14.125 15.125 12.1662 15.125 9.75C15.125 7.33375 13.1662 5.375 10.75 5.375C8.33375 5.375 6.375 7.33375 6.375 9.75C6.375 12.1662 8.33375 14.125 10.75 14.125Z" fill="url(#paint3_radial_131_1292)"/>
<g id="Group_3" filter="url(#filter1_ii_131_1292)">
<path id="Vector_5" fill-rule="evenodd" clip-rule="evenodd" d="M9.39 7.84941C9.62125 7.47254 10.0569 7.21191 10.75 7.21191C11.4275 7.21191 11.8688 7.43941 12.1063 7.80879C12.3131 8.13004 12.3125 8.52441 12.3125 8.78254V8.81254C12.3125 9.13941 12.1944 9.46566 11.9144 9.70629C11.9095 9.71051 11.9056 9.71574 11.9029 9.72162C11.9002 9.7275 11.8988 9.73389 11.8988 9.74035C11.8988 9.74682 11.9002 9.7532 11.9029 9.75908C11.9056 9.76496 11.9095 9.77019 11.9144 9.77441C11.9894 9.83941 12.0533 9.91337 12.1063 9.99629C12.3131 10.3175 12.3125 10.7119 12.3125 10.97V11C12.3125 11.3269 12.1944 11.6532 11.9144 11.8938C11.6394 12.1288 11.2456 12.25 10.75 12.25C10.2375 12.25 9.83938 12.1313 9.56688 11.8907C9.28875 11.6457 9.1875 11.3163 9.1875 11V10.9788C9.1875 10.7569 9.18688 10.3675 9.39 10.0369C9.44 9.95566 9.49979 9.88171 9.56938 9.81504C9.5771 9.80783 9.58321 9.79907 9.58731 9.78933C9.59141 9.7796 9.59341 9.7691 9.59317 9.75854C9.59294 9.74798 9.59047 9.73759 9.58594 9.72804C9.58141 9.7185 9.57491 9.71002 9.56688 9.70316C9.28875 9.45816 9.1875 9.12879 9.1875 8.81254V8.79129C9.1875 8.56941 9.18688 8.18004 9.39 7.84941ZM11.5825 8.65566C11.5825 9.08754 11.2675 9.38566 10.75 9.38566C10.2325 9.38566 9.9375 9.08754 9.9375 8.65629C9.9375 8.22504 10.2325 7.90941 10.75 7.90941C11.2675 7.90941 11.5825 8.22504 11.5825 8.65629M11.5825 10.8438C11.5825 11.2757 11.2675 11.5888 10.75 11.5888C10.2325 11.5888 9.9375 11.2763 9.9375 10.8444C9.9375 10.4132 10.2325 10.0913 10.75 10.0913C11.2675 10.0913 11.5825 10.4119 11.5825 10.8438Z" fill="url(#paint4_linear_131_1292)"/>
</g>
<g id="Group_4" filter="url(#filter2_f_131_1292)">
<path id="Vector_6" fill-rule="evenodd" clip-rule="evenodd" d="M9.25304 7.98127C9.48429 7.60752 9.91929 7.34814 10.613 7.34814C11.2905 7.34814 11.7318 7.57502 11.9693 7.94127C12.1762 8.26002 12.1755 8.65064 12.1755 8.90752V8.93689C12.1755 9.26127 12.0574 9.58502 11.7774 9.82315C11.7725 9.82737 11.7686 9.8326 11.7659 9.83848C11.7632 9.84435 11.7618 9.85074 11.7618 9.85721C11.7618 9.86367 11.7632 9.87006 11.7659 9.87594C11.7686 9.88182 11.7725 9.88705 11.7774 9.89127C11.8524 9.95544 11.9164 10.0288 11.9693 10.1113C12.1762 10.43 12.1755 10.8213 12.1755 11.0775V11.1069C12.1755 11.4313 12.0574 11.755 11.7774 11.9931C11.5024 12.2269 11.1087 12.3469 10.613 12.3469C10.1005 12.3469 9.70241 12.2288 9.42991 11.9906C9.15116 11.7475 9.05054 11.4206 9.05054 11.1069V11.0856C9.05054 10.8656 9.04991 10.4794 9.25304 10.1519C9.30304 10.0711 9.36262 9.99752 9.43179 9.93127C9.43934 9.92411 9.44533 9.91546 9.44936 9.90587C9.45339 9.89628 9.45538 9.88595 9.4552 9.87554C9.45503 9.86514 9.45269 9.85489 9.44833 9.84543C9.44398 9.83598 9.43771 9.82754 9.42991 9.82064C9.15116 9.57689 9.05054 9.25064 9.05054 8.93689V8.91564C9.05054 8.69564 9.04991 8.30939 9.25304 7.98127ZM11.4455 8.78127C11.4455 9.21002 11.1305 9.50564 10.613 9.50564C10.0955 9.50564 9.80054 9.21002 9.80054 8.78189C9.80054 8.35377 10.0949 8.04064 10.613 8.04064C11.1305 8.04064 11.4455 8.35314 11.4455 8.78189M11.4455 10.9525C11.4455 11.3806 11.1305 11.6913 10.613 11.6913C10.0955 11.6913 9.80054 11.3806 9.80054 10.9525C9.80054 10.5244 10.0949 10.2056 10.613 10.2056C11.1305 10.2056 11.4455 10.5244 11.4455 10.9525Z" fill="#756386"/>
</g>
<g id="Group_5" filter="url(#filter3_ii_131_1292)">
<path id="Vector_7" fill-rule="evenodd" clip-rule="evenodd" d="M9.39 7.84941C9.62125 7.47254 10.0569 7.21191 10.75 7.21191C11.4275 7.21191 11.8688 7.43941 12.1063 7.80879C12.3131 8.13004 12.3125 8.52441 12.3125 8.78254V8.81254C12.3125 9.13941 12.1944 9.46566 11.9144 9.70629C11.9095 9.71051 11.9056 9.71574 11.9029 9.72162C11.9002 9.7275 11.8988 9.73389 11.8988 9.74035C11.8988 9.74682 11.9002 9.7532 11.9029 9.75908C11.9056 9.76496 11.9095 9.77019 11.9144 9.77441C11.9894 9.83941 12.0533 9.91337 12.1063 9.99629C12.3131 10.3175 12.3125 10.7119 12.3125 10.97V11C12.3125 11.3269 12.1944 11.6532 11.9144 11.8938C11.6394 12.1288 11.2456 12.25 10.75 12.25C10.2375 12.25 9.83938 12.1313 9.56688 11.8907C9.28875 11.6457 9.1875 11.3163 9.1875 11V10.9788C9.1875 10.7569 9.18688 10.3675 9.39 10.0369C9.44 9.95566 9.49979 9.88171 9.56938 9.81504C9.5771 9.80783 9.58321 9.79907 9.58731 9.78933C9.59141 9.7796 9.59341 9.7691 9.59317 9.75854C9.59294 9.74798 9.59047 9.73759 9.58594 9.72804C9.58141 9.7185 9.57491 9.71002 9.56688 9.70316C9.28875 9.45816 9.1875 9.12879 9.1875 8.81254V8.79129C9.1875 8.56941 9.18688 8.18004 9.39 7.84941ZM11.5825 8.65566C11.5825 9.08754 11.2675 9.38566 10.75 9.38566C10.2325 9.38566 9.9375 9.08754 9.9375 8.65629C9.9375 8.22504 10.2325 7.90941 10.75 7.90941C11.2675 7.90941 11.5825 8.22504 11.5825 8.65629M11.5825 10.8438C11.5825 11.2757 11.2675 11.5888 10.75 11.5888C10.2325 11.5888 9.9375 11.2763 9.9375 10.8444C9.9375 10.4132 10.2325 10.0913 10.75 10.0913C11.2675 10.0913 11.5825 10.4119 11.5825 10.8438Z" fill="url(#paint5_linear_131_1292)"/>
</g>
</g>
</g>
<defs>
<filter id="filter0_i_131_1292" x="2" y="1" width="17.6875" height="17.5" filterUnits="userSpaceOnUse" color-interpolation-filters="sRGB">
<feFlood flood-opacity="0" result="BackgroundImageFix"/>
<feBlend mode="normal" in="SourceGraphic" in2="BackgroundImageFix" result="shape"/>
<feColorMatrix in="SourceAlpha" type="matrix" values="0 0 0 0 0 0 0 0 0 0 0 0 0 0 0 0 0 0 127 0" result="hardAlpha"/>
<feOffset dx="0.1875"/>
<feGaussianBlur stdDeviation="0.375"/>
<feComposite in2="hardAlpha" operator="arithmetic" k2="-1" k3="1"/>
<feColorMatrix type="matrix" values="0 0 0 0 0.294118 0 0 0 0 0.266667 0 0 0 0 0.32549 0 0 0 1 0"/>
<feBlend mode="normal" in2="shape" result="effect1_innerShadow_131_1292"/>
</filter>
<filter id="filter1_ii_131_1292" x="9.13125" y="7.15566" width="3.2375" height="5.15059" filterUnits="userSpaceOnUse" color-interpolation-filters="sRGB">
<feFlood flood-opacity="0" result="BackgroundImageFix"/>
<feBlend mode="normal" in="SourceGraphic" in2="BackgroundImageFix" result="shape"/>
<feColorMatrix in="SourceAlpha" type="matrix" values="0 0 0 0 0 0 0 0 0 0 0 0 0 0 0 0 0 0 127 0" result="hardAlpha"/>
<feOffset dx="0.05625" dy="-0.05625"/>
<feGaussianBlur stdDeviation="0.028125"/>
<feComposite in2="hardAlpha" operator="arithmetic" k2="-1" k3="1"/>
<feColorMatrix type="matrix" values="0 0 0 0 0.164706 0 0 0 0 0.0980392 0 0 0 0 0.243137 0 0 0 1 0"/>
<feBlend mode="normal" in2="shape" result="effect1_innerShadow_131_1292"/>
<feColorMatrix in="SourceAlpha" type="matrix" values="0 0 0 0 0 0 0 0 0 0 0 0 0 0 0 0 0 0 127 0" result="hardAlpha"/>
<feOffset dx="-0.05625" dy="0.05625"/>
<feGaussianBlur stdDeviation="0.028125"/>
<feComposite in2="hardAlpha" operator="arithmetic" k2="-1" k3="1"/>
<feColorMatrix type="matrix" values="0 0 0 0 0.360784 0 0 0 0 0.298039 0 0 0 0 0.427451 0 0 0 1 0"/>
<feBlend mode="normal" in2="effect1_innerShadow_131_1292" result="effect2_innerShadow_131_1292"/>
</filter>
<filter id="filter2_f_131_1292" x="8.95679" y="7.25439" width="3.3125" height="5.18628" filterUnits="userSpaceOnUse" color-interpolation-filters="sRGB">
<feFlood flood-opacity="0" result="BackgroundImageFix"/>
<feBlend mode="normal" in="SourceGraphic" in2="BackgroundImageFix" result="shape"/>
<feGaussianBlur stdDeviation="0.046875" result="effect1_foregroundBlur_131_1292"/>
</filter>
<filter id="filter3_ii_131_1292" x="9.13125" y="7.15566" width="3.2375" height="5.15059" filterUnits="userSpaceOnUse" color-interpolation-filters="sRGB">
<feFlood flood-opacity="0" result="BackgroundImageFix"/>
<feBlend mode="normal" in="SourceGraphic" in2="BackgroundImageFix" result="shape"/>
<feColorMatrix in="SourceAlpha" type="matrix" values="0 0 0 0 0 0 0 0 0 0 0 0 0 0 0 0 0 0 127 0" result="hardAlpha"/>
<feOffset dx="0.05625" dy="-0.05625"/>
<feGaussianBlur stdDeviation="0.028125"/>
<feComposite in2="hardAlpha" operator="arithmetic" k2="-1" k3="1"/>
<feColorMatrix type="matrix" values="0 0 0 0 0.164706 0 0 0 0 0.0980392 0 0 0 0 0.243137 0 0 0 1 0"/>
<feBlend mode="normal" in2="shape" result="effect1_innerShadow_131_1292"/>
<feColorMatrix in="SourceAlpha" type="matrix" values="0 0 0 0 0 0 0 0 0 0 0 0 0 0 0 0 0 0 127 0" result="hardAlpha"/>
<feOffset dx="-0.05625" dy="0.05625"/>
<feGaussianBlur stdDeviation="0.028125"/>
<feComposite in2="hardAlpha" operator="arithmetic" k2="-1" k3="1"/>
<feColorMatrix type="matrix" values="0 0 0 0 0.360784 0 0 0 0 0.298039 0 0 0 0 0.427451 0 0 0 1 0"/>
<feBlend mode="normal" in2="effect1_innerShadow_131_1292" result="effect2_innerShadow_131_1292"/>
</filter>
<linearGradient id="paint0_linear_131_1292" x1="9.61437" y1="15.0656" x2="15.7787" y2="2.67375" gradientUnits="userSpaceOnUse">
<stop stop-color="#2B2435"/>
<stop offset="1" stop-color="#362C41"/>
</linearGradient>
<radialGradient id="paint1_radial_131_1292" cx="0" cy="0" r="1" gradientUnits="userSpaceOnUse" gradientTransform="translate(10.75 6.39062) rotate(90) scale(12.1094)">
<stop offset="0.697" stop-color="#492B65" stop-opacity="0"/>
<stop offset="1" stop-color="#492B65"/>
</radialGradient>
<radialGradient id="paint2_radial_131_1292" cx="0" cy="0" r="1" gradientUnits="userSpaceOnUse" gradientTransform="translate(12.7281 8.17813) rotate(-40.236) scale(5.89162 5.40403)">
<stop offset="0.191" stop-color="#625C6B"/>
<stop offset="0.931" stop-color="#625C6B" stop-opacity="0"/>
</radialGradient>
<radialGradient id="paint3_radial_131_1292" cx="0" cy="0" r="1" gradientUnits="userSpaceOnUse" gradientTransform="translate(12.6641 7.40595) rotate(122.836) scale(7.99638 9.19487)">
<stop offset="0.119" stop-color="#D6D0DD"/>
<stop offset="0.967" stop-color="#A593B9"/>
</radialGradient>
<linearGradient id="paint4_linear_131_1292" x1="12.3125" y1="7.87504" x2="10.125" y2="11.8594" gradientUnits="userSpaceOnUse">
<stop stop-color="#46315B"/>
<stop offset="1" stop-color="#2B193C"/>
</linearGradient>
<linearGradient id="paint5_linear_131_1292" x1="12.3125" y1="7.87504" x2="10.125" y2="11.8594" gradientUnits="userSpaceOnUse">
<stop stop-color="#46315B"/>
<stop offset="0.902" stop-color="#2B193C"/>
</linearGradient>
</defs>
</svg>
