<svg width="30" height="30" viewBox="0 0 30 30" fill="none" xmlns="http://www.w3.org/2000/svg">
<path d="M26.2874 18.75H11.0194L11.3603 20.625H25.3404C26.1425 20.625 26.737 21.4629 26.5593 22.3429L26.2719 23.7653C27.2454 24.2969 27.9167 25.4196 27.9167 26.7187C27.9167 28.547 26.5876 30.026 24.9571 29.9996C23.4038 29.9745 22.1264 28.5564 22.0844 26.8094C22.0615 25.8551 22.4014 24.9901 22.9596 24.3749H12.0404C12.5809 24.9706 12.9167 25.8003 12.9167 26.7187C12.9167 28.5828 11.535 30.0838 9.86094 29.9964C8.37448 29.9187 7.16557 28.5676 7.08745 26.8958C7.02714 25.6047 7.63099 24.4668 8.54844 23.8731L4.88974 3.75H1.25C0.559636 3.75 0 3.12041 0 2.34375V1.40625C0 0.62959 0.559636 0 1.25 0H6.59005C7.18386 0 7.69568 0.46998 7.81469 1.12441L8.29208 3.75H28.7495C29.5516 3.75 30.1462 4.58795 29.9684 5.46791L27.5063 17.6554C27.3769 18.2957 26.871 18.75 26.2874 18.75ZM21.25 9.84375H18.75V7.5C18.75 6.98221 18.3769 6.5625 17.9167 6.5625H17.0833C16.6231 6.5625 16.25 6.98221 16.25 7.5V9.84375H13.75C13.2897 9.84375 12.9167 10.2635 12.9167 10.7812V11.7187C12.9167 12.2365 13.2897 12.6562 13.75 12.6562H16.25V15C16.25 15.5178 16.6231 15.9375 17.0833 15.9375H17.9167C18.3769 15.9375 18.75 15.5178 18.75 15V12.6562H21.25C21.7103 12.6562 22.0833 12.2365 22.0833 11.7187V10.7812C22.0833 10.2635 21.7103 9.84375 21.25 9.84375Z" fill="#E8E8E8"/>
</svg>
