<svg width="18" height="21" viewBox="0 0 18 21" fill="none" xmlns="http://www.w3.org/2000/svg">
<g id="Group">
<g id="Clip path group">
<mask id="mask0_308_8227" style="mask-type:luminance" maskUnits="userSpaceOnUse" x="0" y="0" width="18" height="21">
<g id="f591ids">
<path id="Vector" d="M0 0H18V21H0V0Z" fill="white"/>
</g>
</mask>
<g mask="url(#mask0_308_8227)">
<g id="Group_2">
<path id="Vector_2" d="M3.32994 11.8047L1.20931 9.33063C0.956185 9.03531 1.13619 8.52344 1.49619 8.52344H3.32994V11.8047Z" fill="url(#paint0_radial_308_8227)"/>
<path id="Vector_3" d="M3.32994 11.8047L1.20931 9.33063C0.956185 9.03531 1.13619 8.52344 1.49619 8.52344H3.32994V11.8047Z" fill="url(#paint1_linear_308_8227)" fill-opacity="0.75"/>
<path id="Vector_4" d="M3.32994 11.8047L1.20931 9.33063C0.956185 9.03531 1.13619 8.52344 1.49619 8.52344H3.32994V11.8047Z" fill="url(#paint2_linear_308_8227)" fill-opacity="0.75"/>
<path id="Vector_5" d="M3.32994 11.8047L1.20931 9.33063C0.956185 9.03531 1.13619 8.52344 1.49619 8.52344H3.32994V11.8047Z" fill="url(#paint3_radial_308_8227)"/>
<path id="Vector_6" d="M14.5854 11.8047L16.7061 9.33063C16.9592 9.03531 16.7792 8.52344 16.4192 8.52344H14.5854V11.8047Z" fill="url(#paint4_radial_308_8227)"/>
<path id="Vector_7" d="M14.5854 11.8047L16.7061 9.33063C16.9592 9.03531 16.7792 8.52344 16.4192 8.52344H14.5854V11.8047Z" fill="url(#paint5_linear_308_8227)" fill-opacity="0.75"/>
<path id="Vector_8" d="M14.5854 11.8047L16.7061 9.33063C16.9592 9.03531 16.7792 8.52344 16.4192 8.52344H14.5854V11.8047Z" fill="url(#paint6_linear_308_8227)" fill-opacity="0.75"/>
<g id="Group_3" filter="url(#filter0_f_308_8227)">
<path id="Vector_9" d="M16.5863 9.03061C16.6642 9.03061 16.7274 8.95686 16.7274 8.86589C16.7274 8.77492 16.6642 8.70117 16.5863 8.70117C16.5083 8.70117 16.4451 8.77492 16.4451 8.86589C16.4451 8.95686 16.5083 9.03061 16.5863 9.03061Z" fill="white"/>
</g>
<path id="Vector_10" d="M14.6176 6.86772C14.2194 3.679 11.8107 1.30469 8.96954 1.30469C6.12835 1.30469 3.72592 3.679 3.32148 6.86772L2.23023 18.0601C2.13179 18.8082 2.56492 19.5629 3.22923 19.6613C3.80635 19.7466 4.1146 19.7217 4.85204 19.0313C5.6086 18.1716 6.83879 18.1716 7.59479 19.0313C8.35079 19.891 9.58154 19.891 10.3381 19.0313C11.0947 18.1716 12.3249 18.1716 13.0814 19.0313C13.4859 19.4907 14.0169 19.7007 14.5422 19.6744C15.2701 19.6351 15.8073 18.8672 15.7032 18.0469L14.6176 6.86772Z" fill="url(#paint7_radial_308_8227)"/>
<path id="Vector_11" d="M14.6176 6.86772C14.2194 3.679 11.8107 1.30469 8.96954 1.30469C6.12835 1.30469 3.72592 3.679 3.32148 6.86772L2.23023 18.0601C2.13179 18.8082 2.56492 19.5629 3.22923 19.6613C3.80635 19.7466 4.1146 19.7217 4.85204 19.0313C5.6086 18.1716 6.83879 18.1716 7.59479 19.0313C8.35079 19.891 9.58154 19.891 10.3381 19.0313C11.0947 18.1716 12.3249 18.1716 13.0814 19.0313C13.4859 19.4907 14.0169 19.7007 14.5422 19.6744C15.2701 19.6351 15.8073 18.8672 15.7032 18.0469L14.6176 6.86772Z" fill="url(#paint8_radial_308_8227)"/>
<path id="Vector_12" d="M14.6176 6.86772C14.2194 3.679 11.8107 1.30469 8.96954 1.30469C6.12835 1.30469 3.72592 3.679 3.32148 6.86772L2.23023 18.0601C2.13179 18.8082 2.56492 19.5629 3.22923 19.6613C3.80635 19.7466 4.1146 19.7217 4.85204 19.0313C5.6086 18.1716 6.83879 18.1716 7.59479 19.0313C8.35079 19.891 9.58154 19.891 10.3381 19.0313C11.0947 18.1716 12.3249 18.1716 13.0814 19.0313C13.4859 19.4907 14.0169 19.7007 14.5422 19.6744C15.2701 19.6351 15.8073 18.8672 15.7032 18.0469L14.6176 6.86772Z" fill="url(#paint9_radial_308_8227)"/>
<path id="Vector_13" d="M14.6176 6.86772C14.2194 3.679 11.8107 1.30469 8.96954 1.30469C6.12835 1.30469 3.72592 3.679 3.32148 6.86772L2.23023 18.0601C2.13179 18.8082 2.56492 19.5629 3.22923 19.6613C3.80635 19.7466 4.1146 19.7217 4.85204 19.0313C5.6086 18.1716 6.83879 18.1716 7.59479 19.0313C8.35079 19.891 9.58154 19.891 10.3381 19.0313C11.0947 18.1716 12.3249 18.1716 13.0814 19.0313C13.4859 19.4907 14.0169 19.7007 14.5422 19.6744C15.2701 19.6351 15.8073 18.8672 15.7032 18.0469L14.6176 6.86772Z" fill="url(#paint10_radial_308_8227)" fill-opacity="0.75"/>
<path id="Vector_14" d="M14.6176 6.86772C14.2194 3.679 11.8107 1.30469 8.96954 1.30469C6.12835 1.30469 3.72592 3.679 3.32148 6.86772L2.23023 18.0601C2.13179 18.8082 2.56492 19.5629 3.22923 19.6613C3.80635 19.7466 4.1146 19.7217 4.85204 19.0313C5.6086 18.1716 6.83879 18.1716 7.59479 19.0313C8.35079 19.891 9.58154 19.891 10.3381 19.0313C11.0947 18.1716 12.3249 18.1716 13.0814 19.0313C13.4859 19.4907 14.0169 19.7007 14.5422 19.6744C15.2701 19.6351 15.8073 18.8672 15.7032 18.0469L14.6176 6.86772Z" fill="url(#paint11_linear_308_8227)"/>
<g id="Group_4" filter="url(#filter1_f_308_8227)">
<path id="Vector_15" d="M15.223 18.2516C14.7921 18.2987 14.358 18.2182 13.961 18.0174C13.5639 17.8167 13.2167 17.5022 12.9516 17.1032L12.0831 15.7966C12.0067 15.6817 11.9098 15.5875 11.7991 15.5207C11.6884 15.4539 11.5665 15.4161 11.442 15.4099C11.3174 15.4036 11.1932 15.4291 11.078 15.4846C10.9627 15.54 10.8593 15.6241 10.7747 15.731L9.34372 17.5396C9.1554 17.7776 8.8983 17.926 8.62188 17.9561C8.34545 17.9863 8.06923 17.8961 7.84635 17.703L7.54147 17.4392C7.16726 17.1149 6.71595 16.9342 6.24992 16.9221C5.78388 16.91 5.32613 17.0671 4.93991 17.3716L3.76878 18.295C3.70454 18.3457 3.632 18.3804 3.55572 18.3968C3.47943 18.4133 3.40106 18.4112 3.32551 18.3906C3.24997 18.37 3.17889 18.3314 3.11675 18.2772C3.05461 18.223 3.00274 18.1545 2.96441 18.0758L2.53241 17.1892L2.4621 17.8454C2.36647 18.5739 2.7321 19.2104 3.37897 19.3056C3.94147 19.3889 4.24128 19.3646 4.9596 18.6926C5.31859 18.29 5.79725 18.065 6.29525 18.065C6.79325 18.065 7.27192 18.29 7.63091 18.6926C8.36778 19.5294 9.56985 19.5746 10.3067 18.7373C11.2821 17.8861 12.24 18.0147 12.9741 18.6926C13.3678 19.1395 13.8853 19.3443 14.3972 19.3187C14.6532 19.3056 15.0643 19.0516 15.223 18.2516Z" fill="url(#paint12_linear_308_8227)"/>
<path id="Vector_16" d="M15.223 18.2516C14.7921 18.2987 14.358 18.2182 13.961 18.0174C13.5639 17.8167 13.2167 17.5022 12.9516 17.1032L12.0831 15.7966C12.0067 15.6817 11.9098 15.5875 11.7991 15.5207C11.6884 15.4539 11.5665 15.4161 11.442 15.4099C11.3174 15.4036 11.1932 15.4291 11.078 15.4846C10.9627 15.54 10.8593 15.6241 10.7747 15.731L9.34372 17.5396C9.1554 17.7776 8.8983 17.926 8.62188 17.9561C8.34545 17.9863 8.06923 17.8961 7.84635 17.703L7.54147 17.4392C7.16726 17.1149 6.71595 16.9342 6.24992 16.9221C5.78388 16.91 5.32613 17.0671 4.93991 17.3716L3.76878 18.295C3.70454 18.3457 3.632 18.3804 3.55572 18.3968C3.47943 18.4133 3.40106 18.4112 3.32551 18.3906C3.24997 18.37 3.17889 18.3314 3.11675 18.2772C3.05461 18.223 3.00274 18.1545 2.96441 18.0758L2.53241 17.1892L2.4621 17.8454C2.36647 18.5739 2.7321 19.2104 3.37897 19.3056C3.94147 19.3889 4.24128 19.3646 4.9596 18.6926C5.31859 18.29 5.79725 18.065 6.29525 18.065C6.79325 18.065 7.27192 18.29 7.63091 18.6926C8.36778 19.5294 9.56985 19.5746 10.3067 18.7373C11.2821 17.8861 12.24 18.0147 12.9741 18.6926C13.3678 19.1395 13.8853 19.3443 14.3972 19.3187C14.6532 19.3056 15.0643 19.0516 15.223 18.2516Z" fill="url(#paint13_linear_308_8227)"/>
</g>
<g id="Group_5" filter="url(#filter2_f_308_8227)">
<path id="Vector_17" d="M8.39197 13.5936C10.2448 13.5936 10.5407 10.901 10.5981 10.3602C10.642 9.9225 10.4434 9.70134 10.2268 9.55171C10.0108 9.40275 9.36228 9.26362 8.39197 9.26362C7.42165 9.26362 7.65734 8.31403 7.43684 8.463C7.21634 8.61196 6.58184 7.42153 6.25897 8.463C5.89109 9.65278 5.2999 13.5936 8.39197 13.5936Z" fill="url(#paint14_radial_308_8227)" fill-opacity="0.75"/>
</g>
<path id="Vector_18" d="M8.99376 11.1563C6.17676 11.1563 6.17676 7.86914 6.17676 7.86914H11.8108C11.8108 7.86914 11.8102 11.1563 8.99376 11.1563Z" fill="url(#paint15_radial_308_8227)"/>
<path id="Vector_19" d="M8.99997 12.5646C10.6908 12.5646 10.9603 10.5926 11.0126 10.0997C11.0531 9.70073 10.872 9.49861 10.6751 9.36277C10.4777 9.22627 9.8859 9.09961 9.00053 9.09961C8.11515 9.09961 7.52734 9.22627 7.32653 9.36211C7.12515 9.49861 6.94403 9.70073 6.98847 10.0997C7.04078 10.5926 7.30965 12.5646 8.99997 12.5646Z" fill="url(#paint16_radial_308_8227)"/>
<g id="Group_6" opacity="0.5" filter="url(#filter3_f_308_8227)">
<path id="Vector_20" d="M9.79858 11.3905C10.2013 11.1562 10.6041 10.6863 10.6041 9.98218" stroke="white" stroke-width="0.375"/>
</g>
<path id="Vector_21" d="M6.7864 6.54019C6.75204 6.56211 6.71424 6.57573 6.67526 6.58023C6.63629 6.58472 6.59693 6.58 6.55956 6.56635C6.52218 6.5527 6.48754 6.5304 6.45772 6.50078C6.4279 6.47116 6.4035 6.43483 6.38599 6.39396C6.36847 6.35309 6.3582 6.30852 6.35578 6.26292C6.35336 6.21731 6.35885 6.1716 6.37192 6.12853C6.38498 6.08545 6.40536 6.04589 6.43183 6.01221C6.4583 5.97853 6.49031 5.95142 6.52596 5.9325L7.1689 5.55713H8.11334C8.11304 5.62013 8.0978 5.6818 8.0693 5.73531C8.04081 5.78882 8.00018 5.83209 7.9519 5.86032L6.7864 6.54019Z" fill="url(#paint17_linear_308_8227)"/>
<path id="Vector_22" d="M6.7864 4.57415C6.75204 4.55223 6.71424 4.53861 6.67526 4.53412C6.63629 4.52962 6.59693 4.53434 6.55956 4.54799C6.52218 4.56164 6.48754 4.58394 6.45772 4.61356C6.4279 4.64318 6.4035 4.67951 6.38599 4.72038C6.36847 4.76125 6.3582 4.80582 6.35578 4.85143C6.35336 4.89704 6.35885 4.94274 6.37192 4.98582C6.38498 5.02889 6.40536 5.06845 6.43183 5.10213C6.4583 5.13581 6.49031 5.16292 6.52596 5.18184L7.1689 5.55722H8.11334C8.11304 5.49422 8.0978 5.43255 8.0693 5.37904C8.04081 5.32552 8.00018 5.28226 7.9519 5.25403L6.7864 4.57415Z" fill="url(#paint18_linear_308_8227)"/>
<path id="Vector_23" d="M10.967 6.55079C11.4334 6.55079 11.8108 6.11635 11.8108 5.58085C11.8108 5.04535 11.4334 4.61157 10.967 4.61157C10.5013 4.61157 10.1233 5.04535 10.1233 5.58085C10.1233 6.11635 10.5013 6.55079 10.967 6.55079Z" fill="url(#paint19_radial_308_8227)"/>
<g id="Group_7" filter="url(#filter4_f_308_8227)">
<path id="Vector_24" d="M7.13794 7.99121L12.9744 17.7004C12.1656 16.7981 11.9541 17.1787 10.8645 18.1631C9.77438 19.1475 8.6145 19.681 6.78638 18.1631C5.82731 17.3671 4.54763 18.3002 3.97388 19.1068L7.13794 7.99121Z" fill="url(#paint20_linear_308_8227)"/>
</g>
<g id="Group_8" filter="url(#filter5_f_308_8227)">
<path id="Vector_25" d="M13.6057 13.6587L14.6604 19.1955" stroke="url(#paint21_linear_308_8227)" stroke-width="0.4125" stroke-linecap="round"/>
</g>
</g>
</g>
</g>
</g>
<defs>
<filter id="filter0_f_308_8227" x="16.1638" y="8.41992" width="0.844971" height="0.891846" filterUnits="userSpaceOnUse" color-interpolation-filters="sRGB">
<feFlood flood-opacity="0" result="BackgroundImageFix"/>
<feBlend mode="normal" in="SourceGraphic" in2="BackgroundImageFix" result="shape"/>
<feGaussianBlur stdDeviation="0.140625" result="effect1_foregroundBlur_308_8227"/>
</filter>
<filter id="filter1_f_308_8227" x="2.07202" y="15.0339" width="13.5259" height="4.68433" filterUnits="userSpaceOnUse" color-interpolation-filters="sRGB">
<feFlood flood-opacity="0" result="BackgroundImageFix"/>
<feBlend mode="normal" in="SourceGraphic" in2="BackgroundImageFix" result="shape"/>
<feGaussianBlur stdDeviation="0.1875" result="effect1_foregroundBlur_308_8227"/>
</filter>
<filter id="filter2_f_308_8227" x="5.39429" y="7.46899" width="5.77246" height="6.68701" filterUnits="userSpaceOnUse" color-interpolation-filters="sRGB">
<feFlood flood-opacity="0" result="BackgroundImageFix"/>
<feBlend mode="normal" in="SourceGraphic" in2="BackgroundImageFix" result="shape"/>
<feGaussianBlur stdDeviation="0.28125" result="effect1_foregroundBlur_308_8227"/>
</filter>
<filter id="filter3_f_308_8227" x="9.32935" y="9.60718" width="1.83716" height="2.32031" filterUnits="userSpaceOnUse" color-interpolation-filters="sRGB">
<feFlood flood-opacity="0" result="BackgroundImageFix"/>
<feBlend mode="normal" in="SourceGraphic" in2="BackgroundImageFix" result="shape"/>
<feGaussianBlur stdDeviation="0.1875" result="effect1_foregroundBlur_308_8227"/>
</filter>
<filter id="filter4_f_308_8227" x="3.22388" y="7.24121" width="10.5005" height="12.6206" filterUnits="userSpaceOnUse" color-interpolation-filters="sRGB">
<feFlood flood-opacity="0" result="BackgroundImageFix"/>
<feBlend mode="normal" in="SourceGraphic" in2="BackgroundImageFix" result="shape"/>
<feGaussianBlur stdDeviation="0.375" result="effect1_foregroundBlur_308_8227"/>
</filter>
<filter id="filter5_f_308_8227" x="12.4619" y="12.5149" width="3.34229" height="7.82446" filterUnits="userSpaceOnUse" color-interpolation-filters="sRGB">
<feFlood flood-opacity="0" result="BackgroundImageFix"/>
<feBlend mode="normal" in="SourceGraphic" in2="BackgroundImageFix" result="shape"/>
<feGaussianBlur stdDeviation="0.46875" result="effect1_foregroundBlur_308_8227"/>
</filter>
<radialGradient id="paint0_radial_308_8227" cx="0" cy="0" r="1" gradientUnits="userSpaceOnUse" gradientTransform="translate(4.32556 8.27866) rotate(102.021) scale(4.78061 5.03419)">
<stop offset="0.213" stop-color="#F2F0F4"/>
<stop offset="0.887" stop-color="#D1BBE0"/>
</radialGradient>
<linearGradient id="paint1_linear_308_8227" x1="0.177123" y1="8.52344" x2="3.57592" y2="10.1397" gradientUnits="userSpaceOnUse">
<stop offset="0.392" stop-color="#D4CDCC" stop-opacity="0"/>
<stop offset="0.984" stop-color="#D4CDCC"/>
</linearGradient>
<linearGradient id="paint2_linear_308_8227" x1="2.40069" y1="10.2881" x2="2.38844" y2="8.14546" gradientUnits="userSpaceOnUse">
<stop offset="0.736" stop-color="#D4CDCC" stop-opacity="0"/>
<stop offset="0.917" stop-color="#D4CDCC"/>
</linearGradient>
<radialGradient id="paint3_radial_308_8227" cx="0" cy="0" r="1" gradientUnits="userSpaceOnUse" gradientTransform="translate(1.09118 7.27394) rotate(60.8217) scale(2.56023 2.70382)">
<stop stop-color="#FFD099"/>
<stop offset="1" stop-color="#E5C9C5" stop-opacity="0"/>
</radialGradient>
<radialGradient id="paint4_radial_308_8227" cx="0" cy="0" r="1" gradientUnits="userSpaceOnUse" gradientTransform="translate(17.4913 10.6781) rotate(61.6216) scale(2.77377 6.57024)">
<stop stop-color="#D1BBE0"/>
<stop offset="0.885" stop-color="#F2F0F4"/>
</radialGradient>
<linearGradient id="paint5_linear_308_8227" x1="15.8741" y1="9.13966" x2="15.9224" y2="7.17122" gradientUnits="userSpaceOnUse">
<stop offset="0.174" stop-color="#D4CDCC" stop-opacity="0"/>
<stop offset="0.644" stop-color="#D4CDCC"/>
</linearGradient>
<linearGradient id="paint6_linear_308_8227" x1="15.8038" y1="9.44744" x2="17.1258" y2="10.4943" gradientUnits="userSpaceOnUse">
<stop offset="0.174" stop-color="#D4CDCC" stop-opacity="0"/>
<stop offset="0.644" stop-color="#D4CDCC"/>
</linearGradient>
<radialGradient id="paint7_radial_308_8227" cx="0" cy="0" r="1" gradientUnits="userSpaceOnUse" gradientTransform="translate(13.0446 4.99639) rotate(123.841) scale(17.6767 15.8657)">
<stop offset="0.213" stop-color="#F2F0F4"/>
<stop offset="0.887" stop-color="#D1BBE0"/>
</radialGradient>
<radialGradient id="paint8_radial_308_8227" cx="0" cy="0" r="1" gradientUnits="userSpaceOnUse" gradientTransform="translate(9.98429 7.54694) rotate(109.868) scale(16.9648 24.5394)">
<stop offset="0.78" stop-color="#CB9DEB" stop-opacity="0"/>
<stop offset="0.834" stop-color="#CB9DEB" stop-opacity="0.75"/>
</radialGradient>
<radialGradient id="paint9_radial_308_8227" cx="0" cy="0" r="1" gradientUnits="userSpaceOnUse" gradientTransform="translate(10.9331 9.26964) rotate(88.8805) scale(12.5942 23.9833)">
<stop offset="0.768" stop-color="#CB9DEB" stop-opacity="0"/>
<stop offset="0.897" stop-color="#CB9DEB" stop-opacity="0.75"/>
</radialGradient>
<radialGradient id="paint10_radial_308_8227" cx="0" cy="0" r="1" gradientUnits="userSpaceOnUse" gradientTransform="translate(9.45835 13.7747) rotate(-96.5201) scale(14.8617 13.7525)">
<stop offset="0.677" stop-color="#D4CDCC" stop-opacity="0"/>
<stop offset="0.984" stop-color="#D4CDCC"/>
</radialGradient>
<linearGradient id="paint11_linear_308_8227" x1="7.55992" y1="10.7803" x2="-0.546137" y2="8.71001" gradientUnits="userSpaceOnUse">
<stop stop-color="#E5C9C5" stop-opacity="0"/>
<stop offset="1" stop-color="#FFD099"/>
</linearGradient>
<linearGradient id="paint12_linear_308_8227" x1="10.2015" y1="15.985" x2="16.9834" y2="18.8996" gradientUnits="userSpaceOnUse">
<stop offset="0.62" stop-color="#CB9DEB" stop-opacity="0"/>
<stop offset="1" stop-color="#CB9DEB"/>
</linearGradient>
<linearGradient id="paint13_linear_308_8227" x1="9.61316" y1="15.3477" x2="10.0201" y2="22.0888" gradientUnits="userSpaceOnUse">
<stop offset="0.302" stop-color="#CB9DEB" stop-opacity="0"/>
<stop offset="0.865" stop-color="#CB9DEB"/>
</linearGradient>
<radialGradient id="paint14_radial_308_8227" cx="0" cy="0" r="1" gradientUnits="userSpaceOnUse" gradientTransform="translate(3.18378 16.3997) rotate(-41.0776) scale(8.1715 7.48751)">
<stop offset="0.573" stop-color="#C8B1D8" stop-opacity="0"/>
<stop offset="1" stop-color="#B9A4C8"/>
</radialGradient>
<radialGradient id="paint15_radial_308_8227" cx="0" cy="0" r="1" gradientUnits="userSpaceOnUse" gradientTransform="translate(8.99376 11.8867) rotate(-90) scale(3.44387 5.90377)">
<stop stop-color="#F70A8D"/>
<stop offset="1" stop-color="#89029C"/>
</radialGradient>
<radialGradient id="paint16_radial_308_8227" cx="0" cy="0" r="1" gradientUnits="userSpaceOnUse" gradientTransform="translate(9.19566 13.0345) rotate(-92.5832) scale(4.46506 6.65817)">
<stop stop-color="#FF1C4A"/>
<stop offset="0.766" stop-color="#FF2B8F"/>
<stop offset="0.864" stop-color="#BB0773"/>
<stop offset="0.886" stop-color="#9F0762"/>
</radialGradient>
<linearGradient id="paint17_linear_308_8227" x1="7.11603" y1="6.82697" x2="6.15845" y2="5.12582" gradientUnits="userSpaceOnUse">
<stop offset="0.25" stop-color="#482641"/>
<stop offset="0.406" stop-color="#503A4A"/>
<stop offset="0.511" stop-color="#482641"/>
</linearGradient>
<linearGradient id="paint18_linear_308_8227" x1="6.6154" y1="5.60512" x2="7.49756" y2="4.12156" gradientUnits="userSpaceOnUse">
<stop offset="0.25" stop-color="#482641"/>
<stop offset="0.406" stop-color="#503A4A"/>
<stop offset="0.511" stop-color="#482641"/>
</linearGradient>
<radialGradient id="paint19_radial_308_8227" cx="0" cy="0" r="1" gradientUnits="userSpaceOnUse" gradientTransform="translate(11.205 5.29932) rotate(126.056) scale(1.22449 0.966414)">
<stop stop-color="#664D5F"/>
<stop offset="0.691" stop-color="#482641"/>
<stop offset="1" stop-color="#3E2338"/>
</radialGradient>
<linearGradient id="paint20_linear_308_8227" x1="8.85581" y1="8.40137" x2="8.88644" y2="23.1263" gradientUnits="userSpaceOnUse">
<stop offset="0.362" stop-color="#CB9DEB" stop-opacity="0"/>
<stop offset="1" stop-color="#CB9DEB"/>
</linearGradient>
<linearGradient id="paint21_linear_308_8227" x1="13.4741" y1="15.8427" x2="14.6368" y2="17.8739" gradientUnits="userSpaceOnUse">
<stop stop-color="white" stop-opacity="0"/>
<stop offset="1" stop-color="white"/>
</linearGradient>
</defs>
</svg>
