<svg width="20" height="20" viewBox="0 0 20 20" fill="none" xmlns="http://www.w3.org/2000/svg">
<g id="Frame">
<g id="Group">
<path id="Vector" d="M13.405 14.9187L14.5881 13.7356L17.4347 16.5822L16.2516 17.7652L13.405 14.9187Z" fill="url(#paint0_linear_131_1002)"/>
<g id="Group_2" filter="url(#filter0_f_131_1002)">
<path id="Vector_2" d="M14.0225 14.302L14.3349 13.9895L17.1815 16.8361L16.869 17.1485L14.0225 14.302Z" fill="url(#paint1_linear_131_1002)"/>
</g>
<g id="Group_3" filter="url(#filter1_i_131_1002)">
<path id="Vector_3" d="M1.37626 4.13627C1.2601 4.02015 1.16797 3.88228 1.10513 3.73053C1.04228 3.57878 1.00996 3.41614 1.01001 3.25189L1.01063 1.69189C1.01063 1.59244 1.05014 1.49706 1.12047 1.42673C1.1908 1.3564 1.28618 1.31689 1.38563 1.31689H2.94563C3.10984 1.31677 3.27245 1.34899 3.4242 1.41172C3.57594 1.47446 3.71384 1.56648 3.83001 1.68252L15.1813 13.0344L12.7281 15.4881L1.37626 4.13627Z" fill="url(#paint2_linear_131_1002)"/>
<path id="Vector_4" d="M1.37626 4.13627C1.2601 4.02015 1.16797 3.88228 1.10513 3.73053C1.04228 3.57878 1.00996 3.41614 1.01001 3.25189L1.01063 1.69189C1.01063 1.59244 1.05014 1.49706 1.12047 1.42673C1.1908 1.3564 1.28618 1.31689 1.38563 1.31689H2.94563C3.10984 1.31677 3.27245 1.34899 3.4242 1.41172C3.57594 1.47446 3.71384 1.56648 3.83001 1.68252L15.1813 13.0344L12.7281 15.4881L1.37626 4.13627Z" fill="url(#paint3_linear_131_1002)"/>
<path id="Vector_5" d="M1.37626 4.13627C1.2601 4.02015 1.16797 3.88228 1.10513 3.73053C1.04228 3.57878 1.00996 3.41614 1.01001 3.25189L1.01063 1.69189C1.01063 1.59244 1.05014 1.49706 1.12047 1.42673C1.1908 1.3564 1.28618 1.31689 1.38563 1.31689H2.94563C3.10984 1.31677 3.27245 1.34899 3.4242 1.41172C3.57594 1.47446 3.71384 1.56648 3.83001 1.68252L15.1813 13.0344L12.7281 15.4881L1.37626 4.13627Z" fill="url(#paint4_radial_131_1002)"/>
</g>
<g id="Group_4" filter="url(#filter2_i_131_1002)">
<path id="Vector_6" d="M15.7887 18.4751C15.6325 18.3188 15.5447 18.1068 15.5447 17.8858C15.5447 17.6647 15.6325 17.4527 15.7887 17.2964L16.9656 16.1195C17.043 16.0421 17.1349 15.9806 17.2361 15.9387C17.3373 15.8968 17.4457 15.8752 17.5553 15.8752C17.6648 15.8752 17.7732 15.8968 17.8744 15.9387C17.9756 15.9806 18.0675 16.0421 18.145 16.1195C18.2224 16.1969 18.2838 16.2889 18.3257 16.3901C18.3676 16.4912 18.3892 16.5997 18.3892 16.7092C18.3892 16.8187 18.3676 16.9271 18.3257 17.0283C18.2838 17.1295 18.2224 17.2214 18.145 17.2989L16.9681 18.4758C16.8907 18.5532 16.7987 18.6147 16.6975 18.6566C16.5964 18.6985 16.4879 18.7201 16.3784 18.7201C16.2689 18.7201 16.1604 18.6985 16.0592 18.6566C15.9581 18.6147 15.8661 18.5532 15.7887 18.4758" fill="url(#paint5_linear_131_1002)"/>
<path id="Vector_7" d="M15.7887 18.4751C15.6325 18.3188 15.5447 18.1068 15.5447 17.8858C15.5447 17.6647 15.6325 17.4527 15.7887 17.2964L16.9656 16.1195C17.043 16.0421 17.1349 15.9806 17.2361 15.9387C17.3373 15.8968 17.4457 15.8752 17.5553 15.8752C17.6648 15.8752 17.7732 15.8968 17.8744 15.9387C17.9756 15.9806 18.0675 16.0421 18.145 16.1195C18.2224 16.1969 18.2838 16.2889 18.3257 16.3901C18.3676 16.4912 18.3892 16.5997 18.3892 16.7092C18.3892 16.8187 18.3676 16.9271 18.3257 17.0283C18.2838 17.1295 18.2224 17.2214 18.145 17.2989L16.9681 18.4758C16.8907 18.5532 16.7987 18.6147 16.6975 18.6566C16.5964 18.6985 16.4879 18.7201 16.3784 18.7201C16.2689 18.7201 16.1604 18.6985 16.0592 18.6566C15.9581 18.6147 15.8661 18.5532 15.7887 18.4758" fill="url(#paint6_radial_131_1002)"/>
</g>
<path id="Vector_8" d="M15.7887 18.4751C15.6325 18.3188 15.5447 18.1068 15.5447 17.8858C15.5447 17.6647 15.6325 17.4527 15.7887 17.2964L16.9656 16.1195C17.043 16.0421 17.1349 15.9806 17.2361 15.9387C17.3373 15.8968 17.4457 15.8752 17.5553 15.8752C17.6648 15.8752 17.7732 15.8968 17.8744 15.9387C17.9756 15.9806 18.0675 16.0421 18.145 16.1195C18.2224 16.1969 18.2838 16.2889 18.3257 16.3901C18.3676 16.4912 18.3892 16.5997 18.3892 16.7092C18.3892 16.8187 18.3676 16.9271 18.3257 17.0283C18.2838 17.1295 18.2224 17.2214 18.145 17.2989L16.9681 18.4758C16.8907 18.5532 16.7987 18.6147 16.6975 18.6566C16.5964 18.6985 16.4879 18.7201 16.3784 18.7201C16.2689 18.7201 16.1604 18.6985 16.0592 18.6566C15.9581 18.6147 15.8661 18.5532 15.7887 18.4758" fill="url(#paint7_radial_131_1002)"/>
<g id="Group_5" filter="url(#filter3_i_131_1002)">
<path id="Vector_9" d="M1.1145 1.43314C1.1495 1.39643 1.19159 1.3672 1.23821 1.34722C1.28483 1.32723 1.33503 1.31692 1.38575 1.31689H2.94575C3.10995 1.31677 3.27257 1.34899 3.42431 1.41172C3.57606 1.47446 3.71395 1.56648 3.83013 1.68252L15.1814 13.0344L13.9489 14.2675L1.1145 1.43314Z" fill="url(#paint8_linear_131_1002)"/>
<path id="Vector_10" d="M1.1145 1.43314C1.1495 1.39643 1.19159 1.3672 1.23821 1.34722C1.28483 1.32723 1.33503 1.31692 1.38575 1.31689H2.94575C3.10995 1.31677 3.27257 1.34899 3.42431 1.41172C3.57606 1.47446 3.71395 1.56648 3.83013 1.68252L15.1814 13.0344L13.9489 14.2675L1.1145 1.43314Z" fill="url(#paint9_linear_131_1002)"/>
<path id="Vector_11" d="M1.1145 1.43314C1.1495 1.39643 1.19159 1.3672 1.23821 1.34722C1.28483 1.32723 1.33503 1.31692 1.38575 1.31689H2.94575C3.10995 1.31677 3.27257 1.34899 3.42431 1.41172C3.57606 1.47446 3.71395 1.56648 3.83013 1.68252L15.1814 13.0344L13.9489 14.2675L1.1145 1.43314Z" fill="url(#paint10_radial_131_1002)"/>
<path id="Vector_12" d="M1.1145 1.43314C1.1495 1.39643 1.19159 1.3672 1.23821 1.34722C1.28483 1.32723 1.33503 1.31692 1.38575 1.31689H2.94575C3.10995 1.31677 3.27257 1.34899 3.42431 1.41172C3.57606 1.47446 3.71395 1.56648 3.83013 1.68252L15.1814 13.0344L13.9489 14.2675L1.1145 1.43314Z" fill="url(#paint11_radial_131_1002)"/>
</g>
<path id="Vector_13" d="M10.4338 15.9074C10.4338 15.9962 10.4957 16.0731 10.5826 16.0887C10.8372 16.1337 11.0984 16.1564 11.3663 16.1568C12.0157 16.1569 12.6572 16.0155 13.2464 15.7426C13.8356 15.4697 14.3583 15.0718 14.7781 14.5764C15.198 14.0811 15.5049 13.5003 15.6776 12.8743C15.8503 12.2484 15.8847 11.5923 15.7782 10.9518C15.771 10.9091 15.7488 10.8704 15.7156 10.8426C15.6823 10.8149 15.6403 10.8 15.597 10.8006H14.2676C14.1395 10.8006 14.0488 10.9268 14.0782 11.0512C14.1261 11.2553 14.1503 11.4666 14.1507 11.6849C14.1508 12.1084 14.0544 12.5263 13.8686 12.9068C13.6829 13.2873 13.4129 13.6205 13.079 13.881C12.7452 14.1414 12.3563 14.3223 11.942 14.4099C11.5277 14.4974 11.0989 14.4893 10.6882 14.3862C10.562 14.3549 10.4338 14.4456 10.4338 14.5749V15.9074Z" fill="#614B76"/>
<path id="Vector_14" d="M10.4338 15.9074C10.4338 15.9962 10.4957 16.0731 10.5826 16.0887C10.8372 16.1337 11.0984 16.1564 11.3663 16.1568C12.0157 16.1569 12.6572 16.0155 13.2464 15.7426C13.8356 15.4697 14.3583 15.0718 14.7781 14.5764C15.198 14.0811 15.5049 13.5003 15.6776 12.8743C15.8503 12.2484 15.8847 11.5923 15.7782 10.9518C15.771 10.9091 15.7488 10.8704 15.7156 10.8426C15.6823 10.8149 15.6403 10.8 15.597 10.8006H14.2676C14.1395 10.8006 14.0488 10.9268 14.0782 11.0512C14.1261 11.2553 14.1503 11.4666 14.1507 11.6849C14.1508 12.1084 14.0544 12.5263 13.8686 12.9068C13.6829 13.2873 13.4129 13.6205 13.079 13.881C12.7452 14.1414 12.3563 14.3223 11.942 14.4099C11.5277 14.4974 11.0989 14.4893 10.6882 14.3862C10.562 14.3549 10.4338 14.4456 10.4338 14.5749V15.9074Z" fill="url(#paint12_linear_131_1002)"/>
<path id="Vector_15" d="M10.4338 15.9074C10.4338 15.9962 10.4957 16.0731 10.5826 16.0887C10.8372 16.1337 11.0984 16.1564 11.3663 16.1568C12.0157 16.1569 12.6572 16.0155 13.2464 15.7426C13.8356 15.4697 14.3583 15.0718 14.7781 14.5764C15.198 14.0811 15.5049 13.5003 15.6776 12.8743C15.8503 12.2484 15.8847 11.5923 15.7782 10.9518C15.771 10.9091 15.7488 10.8704 15.7156 10.8426C15.6823 10.8149 15.6403 10.8 15.597 10.8006H14.2676C14.1395 10.8006 14.0488 10.9268 14.0782 11.0512C14.1261 11.2553 14.1503 11.4666 14.1507 11.6849C14.1508 12.1084 14.0544 12.5263 13.8686 12.9068C13.6829 13.2873 13.4129 13.6205 13.079 13.881C12.7452 14.1414 12.3563 14.3223 11.942 14.4099C11.5277 14.4974 11.0989 14.4893 10.6882 14.3862C10.562 14.3549 10.4338 14.4456 10.4338 14.5749V15.9074Z" fill="url(#paint13_radial_131_1002)"/>
<path id="Vector_16" d="M10.4338 15.9074C10.4338 15.9962 10.4957 16.0731 10.5826 16.0887C10.8372 16.1337 11.0984 16.1564 11.3663 16.1568C12.0157 16.1569 12.6572 16.0155 13.2464 15.7426C13.8356 15.4697 14.3583 15.0718 14.7781 14.5764C15.198 14.0811 15.5049 13.5003 15.6776 12.8743C15.8503 12.2484 15.8847 11.5923 15.7782 10.9518C15.771 10.9091 15.7488 10.8704 15.7156 10.8426C15.6823 10.8149 15.6403 10.8 15.597 10.8006H14.2676C14.1395 10.8006 14.0488 10.9268 14.0782 11.0512C14.1261 11.2553 14.1503 11.4666 14.1507 11.6849C14.1508 12.1084 14.0544 12.5263 13.8686 12.9068C13.6829 13.2873 13.4129 13.6205 13.079 13.881C12.7452 14.1414 12.3563 14.3223 11.942 14.4099C11.5277 14.4974 11.0989 14.4893 10.6882 14.3862C10.562 14.3549 10.4338 14.4456 10.4338 14.5749V15.9074Z" fill="url(#paint14_radial_131_1002)"/>
<path id="Vector_17" d="M10.4338 15.9074C10.4338 15.9962 10.4957 16.0731 10.5826 16.0887C10.8372 16.1337 11.0984 16.1564 11.3663 16.1568C12.0157 16.1569 12.6572 16.0155 13.2464 15.7426C13.8356 15.4697 14.3583 15.0718 14.7781 14.5764C15.198 14.0811 15.5049 13.5003 15.6776 12.8743C15.8503 12.2484 15.8847 11.5923 15.7782 10.9518C15.771 10.9091 15.7488 10.8704 15.7156 10.8426C15.6823 10.8149 15.6403 10.8 15.597 10.8006H14.2676C14.1395 10.8006 14.0488 10.9268 14.0782 11.0512C14.1261 11.2553 14.1503 11.4666 14.1507 11.6849C14.1508 12.1084 14.0544 12.5263 13.8686 12.9068C13.6829 13.2873 13.4129 13.6205 13.079 13.881C12.7452 14.1414 12.3563 14.3223 11.942 14.4099C11.5277 14.4974 11.0989 14.4893 10.6882 14.3862C10.562 14.3549 10.4338 14.4456 10.4338 14.5749V15.9074Z" fill="url(#paint15_radial_131_1002)"/>
<g id="Group_6" filter="url(#filter4_f_131_1002)">
<path id="Vector_18" d="M11.3663 15.7812C11.1772 15.7812 10.9913 15.7687 10.8088 15.7437V14.7949C10.9901 14.8278 11.1759 14.8443 11.3663 14.8443C11.8244 14.8444 12.277 14.7449 12.6927 14.5527C13.1085 14.3605 13.4775 14.0802 13.7742 13.7312C14.0709 13.3822 14.2881 12.9729 14.4109 12.5316C14.5336 12.0903 14.5589 11.6276 14.4851 11.1755H15.432C15.4528 11.3422 15.4632 11.512 15.4632 11.6849C15.4632 12.7715 15.0316 13.8135 14.2633 14.5818C13.495 15.3502 12.4529 15.7812 11.3663 15.7812Z" fill="url(#paint16_linear_131_1002)"/>
</g>
<path id="Vector_19" d="M5.99365 14.9189L4.81057 13.7359L1.96403 16.5824L3.14711 17.7655L5.99365 14.9189Z" fill="url(#paint17_linear_131_1002)"/>
<g id="Group_7" filter="url(#filter5_f_131_1002)">
<path id="Vector_20" d="M5.37695 14.3015L5.0645 13.9891L2.21795 16.8356L2.53041 17.1481L5.37695 14.3015Z" fill="url(#paint18_linear_131_1002)"/>
</g>
<g id="Group_8" filter="url(#filter6_i_131_1002)">
<path id="Vector_21" d="M18.023 4.13627C18.1391 4.0201 18.2311 3.8822 18.2938 3.73046C18.3566 3.57871 18.3888 3.4161 18.3887 3.25189V1.69189C18.3887 1.59244 18.3492 1.49706 18.2788 1.42673C18.2085 1.3564 18.1131 1.31689 18.0137 1.31689H16.4537C16.2895 1.31677 16.1269 1.34899 15.9751 1.41172C15.8234 1.47446 15.6855 1.56648 15.5693 1.68252L4.2168 13.0344L6.67055 15.4881L18.023 4.13627Z" fill="url(#paint19_linear_131_1002)"/>
<path id="Vector_22" d="M18.023 4.13627C18.1391 4.0201 18.2311 3.8822 18.2938 3.73046C18.3566 3.57871 18.3888 3.4161 18.3887 3.25189V1.69189C18.3887 1.59244 18.3492 1.49706 18.2788 1.42673C18.2085 1.3564 18.1131 1.31689 18.0137 1.31689H16.4537C16.2895 1.31677 16.1269 1.34899 15.9751 1.41172C15.8234 1.47446 15.6855 1.56648 15.5693 1.68252L4.2168 13.0344L6.67055 15.4881L18.023 4.13627Z" fill="url(#paint20_linear_131_1002)"/>
</g>
<g id="Group_9" filter="url(#filter7_i_131_1002)">
<path id="Vector_23" d="M3.61052 18.475C3.76677 18.3187 3.85454 18.1067 3.85454 17.8856C3.85454 17.6646 3.76677 17.4526 3.61052 17.2963L2.43364 16.1188C2.3562 16.0413 2.26427 15.9799 2.16309 15.938C2.06191 15.8961 1.95347 15.8745 1.84395 15.8745C1.73444 15.8745 1.626 15.8961 1.52482 15.938C1.42364 15.9799 1.33171 16.0413 1.25427 16.1188C1.17683 16.1962 1.1154 16.2881 1.07349 16.3893C1.03158 16.4905 1.01001 16.5989 1.01001 16.7085C1.01001 16.818 1.03158 16.9264 1.07349 17.0276C1.1154 17.1288 1.17683 17.2207 1.25427 17.2981L2.43114 18.475C2.50857 18.5525 2.6005 18.6139 2.70168 18.6559C2.80286 18.6978 2.91131 18.7194 3.02083 18.7194C3.13035 18.7194 3.2388 18.6978 3.33998 18.6559C3.44116 18.6139 3.53309 18.5525 3.61052 18.475Z" fill="url(#paint21_linear_131_1002)"/>
<path id="Vector_24" d="M3.61052 18.475C3.76677 18.3187 3.85454 18.1067 3.85454 17.8856C3.85454 17.6646 3.76677 17.4526 3.61052 17.2963L2.43364 16.1188C2.3562 16.0413 2.26427 15.9799 2.16309 15.938C2.06191 15.8961 1.95347 15.8745 1.84395 15.8745C1.73444 15.8745 1.626 15.8961 1.52482 15.938C1.42364 15.9799 1.33171 16.0413 1.25427 16.1188C1.17683 16.1962 1.1154 16.2881 1.07349 16.3893C1.03158 16.4905 1.01001 16.5989 1.01001 16.7085C1.01001 16.818 1.03158 16.9264 1.07349 17.0276C1.1154 17.1288 1.17683 17.2207 1.25427 17.2981L2.43114 18.475C2.50857 18.5525 2.6005 18.6139 2.70168 18.6559C2.80286 18.6978 2.91131 18.7194 3.02083 18.7194C3.13035 18.7194 3.2388 18.6978 3.33998 18.6559C3.44116 18.6139 3.53309 18.5525 3.61052 18.475Z" fill="url(#paint22_radial_131_1002)"/>
</g>
<path id="Vector_25" d="M3.61052 18.475C3.76677 18.3187 3.85454 18.1067 3.85454 17.8856C3.85454 17.6646 3.76677 17.4526 3.61052 17.2963L2.43364 16.1188C2.3562 16.0413 2.26427 15.9799 2.16309 15.938C2.06191 15.8961 1.95347 15.8745 1.84395 15.8745C1.73444 15.8745 1.626 15.8961 1.52482 15.938C1.42364 15.9799 1.33171 16.0413 1.25427 16.1188C1.17683 16.1962 1.1154 16.2881 1.07349 16.3893C1.03158 16.4905 1.01001 16.5989 1.01001 16.7085C1.01001 16.818 1.03158 16.9264 1.07349 17.0276C1.1154 17.1288 1.17683 17.2207 1.25427 17.2981L2.43114 18.475C2.50857 18.5525 2.6005 18.6139 2.70168 18.6559C2.80286 18.6978 2.91131 18.7194 3.02083 18.7194C3.13035 18.7194 3.2388 18.6978 3.33998 18.6559C3.44116 18.6139 3.53309 18.5525 3.61052 18.475Z" fill="url(#paint23_radial_131_1002)"/>
<g id="Group_10" filter="url(#filter8_i_131_1002)">
<path id="Vector_26" d="M18.2843 1.43314C18.2494 1.39651 18.2074 1.36732 18.1609 1.34734C18.1144 1.32736 18.0643 1.317 18.0137 1.31689H16.4537C16.2895 1.31677 16.1269 1.34899 15.9751 1.41172C15.8234 1.47446 15.6855 1.56648 15.5693 1.68252L4.2168 13.0344L5.44992 14.2675L18.2843 1.43314Z" fill="url(#paint24_linear_131_1002)"/>
<path id="Vector_27" d="M18.2843 1.43314C18.2494 1.39651 18.2074 1.36732 18.1609 1.34734C18.1144 1.32736 18.0643 1.317 18.0137 1.31689H16.4537C16.2895 1.31677 16.1269 1.34899 15.9751 1.41172C15.8234 1.47446 15.6855 1.56648 15.5693 1.68252L4.2168 13.0344L5.44992 14.2675L18.2843 1.43314Z" fill="url(#paint25_linear_131_1002)"/>
</g>
<path id="Vector_28" d="M8.96556 15.9074C8.96623 15.9505 8.95157 15.9923 8.9242 16.0255C8.89684 16.0587 8.85855 16.0811 8.81619 16.0887C8.5616 16.1337 8.30056 16.1564 8.03306 16.1568C7.38368 16.157 6.74205 16.0157 6.15279 15.7428C5.56352 15.4699 5.04076 15.072 4.62084 14.5767C4.20092 14.0813 3.89392 13.5005 3.72118 12.8745C3.54844 12.2485 3.5141 11.5924 3.62056 10.9518C3.62773 10.9091 3.64994 10.8704 3.68319 10.8426C3.71643 10.8149 3.75852 10.8 3.80181 10.8006H5.13181C5.25931 10.8006 5.35056 10.9268 5.32119 11.0512C5.21233 11.5162 5.22491 12.0014 5.35772 12.4602C5.49054 12.9189 5.73912 13.3358 6.07958 13.6707C6.42004 14.0057 6.84093 14.2474 7.3018 14.3727C7.76266 14.498 8.24801 14.5026 8.71119 14.3862C8.83681 14.3549 8.96556 14.4456 8.96556 14.5749V15.9074Z" fill="#614B76"/>
<path id="Vector_29" d="M8.96556 15.9074C8.96623 15.9505 8.95157 15.9923 8.9242 16.0255C8.89684 16.0587 8.85855 16.0811 8.81619 16.0887C8.5616 16.1337 8.30056 16.1564 8.03306 16.1568C7.38368 16.157 6.74205 16.0157 6.15279 15.7428C5.56352 15.4699 5.04076 15.072 4.62084 14.5767C4.20092 14.0813 3.89392 13.5005 3.72118 12.8745C3.54844 12.2485 3.5141 11.5924 3.62056 10.9518C3.62773 10.9091 3.64994 10.8704 3.68319 10.8426C3.71643 10.8149 3.75852 10.8 3.80181 10.8006H5.13181C5.25931 10.8006 5.35056 10.9268 5.32119 11.0512C5.21233 11.5162 5.22491 12.0014 5.35772 12.4602C5.49054 12.9189 5.73912 13.3358 6.07958 13.6707C6.42004 14.0057 6.84093 14.2474 7.3018 14.3727C7.76266 14.498 8.24801 14.5026 8.71119 14.3862C8.83681 14.3549 8.96556 14.4456 8.96556 14.5749V15.9074Z" fill="url(#paint26_linear_131_1002)"/>
<path id="Vector_30" d="M8.96556 15.9074C8.96623 15.9505 8.95157 15.9923 8.9242 16.0255C8.89684 16.0587 8.85855 16.0811 8.81619 16.0887C8.5616 16.1337 8.30056 16.1564 8.03306 16.1568C7.38368 16.157 6.74205 16.0157 6.15279 15.7428C5.56352 15.4699 5.04076 15.072 4.62084 14.5767C4.20092 14.0813 3.89392 13.5005 3.72118 12.8745C3.54844 12.2485 3.5141 11.5924 3.62056 10.9518C3.62773 10.9091 3.64994 10.8704 3.68319 10.8426C3.71643 10.8149 3.75852 10.8 3.80181 10.8006H5.13181C5.25931 10.8006 5.35056 10.9268 5.32119 11.0512C5.21233 11.5162 5.22491 12.0014 5.35772 12.4602C5.49054 12.9189 5.73912 13.3358 6.07958 13.6707C6.42004 14.0057 6.84093 14.2474 7.3018 14.3727C7.76266 14.498 8.24801 14.5026 8.71119 14.3862C8.83681 14.3549 8.96556 14.4456 8.96556 14.5749V15.9074Z" fill="url(#paint27_radial_131_1002)"/>
<path id="Vector_31" d="M8.96556 15.9074C8.96623 15.9505 8.95157 15.9923 8.9242 16.0255C8.89684 16.0587 8.85855 16.0811 8.81619 16.0887C8.5616 16.1337 8.30056 16.1564 8.03306 16.1568C7.38368 16.157 6.74205 16.0157 6.15279 15.7428C5.56352 15.4699 5.04076 15.072 4.62084 14.5767C4.20092 14.0813 3.89392 13.5005 3.72118 12.8745C3.54844 12.2485 3.5141 11.5924 3.62056 10.9518C3.62773 10.9091 3.64994 10.8704 3.68319 10.8426C3.71643 10.8149 3.75852 10.8 3.80181 10.8006H5.13181C5.25931 10.8006 5.35056 10.9268 5.32119 11.0512C5.21233 11.5162 5.22491 12.0014 5.35772 12.4602C5.49054 12.9189 5.73912 13.3358 6.07958 13.6707C6.42004 14.0057 6.84093 14.2474 7.3018 14.3727C7.76266 14.498 8.24801 14.5026 8.71119 14.3862C8.83681 14.3549 8.96556 14.4456 8.96556 14.5749V15.9074Z" fill="url(#paint28_radial_131_1002)"/>
<path id="Vector_32" d="M8.96556 15.9074C8.96623 15.9505 8.95157 15.9923 8.9242 16.0255C8.89684 16.0587 8.85855 16.0811 8.81619 16.0887C8.5616 16.1337 8.30056 16.1564 8.03306 16.1568C7.38368 16.157 6.74205 16.0157 6.15279 15.7428C5.56352 15.4699 5.04076 15.072 4.62084 14.5767C4.20092 14.0813 3.89392 13.5005 3.72118 12.8745C3.54844 12.2485 3.5141 11.5924 3.62056 10.9518C3.62773 10.9091 3.64994 10.8704 3.68319 10.8426C3.71643 10.8149 3.75852 10.8 3.80181 10.8006H5.13181C5.25931 10.8006 5.35056 10.9268 5.32119 11.0512C5.21233 11.5162 5.22491 12.0014 5.35772 12.4602C5.49054 12.9189 5.73912 13.3358 6.07958 13.6707C6.42004 14.0057 6.84093 14.2474 7.3018 14.3727C7.76266 14.498 8.24801 14.5026 8.71119 14.3862C8.83681 14.3549 8.96556 14.4456 8.96556 14.5749V15.9074Z" fill="url(#paint29_radial_131_1002)"/>
<g id="Group_11" filter="url(#filter9_f_131_1002)">
<path id="Vector_33" d="M8.03305 15.7812C8.22221 15.7812 8.40805 15.7687 8.59055 15.7437V14.7949C8.09315 14.8841 7.58161 14.8527 7.09887 14.7033C6.61613 14.5539 6.17627 14.2909 5.8162 13.9363C5.45614 13.5818 5.18637 13.146 5.02955 12.6656C4.87272 12.1852 4.83341 11.6743 4.91492 11.1755H3.9668C3.94596 11.3422 3.93555 11.512 3.93555 11.6849C3.93555 12.7715 4.36718 13.8135 5.13549 14.5818C5.90381 15.3502 6.94586 15.7818 8.03242 15.7818" fill="url(#paint30_linear_131_1002)"/>
</g>
</g>
</g>
<defs>
<filter id="filter0_f_131_1002" x="13.7787" y="13.7458" width="3.64644" height="3.64644" filterUnits="userSpaceOnUse" color-interpolation-filters="sRGB">
<feFlood flood-opacity="0" result="BackgroundImageFix"/>
<feBlend mode="normal" in="SourceGraphic" in2="BackgroundImageFix" result="shape"/>
<feGaussianBlur stdDeviation="0.121875" result="effect1_foregroundBlur_131_1002"/>
</filter>
<filter id="filter1_i_131_1002" x="1.01001" y="1.31689" width="14.2461" height="14.2461" filterUnits="userSpaceOnUse" color-interpolation-filters="sRGB">
<feFlood flood-opacity="0" result="BackgroundImageFix"/>
<feBlend mode="normal" in="SourceGraphic" in2="BackgroundImageFix" result="shape"/>
<feColorMatrix in="SourceAlpha" type="matrix" values="0 0 0 0 0 0 0 0 0 0 0 0 0 0 0 0 0 0 127 0" result="hardAlpha"/>
<feOffset dx="0.075" dy="0.075"/>
<feGaussianBlur stdDeviation="0.075"/>
<feComposite in2="hardAlpha" operator="arithmetic" k2="-1" k3="1"/>
<feColorMatrix type="matrix" values="0 0 0 0 0.662745 0 0 0 0 0.643137 0 0 0 0 0.686275 0 0 0 1 0"/>
<feBlend mode="normal" in2="shape" result="effect1_innerShadow_131_1002"/>
</filter>
<filter id="filter2_i_131_1002" x="15.5447" y="15.8752" width="2.84448" height="2.84473" filterUnits="userSpaceOnUse" color-interpolation-filters="sRGB">
<feFlood flood-opacity="0" result="BackgroundImageFix"/>
<feBlend mode="normal" in="SourceGraphic" in2="BackgroundImageFix" result="shape"/>
<feColorMatrix in="SourceAlpha" type="matrix" values="0 0 0 0 0 0 0 0 0 0 0 0 0 0 0 0 0 0 127 0" result="hardAlpha"/>
<feOffset/>
<feGaussianBlur stdDeviation="0.09375"/>
<feComposite in2="hardAlpha" operator="arithmetic" k2="-1" k3="1"/>
<feColorMatrix type="matrix" values="0 0 0 0 0.27451 0 0 0 0 0.258824 0 0 0 0 0.552941 0 0 0 1 0"/>
<feBlend mode="normal" in2="shape" result="effect1_innerShadow_131_1002"/>
</filter>
<filter id="filter3_i_131_1002" x="1.1145" y="1.31689" width="14.0669" height="13.0257" filterUnits="userSpaceOnUse" color-interpolation-filters="sRGB">
<feFlood flood-opacity="0" result="BackgroundImageFix"/>
<feBlend mode="normal" in="SourceGraphic" in2="BackgroundImageFix" result="shape"/>
<feColorMatrix in="SourceAlpha" type="matrix" values="0 0 0 0 0 0 0 0 0 0 0 0 0 0 0 0 0 0 127 0" result="hardAlpha"/>
<feOffset dy="0.075"/>
<feGaussianBlur stdDeviation="0.09375"/>
<feComposite in2="hardAlpha" operator="arithmetic" k2="-1" k3="1"/>
<feColorMatrix type="matrix" values="0 0 0 0 0.772549 0 0 0 0 0.772549 0 0 0 0 0.776471 0 0 0 1 0"/>
<feBlend mode="normal" in2="shape" result="effect1_innerShadow_131_1002"/>
</filter>
<filter id="filter4_f_131_1002" x="10.5838" y="10.9505" width="5.1043" height="5.05571" filterUnits="userSpaceOnUse" color-interpolation-filters="sRGB">
<feFlood flood-opacity="0" result="BackgroundImageFix"/>
<feBlend mode="normal" in="SourceGraphic" in2="BackgroundImageFix" result="shape"/>
<feGaussianBlur stdDeviation="0.1125" result="effect1_foregroundBlur_131_1002"/>
</filter>
<filter id="filter5_f_131_1002" x="1.97427" y="13.7453" width="3.64644" height="3.64644" filterUnits="userSpaceOnUse" color-interpolation-filters="sRGB">
<feFlood flood-opacity="0" result="BackgroundImageFix"/>
<feBlend mode="normal" in="SourceGraphic" in2="BackgroundImageFix" result="shape"/>
<feGaussianBlur stdDeviation="0.121875" result="effect1_foregroundBlur_131_1002"/>
</filter>
<filter id="filter6_i_131_1002" x="4.2168" y="1.31689" width="14.2469" height="14.2461" filterUnits="userSpaceOnUse" color-interpolation-filters="sRGB">
<feFlood flood-opacity="0" result="BackgroundImageFix"/>
<feBlend mode="normal" in="SourceGraphic" in2="BackgroundImageFix" result="shape"/>
<feColorMatrix in="SourceAlpha" type="matrix" values="0 0 0 0 0 0 0 0 0 0 0 0 0 0 0 0 0 0 127 0" result="hardAlpha"/>
<feOffset dx="0.075" dy="0.075"/>
<feGaussianBlur stdDeviation="0.075"/>
<feComposite in2="hardAlpha" operator="arithmetic" k2="-1" k3="1"/>
<feColorMatrix type="matrix" values="0 0 0 0 0.662745 0 0 0 0 0.643137 0 0 0 0 0.686275 0 0 0 1 0"/>
<feBlend mode="normal" in2="shape" result="effect1_innerShadow_131_1002"/>
</filter>
<filter id="filter7_i_131_1002" x="1.01001" y="15.8745" width="2.84448" height="2.84473" filterUnits="userSpaceOnUse" color-interpolation-filters="sRGB">
<feFlood flood-opacity="0" result="BackgroundImageFix"/>
<feBlend mode="normal" in="SourceGraphic" in2="BackgroundImageFix" result="shape"/>
<feColorMatrix in="SourceAlpha" type="matrix" values="0 0 0 0 0 0 0 0 0 0 0 0 0 0 0 0 0 0 127 0" result="hardAlpha"/>
<feOffset/>
<feGaussianBlur stdDeviation="0.09375"/>
<feComposite in2="hardAlpha" operator="arithmetic" k2="-1" k3="1"/>
<feColorMatrix type="matrix" values="0 0 0 0 0.27451 0 0 0 0 0.258824 0 0 0 0 0.552941 0 0 0 1 0"/>
<feBlend mode="normal" in2="shape" result="effect1_innerShadow_131_1002"/>
</filter>
<filter id="filter8_i_131_1002" x="4.2168" y="1.31689" width="14.0674" height="13.0257" filterUnits="userSpaceOnUse" color-interpolation-filters="sRGB">
<feFlood flood-opacity="0" result="BackgroundImageFix"/>
<feBlend mode="normal" in="SourceGraphic" in2="BackgroundImageFix" result="shape"/>
<feColorMatrix in="SourceAlpha" type="matrix" values="0 0 0 0 0 0 0 0 0 0 0 0 0 0 0 0 0 0 127 0" result="hardAlpha"/>
<feOffset dy="0.075"/>
<feGaussianBlur stdDeviation="0.09375"/>
<feComposite in2="hardAlpha" operator="arithmetic" k2="-1" k3="1"/>
<feColorMatrix type="matrix" values="0 0 0 0 0.772549 0 0 0 0 0.772549 0 0 0 0 0.776471 0 0 0 1 0"/>
<feBlend mode="normal" in2="shape" result="effect1_innerShadow_131_1002"/>
</filter>
<filter id="filter9_f_131_1002" x="3.71055" y="10.9505" width="5.10503" height="5.0562" filterUnits="userSpaceOnUse" color-interpolation-filters="sRGB">
<feFlood flood-opacity="0" result="BackgroundImageFix"/>
<feBlend mode="normal" in="SourceGraphic" in2="BackgroundImageFix" result="shape"/>
<feGaussianBlur stdDeviation="0.1125" result="effect1_foregroundBlur_131_1002"/>
</filter>
<linearGradient id="paint0_linear_131_1002" x1="13.9968" y1="14.3269" x2="16.3811" y2="16.8164" gradientUnits="userSpaceOnUse">
<stop stop-color="#2B1E38"/>
<stop offset="1" stop-color="#502E76"/>
</linearGradient>
<linearGradient id="paint1_linear_131_1002" x1="14.1789" y1="14.1456" x2="17.0255" y2="16.9921" gradientUnits="userSpaceOnUse">
<stop stop-color="#454249"/>
<stop offset="1" stop-color="#674D82"/>
</linearGradient>
<linearGradient id="paint2_linear_131_1002" x1="4.46688" y1="5.89815" x2="13.0994" y2="14.8244" gradientUnits="userSpaceOnUse">
<stop stop-color="#9F94AC"/>
<stop offset="1" stop-color="#8F76A7"/>
</linearGradient>
<linearGradient id="paint3_linear_131_1002" x1="9.89626" y1="7.89064" x2="8.35376" y2="9.3944" gradientUnits="userSpaceOnUse">
<stop offset="0.478" stop-color="#ACA0B9"/>
<stop offset="1" stop-color="#ACA0B9" stop-opacity="0"/>
</linearGradient>
<radialGradient id="paint4_radial_131_1002" cx="0" cy="0" r="1" gradientUnits="userSpaceOnUse" gradientTransform="translate(9.81251 11.3281) rotate(44.3969) scale(1.31209 4.87766)">
<stop offset="0.348" stop-color="#8D72A7"/>
<stop offset="1" stop-color="#8D72A7" stop-opacity="0"/>
</radialGradient>
<linearGradient id="paint5_linear_131_1002" x1="16.9668" y1="16.0351" x2="16.9668" y2="18.7195" gradientUnits="userSpaceOnUse">
<stop stop-color="#6563A7"/>
<stop offset="1" stop-color="#6345A1"/>
</linearGradient>
<radialGradient id="paint6_radial_131_1002" cx="0" cy="0" r="1" gradientUnits="userSpaceOnUse" gradientTransform="translate(18.0409 16.5036) rotate(135) scale(1.90587 0.414319)">
<stop stop-color="#736DB2"/>
<stop offset="1" stop-color="#736DB2" stop-opacity="0"/>
</radialGradient>
<radialGradient id="paint7_radial_131_1002" cx="0" cy="0" r="1" gradientUnits="userSpaceOnUse" gradientTransform="translate(17.8361 17.8023) rotate(178.44) scale(2.51069 2.70221)">
<stop offset="0.695" stop-color="#6B669F" stop-opacity="0"/>
<stop offset="0.92" stop-color="#6B669F"/>
</radialGradient>
<linearGradient id="paint8_linear_131_1002" x1="2.26013" y1="1.69939" x2="13.9789" y2="13.0469" gradientUnits="userSpaceOnUse">
<stop stop-color="#DBD7E0"/>
<stop offset="1" stop-color="#D7D1DE"/>
</linearGradient>
<linearGradient id="paint9_linear_131_1002" x1="8.60763" y1="9.07252" x2="8.847" y2="8.81814" gradientUnits="userSpaceOnUse">
<stop stop-color="#C8BFD2"/>
<stop offset="1" stop-color="#C8BFD2" stop-opacity="0"/>
</linearGradient>
<radialGradient id="paint10_radial_131_1002" cx="0" cy="0" r="1" gradientUnits="userSpaceOnUse" gradientTransform="translate(9.50013 8.78939) rotate(-64.8552) scale(4.22886 1.71103)">
<stop offset="0.378" stop-color="#BDB8C2"/>
<stop offset="1" stop-color="#BDB8C2" stop-opacity="0"/>
</radialGradient>
<radialGradient id="paint11_radial_131_1002" cx="0" cy="0" r="1" gradientUnits="userSpaceOnUse" gradientTransform="translate(14.4801 12.5) rotate(-136.146) scale(2.76269 3.41659)">
<stop offset="0.126" stop-color="#8A8094"/>
<stop offset="1" stop-color="#D1CBD8" stop-opacity="0"/>
</radialGradient>
<linearGradient id="paint12_linear_131_1002" x1="10.4338" y1="15.4299" x2="11.8495" y2="15.5274" gradientUnits="userSpaceOnUse">
<stop offset="0.255" stop-color="#403848"/>
<stop offset="1" stop-color="#403848" stop-opacity="0"/>
</linearGradient>
<radialGradient id="paint13_radial_131_1002" cx="0" cy="0" r="1" gradientUnits="userSpaceOnUse" gradientTransform="translate(12.6894 13.047) rotate(45.83) scale(1.90607 7.35906)">
<stop offset="0.508" stop-color="#493A5A"/>
<stop offset="0.819" stop-color="#493A5A" stop-opacity="0"/>
</radialGradient>
<radialGradient id="paint14_radial_131_1002" cx="0" cy="0" r="1" gradientUnits="userSpaceOnUse" gradientTransform="translate(12.9826 12.8518) rotate(54.8025) scale(2.67692 4.63597)">
<stop offset="0.696" stop-color="#492E62" stop-opacity="0"/>
<stop offset="0.918" stop-color="#492E62"/>
</radialGradient>
<radialGradient id="paint15_radial_131_1002" cx="0" cy="0" r="1" gradientUnits="userSpaceOnUse" gradientTransform="translate(15.9901 10.8006) rotate(99.6599) scale(3.72469 0.744773)">
<stop offset="0.095" stop-color="#7A678F"/>
<stop offset="1" stop-color="#7A678F" stop-opacity="0"/>
</radialGradient>
<linearGradient id="paint16_linear_131_1002" x1="14.9357" y1="11.6212" x2="10.8926" y2="15.6643" gradientUnits="userSpaceOnUse">
<stop stop-color="#654E7E"/>
<stop offset="1" stop-color="#52475F"/>
</linearGradient>
<linearGradient id="paint17_linear_131_1002" x1="5.40233" y1="14.3276" x2="3.01806" y2="16.8162" gradientUnits="userSpaceOnUse">
<stop stop-color="#2B1E38"/>
<stop offset="1" stop-color="#502E76"/>
</linearGradient>
<linearGradient id="paint18_linear_131_1002" x1="5.22051" y1="14.1451" x2="2.37396" y2="16.9916" gradientUnits="userSpaceOnUse">
<stop stop-color="#454249"/>
<stop offset="1" stop-color="#674D82"/>
</linearGradient>
<linearGradient id="paint19_linear_131_1002" x1="14.9324" y1="5.89815" x2="6.2993" y2="14.8244" gradientUnits="userSpaceOnUse">
<stop stop-color="#9F94AC"/>
<stop offset="1" stop-color="#8F76A7"/>
</linearGradient>
<linearGradient id="paint20_linear_131_1002" x1="9.50242" y1="7.89065" x2="11.0455" y2="9.3944" gradientUnits="userSpaceOnUse">
<stop offset="0.478" stop-color="#ACA0B9"/>
<stop offset="1" stop-color="#ACA0B9" stop-opacity="0"/>
</linearGradient>
<linearGradient id="paint21_linear_131_1002" x1="2.43239" y1="16.035" x2="2.43239" y2="18.7194" gradientUnits="userSpaceOnUse">
<stop stop-color="#6563A7"/>
<stop offset="1" stop-color="#6345A1"/>
</linearGradient>
<radialGradient id="paint22_radial_131_1002" cx="0" cy="0" r="1" gradientUnits="userSpaceOnUse" gradientTransform="translate(1.35788 16.504) rotate(45) scale(1.90588 0.414319)">
<stop stop-color="#736DB2"/>
<stop offset="1" stop-color="#736DB2" stop-opacity="0"/>
</radialGradient>
<radialGradient id="paint23_radial_131_1002" cx="0" cy="0" r="1" gradientUnits="userSpaceOnUse" gradientTransform="translate(1.56302 17.8025) rotate(1.56013) scale(2.51069 2.70221)">
<stop offset="0.695" stop-color="#6B669F" stop-opacity="0"/>
<stop offset="0.92" stop-color="#6B669F"/>
</radialGradient>
<linearGradient id="paint24_linear_131_1002" x1="17.1393" y1="1.69939" x2="5.42055" y2="13.0469" gradientUnits="userSpaceOnUse">
<stop stop-color="#DBD7E0"/>
<stop offset="1" stop-color="#D7D1DE"/>
</linearGradient>
<linearGradient id="paint25_linear_131_1002" x1="10.7918" y1="9.07252" x2="10.5524" y2="8.81814" gradientUnits="userSpaceOnUse">
<stop stop-color="#C8BFD2"/>
<stop offset="1" stop-color="#C8BFD2" stop-opacity="0"/>
</linearGradient>
<linearGradient id="paint26_linear_131_1002" x1="8.96556" y1="15.4299" x2="7.54931" y2="15.5274" gradientUnits="userSpaceOnUse">
<stop offset="0.255" stop-color="#403848"/>
<stop offset="1" stop-color="#403848" stop-opacity="0"/>
</linearGradient>
<radialGradient id="paint27_radial_131_1002" cx="0" cy="0" r="1" gradientUnits="userSpaceOnUse" gradientTransform="translate(6.70994 13.0468) rotate(134.17) scale(1.90607 7.35906)">
<stop offset="0.508" stop-color="#493A5A"/>
<stop offset="0.819" stop-color="#493A5A" stop-opacity="0"/>
</radialGradient>
<radialGradient id="paint28_radial_131_1002" cx="0" cy="0" r="1" gradientUnits="userSpaceOnUse" gradientTransform="translate(6.41681 12.8518) rotate(125.198) scale(2.67692 4.63596)">
<stop offset="0.696" stop-color="#492E62" stop-opacity="0"/>
<stop offset="0.918" stop-color="#492E62"/>
</radialGradient>
<radialGradient id="paint29_radial_131_1002" cx="0" cy="0" r="1" gradientUnits="userSpaceOnUse" gradientTransform="translate(3.40869 10.8006) rotate(80.3401) scale(3.72469 0.744773)">
<stop offset="0.095" stop-color="#7A678F"/>
<stop offset="1" stop-color="#7A678F" stop-opacity="0"/>
</radialGradient>
<linearGradient id="paint30_linear_131_1002" x1="4.46367" y1="11.6212" x2="8.5068" y2="15.6643" gradientUnits="userSpaceOnUse">
<stop stop-color="#654E7E"/>
<stop offset="1" stop-color="#52475F"/>
</linearGradient>
</defs>
</svg>
