<svg width="20" height="20" viewBox="0 0 20 20" fill="none" xmlns="http://www.w3.org/2000/svg">
<path d="M17.4916 12.5H7.35799L7.58425 13.75H16.8631C17.3955 13.75 17.7901 14.3086 17.6721 14.8953L17.4814 15.8436C18.1275 16.198 18.573 16.9464 18.573 17.8125C18.573 19.0313 17.6909 20.0173 16.6087 19.9998C15.5777 19.983 14.7299 19.0376 14.7021 17.8729C14.6868 17.2367 14.9124 16.6601 15.2829 16.25H8.03568C8.39439 16.6471 8.61726 17.2002 8.61726 17.8125C8.61726 19.0552 7.70022 20.0559 6.58912 19.9976C5.60253 19.9458 4.80016 19.045 4.74831 17.9305C4.70828 17.0698 5.10907 16.3112 5.71799 15.9154L3.28965 2.5H0.873896C0.41569 2.5 0.0442505 2.08027 0.0442505 1.5625V0.9375C0.0442505 0.419727 0.41569 0 0.873896 0H4.41818C4.81229 0 5.152 0.31332 5.23099 0.749609L5.54784 2.5H19.1258C19.6582 2.5 20.0528 3.05863 19.9348 3.64527L18.3006 11.7703C18.2148 12.1971 17.879 12.5 17.4916 12.5ZM14.1482 6.5625H12.4889V5C12.4889 4.6548 12.2413 4.375 11.9358 4.375H11.3827C11.0773 4.375 10.8296 4.6548 10.8296 5V6.5625H9.17036C8.86487 6.5625 8.61726 6.8423 8.61726 7.1875V7.8125C8.61726 8.1577 8.86487 8.4375 9.17036 8.4375H10.8296V10C10.8296 10.3452 11.0773 10.625 11.3827 10.625H11.9358C12.2413 10.625 12.4889 10.3452 12.4889 10V8.4375H14.1482C14.4537 8.4375 14.7013 8.1577 14.7013 7.8125V7.1875C14.7013 6.8423 14.4537 6.5625 14.1482 6.5625Z" fill="#32CD32"/>
</svg>
