<svg width="26" height="18" viewBox="0 0 26 18" fill="none" xmlns="http://www.w3.org/2000/svg">
<path id="Vector" d="M25.0714 3.94171C24.5607 3.94171 24.1429 4.32204 24.1429 4.78689V5.9955C24.1429 6.26596 23.9014 6.47725 23.6136 6.47725H21.8864C21.6079 6.47725 21.3664 6.29976 21.3293 6.04621C21.2232 5.2988 20.8457 4.60508 20.2569 4.07526C19.6681 3.54544 18.9016 3.20988 18.0793 3.12189C17.8286 3.09654 17.6429 2.88524 17.6429 2.64859V1.0174C17.6429 0.755391 17.4014 0.535645 17.1136 0.535645H16.7793C15.7207 0.535645 14.8571 1.32166 14.8571 2.28516V2.61478C14.8571 2.88524 14.6157 3.09654 14.3279 3.09654H11.6721C11.5318 3.09654 11.3971 3.04578 11.2979 2.95543C11.1986 2.86509 11.1429 2.74255 11.1429 2.61478V2.32742C11.1429 1.33856 10.2607 0.535645 9.17429 0.535645H8.89571C8.59857 0.535645 8.35714 0.755391 8.35714 1.0174V2.64859C8.35714 2.88524 8.17143 3.09654 7.92071 3.12189C6.23071 3.31628 4.86571 4.50798 4.64286 6.03776C4.60571 6.28286 4.36429 6.46035 4.08571 6.4688L2.41429 6.47725C2.11714 6.47725 1.885 6.26596 1.885 5.9955V4.78689C1.885 4.32204 1.46714 3.94171 0.956429 3.94171H0.928571C0.417857 3.94171 0 4.32204 0 4.78689V8.16761C0 8.63245 0.417857 8.98743 0.928571 8.98743H1.32786C1.61571 8.98743 1.85714 9.23253 1.85714 9.49454V9.85797C1.85714 10.7877 2.69286 11.5483 3.71429 11.5483H4.11357C4.40143 11.5483 4.64286 11.7681 4.64286 12.0301V15.7742C4.64286 16.7039 5.47857 17.4646 6.5 17.4646H6.89929C7.19643 17.4646 7.42857 17.2448 7.42857 16.9828V14.5656C7.42857 14.2952 7.67 14.0839 7.95786 14.0839H18.0421C18.3393 14.0839 18.5714 14.3036 18.5714 14.5656V16.9828C18.5714 17.2533 18.8129 17.4646 19.1007 17.4646H19.5093C20.5307 17.4646 21.3571 16.7124 21.3571 15.7827V12.0301C21.3571 11.7596 21.5986 11.5483 21.8864 11.5483H22.3136C23.3257 11.5483 24.1429 10.8046 24.1429 9.88332V9.49454C24.1429 9.22408 24.3843 9.01279 24.6721 9.01279H25.0714C25.5821 9.01279 26 8.63245 26 8.16761V4.78689C26 4.32204 25.5821 3.94171 25.0714 3.94171Z" fill="url(#paint0_linear_108_616)"/>
<defs>
<linearGradient id="paint0_linear_108_616" x1="13" y1="-1.94834" x2="13" y2="19.8463" gradientUnits="userSpaceOnUse">
<stop stop-color="#746BB1"/>
<stop offset="1" stop-color="#6F50A2"/>
</linearGradient>
</defs>
</svg>
