<svg width="25" height="18" viewBox="0 0 25 18" fill="none" xmlns="http://www.w3.org/2000/svg">
<g id="Frame" clip-path="url(#clip0_131_1409)">
<g id="Group">
<path id="Vector" d="M12.9797 14.7955H12.2031V13.6773C12.2031 13.3696 12.5523 13.1182 12.9797 13.1182V14.7955Z" fill="url(#paint0_radial_131_1409)"/>
<path id="Vector_2" d="M19.193 14.7957H12.2031V16.4736H19.193V14.7957Z" fill="#EE3124"/>
<path id="Vector_3" d="M19.193 14.7957H7.54297V16.4736H19.193V14.7957Z" fill="#EE3124"/>
<path id="Vector_4" d="M19.193 14.7957H7.54297V16.4736H19.193V14.7957Z" fill="url(#paint1_radial_131_1409)"/>
<path id="Vector_5" d="M8.31953 14.2366C6.27734 14.2366 4.26484 14.578 2.43281 15.2378L-1 16.4736H10.6492V14.7957L9.87266 14.2366H8.31953Z" fill="url(#paint2_linear_131_1409)"/>
<path id="Vector_6" fill-rule="evenodd" clip-rule="evenodd" d="M9.87573 16.4737V14.2383L10.6492 14.7957V16.4737H9.87573Z" fill="url(#paint3_linear_131_1409)"/>
<path id="Vector_7" d="M19.1931 15.3552H2.10713L0.553223 15.9138H19.1931V15.3552Z" fill="url(#paint4_linear_131_1409)"/>
<path id="Vector_8" d="M19.1931 15.3552H2.10713L0.553223 15.9138H19.1931V15.3552Z" fill="url(#paint5_linear_131_1409)"/>
<path id="Vector_9" d="M17.6399 16.181H20.7461V12.5461H17.6399V16.181Z" fill="url(#paint6_radial_131_1409)"/>
<path id="Vector_10" d="M17.6399 13.6773H20.7461V13.1182H17.6399V13.6773Z" fill="url(#paint7_linear_131_1409)"/>
<path id="Vector_11" d="M17.6399 13.6773H20.7461V13.1182H17.6399V13.6773Z" fill="url(#paint8_linear_131_1409)"/>
<path id="Vector_12" d="M17.6399 12.5591H20.7461V12H17.6399V12.5591Z" fill="url(#paint9_linear_131_1409)"/>
<path id="Vector_13" d="M17.6399 12.5591H20.7461V12H17.6399V12.5591Z" fill="url(#paint10_linear_131_1409)"/>
<path id="Vector_14" d="M17.6399 12.5591H20.7461V12H17.6399V12.5591Z" fill="url(#paint11_linear_131_1409)"/>
<path id="Vector_15" d="M19.193 16.4736H11.4258V17.5919H19.1914L19.193 16.4736Z" fill="#A0393E"/>
<path id="Vector_16" d="M19.193 16.4736H11.4258V17.5919H19.1914L19.193 16.4736Z" fill="url(#paint12_radial_131_1409)"/>
<path id="Vector_17" d="M19.193 16.4736H11.4258V17.5919H19.1914L19.193 16.4736Z" fill="url(#paint13_linear_131_1409)"/>
<path id="Vector_18" d="M12.7836 16.4736H-1V17.5919H12.7836V16.4736Z" fill="url(#paint14_linear_131_1409)"/>
<path id="Vector_19" d="M12.7836 16.4736H-1V17.5919H12.7836V16.4736Z" fill="url(#paint15_linear_131_1409)"/>
<path id="Vector_20" d="M12.7836 16.4736H-1V17.5919H12.7836V16.4736Z" fill="url(#paint16_linear_131_1409)"/>
<path id="Vector_21" d="M12.7836 16.4736H-1V17.5919H12.7836V16.4736Z" fill="url(#paint17_radial_131_1409)"/>
<path id="Vector_22" d="M12.7836 16.4736H-1V17.5919H12.7836V16.4736Z" fill="url(#paint18_linear_131_1409)"/>
<path id="Vector_23" d="M17.6399 14.7955H12.9797V13.1182C14.4711 13.1182 15.9 13.5429 16.9563 14.3034L17.6399 14.7955Z" fill="url(#paint19_radial_131_1409)"/>
<path id="Vector_24" d="M13.3679 17.5918H11.4265V15.9138H13.3679C13.521 15.9137 13.6726 15.9354 13.814 15.9776C13.9554 16.0197 14.0839 16.0815 14.1921 16.1595C14.3003 16.2375 14.3861 16.33 14.4445 16.4319C14.503 16.5337 14.533 16.6429 14.5328 16.7531C14.5328 16.8632 14.5026 16.9722 14.4441 17.0739C14.3855 17.1757 14.2997 17.2681 14.1915 17.3459C14.0834 17.4237 13.9549 17.4855 13.8136 17.5276C13.6723 17.5696 13.5209 17.5913 13.3679 17.5912" fill="url(#paint20_radial_131_1409)"/>
<path id="Vector_25" d="M13.3679 17.5918H11.4265V15.9138H13.3679C13.521 15.9137 13.6726 15.9354 13.814 15.9776C13.9554 16.0197 14.0839 16.0815 14.1921 16.1595C14.3003 16.2375 14.3861 16.33 14.4445 16.4319C14.503 16.5337 14.533 16.6429 14.5328 16.7531C14.5328 16.8632 14.5026 16.9722 14.4441 17.0739C14.3855 17.1757 14.2997 17.2681 14.1915 17.3459C14.0834 17.4237 13.9549 17.4855 13.8136 17.5276C13.6723 17.5696 13.5209 17.5913 13.3679 17.5912" fill="url(#paint21_radial_131_1409)"/>
<path id="Vector_26" d="M13.3679 17.5918H11.4265V15.9138H13.3679C13.521 15.9137 13.6726 15.9354 13.814 15.9776C13.9554 16.0197 14.0839 16.0815 14.1921 16.1595C14.3003 16.2375 14.3861 16.33 14.4445 16.4319C14.503 16.5337 14.533 16.6429 14.5328 16.7531C14.5328 16.8632 14.5026 16.9722 14.4441 17.0739C14.3855 17.1757 14.2997 17.2681 14.1915 17.3459C14.0834 17.4237 13.9549 17.4855 13.8136 17.5276C13.6723 17.5696 13.5209 17.5913 13.3679 17.5912" fill="url(#paint22_linear_131_1409)"/>
<path id="Vector_27" d="M11.4257 15.9146H10.6492V17.5919H11.4265L11.4257 15.9146Z" fill="url(#paint23_linear_131_1409)"/>
<path id="Vector_28" d="M11.4257 15.9146H10.6492V17.5919H11.4265L11.4257 15.9146Z" fill="url(#paint24_linear_131_1409)"/>
<g id="Group_2" filter="url(#filter0_ii_131_1409)">
<path id="Vector_29" d="M4.0484 18.151C4.40925 18.1555 4.76772 18.1081 5.10289 18.0117C5.43805 17.9153 5.74321 17.7719 6.00057 17.5897C6.25792 17.4075 6.46232 17.1902 6.60185 16.9506C6.74137 16.7109 6.81323 16.4537 6.81323 16.1938C6.81323 15.934 6.74137 15.6767 6.60185 15.4371C6.46232 15.1974 6.25792 14.9802 6.00057 14.798C5.74321 14.6158 5.43805 14.4723 5.10289 14.376C4.76772 14.2796 4.40925 14.2322 4.0484 14.2366C3.33542 14.2453 2.65574 14.4553 2.15581 14.8214C1.65588 15.1876 1.37573 15.6804 1.37573 16.1938C1.37573 16.7072 1.65588 17.2001 2.15581 17.5662C2.65574 17.9323 3.33542 18.1423 4.0484 18.151Z" fill="url(#paint25_linear_131_1409)"/>
<path id="Vector_30" d="M4.0484 18.151C4.40925 18.1555 4.76772 18.1081 5.10289 18.0117C5.43805 17.9153 5.74321 17.7719 6.00057 17.5897C6.25792 17.4075 6.46232 17.1902 6.60185 16.9506C6.74137 16.7109 6.81323 16.4537 6.81323 16.1938C6.81323 15.934 6.74137 15.6767 6.60185 15.4371C6.46232 15.1974 6.25792 14.9802 6.00057 14.798C5.74321 14.6158 5.43805 14.4723 5.10289 14.376C4.76772 14.2796 4.40925 14.2322 4.0484 14.2366C3.33542 14.2453 2.65574 14.4553 2.15581 14.8214C1.65588 15.1876 1.37573 15.6804 1.37573 16.1938C1.37573 16.7072 1.65588 17.2001 2.15581 17.5662C2.65574 17.9323 3.33542 18.1423 4.0484 18.151Z" fill="url(#paint26_radial_131_1409)"/>
<path id="Vector_31" d="M4.0484 18.151C4.40925 18.1555 4.76772 18.1081 5.10289 18.0117C5.43805 17.9153 5.74321 17.7719 6.00057 17.5897C6.25792 17.4075 6.46232 17.1902 6.60185 16.9506C6.74137 16.7109 6.81323 16.4537 6.81323 16.1938C6.81323 15.934 6.74137 15.6767 6.60185 15.4371C6.46232 15.1974 6.25792 14.9802 6.00057 14.798C5.74321 14.6158 5.43805 14.4723 5.10289 14.376C4.76772 14.2796 4.40925 14.2322 4.0484 14.2366C3.33542 14.2453 2.65574 14.4553 2.15581 14.8214C1.65588 15.1876 1.37573 15.6804 1.37573 16.1938C1.37573 16.7072 1.65588 17.2001 2.15581 17.5662C2.65574 17.9323 3.33542 18.1423 4.0484 18.151Z" fill="url(#paint27_radial_131_1409)"/>
</g>
<g id="Group_3" filter="url(#filter1_ii_131_1409)">
<path id="Vector_32" d="M4.04845 16.9169C4.18269 16.9196 4.31633 16.9029 4.44145 16.8678C4.56657 16.8327 4.68064 16.7798 4.77691 16.7124C4.87319 16.645 4.94972 16.5644 5.00197 16.4753C5.05423 16.3862 5.08115 16.2905 5.08115 16.1938C5.08115 16.0971 5.05423 16.0014 5.00197 15.9124C4.94972 15.8233 4.87319 15.7427 4.77691 15.6752C4.68064 15.6078 4.56657 15.555 4.44145 15.5199C4.31633 15.4848 4.18269 15.468 4.04845 15.4707C3.78694 15.476 3.5386 15.5545 3.35621 15.6895C3.17382 15.8245 3.07178 16.0055 3.07178 16.1938C3.07178 16.3822 3.17382 16.5631 3.35621 16.6982C3.5386 16.8332 3.78694 16.9117 4.04845 16.9169Z" fill="#D9D2E8"/>
</g>
<path id="Vector_33" fill-rule="evenodd" clip-rule="evenodd" d="M15.4961 13.5457L13.7571 14.7955H17.6399L16.9563 14.3033C16.529 13.9959 16.0357 13.7401 15.4954 13.5457" fill="url(#paint28_radial_131_1409)"/>
<path id="Vector_34" fill-rule="evenodd" clip-rule="evenodd" d="M15.4961 13.5457L13.7571 14.7955H17.6399L16.9563 14.3033C16.529 13.9959 16.0357 13.7401 15.4954 13.5457" fill="url(#paint29_radial_131_1409)"/>
<g id="Group_4" filter="url(#filter2_ii_131_1409)">
<path id="Vector_35" d="M18.0274 18.151C18.3883 18.1555 18.7467 18.1081 19.0819 18.0117C19.4171 17.9153 19.7222 17.7719 19.9796 17.5897C20.2369 17.4075 20.4413 17.1902 20.5809 16.9506C20.7204 16.7109 20.7922 16.4537 20.7922 16.1938C20.7922 15.934 20.7204 15.6767 20.5809 15.4371C20.4413 15.1974 20.2369 14.9802 19.9796 14.798C19.7222 14.6158 19.4171 14.4723 19.0819 14.376C18.7467 14.2796 18.3883 14.2322 18.0274 14.2366C17.3144 14.2453 16.6347 14.4553 16.1348 14.8214C15.6349 15.1876 15.3547 15.6804 15.3547 16.1938C15.3547 16.7072 15.6349 17.2001 16.1348 17.5662C16.6347 17.9323 17.3144 18.1423 18.0274 18.151Z" fill="url(#paint30_linear_131_1409)"/>
<path id="Vector_36" d="M18.0274 18.151C18.3883 18.1555 18.7467 18.1081 19.0819 18.0117C19.4171 17.9153 19.7222 17.7719 19.9796 17.5897C20.2369 17.4075 20.4413 17.1902 20.5809 16.9506C20.7204 16.7109 20.7922 16.4537 20.7922 16.1938C20.7922 15.934 20.7204 15.6767 20.5809 15.4371C20.4413 15.1974 20.2369 14.9802 19.9796 14.798C19.7222 14.6158 19.4171 14.4723 19.0819 14.376C18.7467 14.2796 18.3883 14.2322 18.0274 14.2366C17.3144 14.2453 16.6347 14.4553 16.1348 14.8214C15.6349 15.1876 15.3547 15.6804 15.3547 16.1938C15.3547 16.7072 15.6349 17.2001 16.1348 17.5662C16.6347 17.9323 17.3144 18.1423 18.0274 18.151Z" fill="url(#paint31_radial_131_1409)"/>
<path id="Vector_37" d="M18.0274 18.151C18.3883 18.1555 18.7467 18.1081 19.0819 18.0117C19.4171 17.9153 19.7222 17.7719 19.9796 17.5897C20.2369 17.4075 20.4413 17.1902 20.5809 16.9506C20.7204 16.7109 20.7922 16.4537 20.7922 16.1938C20.7922 15.934 20.7204 15.6767 20.5809 15.4371C20.4413 15.1974 20.2369 14.9802 19.9796 14.798C19.7222 14.6158 19.4171 14.4723 19.0819 14.376C18.7467 14.2796 18.3883 14.2322 18.0274 14.2366C17.3144 14.2453 16.6347 14.4553 16.1348 14.8214C15.6349 15.1876 15.3547 15.6804 15.3547 16.1938C15.3547 16.7072 15.6349 17.2001 16.1348 17.5662C16.6347 17.9323 17.3144 18.1423 18.0274 18.151Z" fill="url(#paint32_radial_131_1409)"/>
</g>
<g id="Group_5" filter="url(#filter3_ii_131_1409)">
<path id="Vector_38" d="M18.0275 16.9169C18.1617 16.9196 18.2953 16.9029 18.4204 16.8678C18.5456 16.8327 18.6596 16.7798 18.7559 16.7124C18.8522 16.645 18.9287 16.5644 18.981 16.4753C19.0332 16.3862 19.0602 16.2905 19.0602 16.1938C19.0602 16.0971 19.0332 16.0014 18.981 15.9124C18.9287 15.8233 18.8522 15.7427 18.7559 15.6752C18.6596 15.6078 18.5456 15.555 18.4204 15.5199C18.2953 15.4848 18.1617 15.468 18.0275 15.4707C17.7659 15.476 17.5176 15.5545 17.3352 15.6895C17.1528 15.8245 17.0508 16.0055 17.0508 16.1938C17.0508 16.3822 17.1528 16.5631 17.3352 16.6982C17.5176 16.8332 17.7659 16.9117 18.0275 16.9169Z" fill="#D2CBE1"/>
</g>
<g id="Group_6" filter="url(#filter4_f_131_1409)">
<path id="Vector_39" d="M4.27974 17.4219C5.28679 17.4219 6.10317 16.8341 6.10317 16.109C6.10317 15.3839 5.28679 14.7961 4.27974 14.7961C3.27268 14.7961 2.4563 15.3839 2.4563 16.109C2.4563 16.8341 3.27268 17.4219 4.27974 17.4219Z" stroke="url(#paint33_linear_131_1409)" stroke-width="0.375"/>
</g>
<g id="Group_7" filter="url(#filter5_f_131_1409)">
<path id="Vector_40" d="M18.2446 17.4219C19.2516 17.4219 20.068 16.8341 20.068 16.109C20.068 15.3839 19.2516 14.7961 18.2446 14.7961C17.2375 14.7961 16.4211 15.3839 16.4211 16.109C16.4211 16.8341 17.2375 17.4219 18.2446 17.4219Z" stroke="url(#paint34_linear_131_1409)" stroke-width="0.375"/>
</g>
</g>
</g>
<defs>
<filter id="filter0_ii_131_1409" x="1.37573" y="14.2363" width="5.4375" height="3.97129" filterUnits="userSpaceOnUse" color-interpolation-filters="sRGB">
<feFlood flood-opacity="0" result="BackgroundImageFix"/>
<feBlend mode="normal" in="SourceGraphic" in2="BackgroundImageFix" result="shape"/>
<feColorMatrix in="SourceAlpha" type="matrix" values="0 0 0 0 0 0 0 0 0 0 0 0 0 0 0 0 0 0 127 0" result="hardAlpha"/>
<feOffset/>
<feGaussianBlur stdDeviation="0.1875"/>
<feComposite in2="hardAlpha" operator="arithmetic" k2="-1" k3="1"/>
<feColorMatrix type="matrix" values="0 0 0 0 0.145098 0 0 0 0 0.0823529 0 0 0 0 0.215686 0 0 0 1 0"/>
<feBlend mode="normal" in2="shape" result="effect1_innerShadow_131_1409"/>
<feColorMatrix in="SourceAlpha" type="matrix" values="0 0 0 0 0 0 0 0 0 0 0 0 0 0 0 0 0 0 127 0" result="hardAlpha"/>
<feOffset dy="0.05625"/>
<feGaussianBlur stdDeviation="0.046875"/>
<feComposite in2="hardAlpha" operator="arithmetic" k2="-1" k3="1"/>
<feColorMatrix type="matrix" values="0 0 0 0 0.207843 0 0 0 0 0.0313726 0 0 0 0 0.235294 0 0 0 1 0"/>
<feBlend mode="normal" in2="effect1_innerShadow_131_1409" result="effect2_innerShadow_131_1409"/>
</filter>
<filter id="filter1_ii_131_1409" x="3.05303" y="15.4517" width="2.04678" height="1.48428" filterUnits="userSpaceOnUse" color-interpolation-filters="sRGB">
<feFlood flood-opacity="0" result="BackgroundImageFix"/>
<feBlend mode="normal" in="SourceGraphic" in2="BackgroundImageFix" result="shape"/>
<feColorMatrix in="SourceAlpha" type="matrix" values="0 0 0 0 0 0 0 0 0 0 0 0 0 0 0 0 0 0 127 0" result="hardAlpha"/>
<feOffset dx="0.01875" dy="-0.01875"/>
<feGaussianBlur stdDeviation="0.01875"/>
<feComposite in2="hardAlpha" operator="arithmetic" k2="-1" k3="1"/>
<feColorMatrix type="matrix" values="0 0 0 0 0.478431 0 0 0 0 0.364706 0 0 0 0 0.584314 0 0 0 1 0"/>
<feBlend mode="normal" in2="shape" result="effect1_innerShadow_131_1409"/>
<feColorMatrix in="SourceAlpha" type="matrix" values="0 0 0 0 0 0 0 0 0 0 0 0 0 0 0 0 0 0 127 0" result="hardAlpha"/>
<feOffset dx="-0.01875" dy="0.01875"/>
<feGaussianBlur stdDeviation="0.01875"/>
<feComposite in2="hardAlpha" operator="arithmetic" k2="-1" k3="1"/>
<feColorMatrix type="matrix" values="0 0 0 0 0.807843 0 0 0 0 0.764706 0 0 0 0 0.858824 0 0 0 1 0"/>
<feBlend mode="normal" in2="effect1_innerShadow_131_1409" result="effect2_innerShadow_131_1409"/>
</filter>
<filter id="filter2_ii_131_1409" x="15.3547" y="14.2363" width="5.4375" height="3.97129" filterUnits="userSpaceOnUse" color-interpolation-filters="sRGB">
<feFlood flood-opacity="0" result="BackgroundImageFix"/>
<feBlend mode="normal" in="SourceGraphic" in2="BackgroundImageFix" result="shape"/>
<feColorMatrix in="SourceAlpha" type="matrix" values="0 0 0 0 0 0 0 0 0 0 0 0 0 0 0 0 0 0 127 0" result="hardAlpha"/>
<feOffset/>
<feGaussianBlur stdDeviation="0.1875"/>
<feComposite in2="hardAlpha" operator="arithmetic" k2="-1" k3="1"/>
<feColorMatrix type="matrix" values="0 0 0 0 0.145098 0 0 0 0 0.0823529 0 0 0 0 0.215686 0 0 0 1 0"/>
<feBlend mode="normal" in2="shape" result="effect1_innerShadow_131_1409"/>
<feColorMatrix in="SourceAlpha" type="matrix" values="0 0 0 0 0 0 0 0 0 0 0 0 0 0 0 0 0 0 127 0" result="hardAlpha"/>
<feOffset dy="0.05625"/>
<feGaussianBlur stdDeviation="0.046875"/>
<feComposite in2="hardAlpha" operator="arithmetic" k2="-1" k3="1"/>
<feColorMatrix type="matrix" values="0 0 0 0 0.207843 0 0 0 0 0.0313726 0 0 0 0 0.235294 0 0 0 1 0"/>
<feBlend mode="normal" in2="effect1_innerShadow_131_1409" result="effect2_innerShadow_131_1409"/>
</filter>
<filter id="filter3_ii_131_1409" x="17.032" y="15.4517" width="2.04678" height="1.48428" filterUnits="userSpaceOnUse" color-interpolation-filters="sRGB">
<feFlood flood-opacity="0" result="BackgroundImageFix"/>
<feBlend mode="normal" in="SourceGraphic" in2="BackgroundImageFix" result="shape"/>
<feColorMatrix in="SourceAlpha" type="matrix" values="0 0 0 0 0 0 0 0 0 0 0 0 0 0 0 0 0 0 127 0" result="hardAlpha"/>
<feOffset dx="0.01875" dy="-0.01875"/>
<feGaussianBlur stdDeviation="0.01875"/>
<feComposite in2="hardAlpha" operator="arithmetic" k2="-1" k3="1"/>
<feColorMatrix type="matrix" values="0 0 0 0 0.478431 0 0 0 0 0.364706 0 0 0 0 0.584314 0 0 0 1 0"/>
<feBlend mode="normal" in2="shape" result="effect1_innerShadow_131_1409"/>
<feColorMatrix in="SourceAlpha" type="matrix" values="0 0 0 0 0 0 0 0 0 0 0 0 0 0 0 0 0 0 127 0" result="hardAlpha"/>
<feOffset dx="-0.01875" dy="0.01875"/>
<feGaussianBlur stdDeviation="0.01875"/>
<feComposite in2="hardAlpha" operator="arithmetic" k2="-1" k3="1"/>
<feColorMatrix type="matrix" values="0 0 0 0 0.807843 0 0 0 0 0.764706 0 0 0 0 0.858824 0 0 0 1 0"/>
<feBlend mode="normal" in2="effect1_innerShadow_131_1409" result="effect2_innerShadow_131_1409"/>
</filter>
<filter id="filter4_f_131_1409" x="1.98755" y="14.3274" width="4.58447" height="3.56323" filterUnits="userSpaceOnUse" color-interpolation-filters="sRGB">
<feFlood flood-opacity="0" result="BackgroundImageFix"/>
<feBlend mode="normal" in="SourceGraphic" in2="BackgroundImageFix" result="shape"/>
<feGaussianBlur stdDeviation="0.140625" result="effect1_foregroundBlur_131_1409"/>
</filter>
<filter id="filter5_f_131_1409" x="15.9524" y="14.3274" width="4.58447" height="3.56323" filterUnits="userSpaceOnUse" color-interpolation-filters="sRGB">
<feFlood flood-opacity="0" result="BackgroundImageFix"/>
<feBlend mode="normal" in="SourceGraphic" in2="BackgroundImageFix" result="shape"/>
<feGaussianBlur stdDeviation="0.140625" result="effect1_foregroundBlur_131_1409"/>
</filter>
<radialGradient id="paint0_radial_131_1409" cx="0" cy="0" r="1" gradientUnits="userSpaceOnUse" gradientTransform="translate(12.907 13.5202) rotate(90) scale(1.50293 1.75401)">
<stop stop-color="#727273"/>
<stop offset="1" stop-color="#4E2A2A"/>
</radialGradient>
<radialGradient id="paint1_radial_131_1409" cx="0" cy="0" r="1" gradientUnits="userSpaceOnUse" gradientTransform="translate(15.5664 16.4736) rotate(180) scale(0.830078 1.22683)">
<stop offset="0.155" stop-color="#AA2E30"/>
<stop offset="1" stop-color="#AA2E30" stop-opacity="0"/>
</radialGradient>
<linearGradient id="paint2_linear_131_1409" x1="0.475781" y1="16.4736" x2="10.6492" y2="16.4736" gradientUnits="userSpaceOnUse">
<stop stop-color="#C03131"/>
<stop offset="1" stop-color="#FC443F"/>
</linearGradient>
<linearGradient id="paint3_linear_131_1409" x1="10.2625" y1="14.5145" x2="10.2625" y2="16.4737" gradientUnits="userSpaceOnUse">
<stop stop-color="#FF5752"/>
<stop offset="1" stop-color="#FF5752" stop-opacity="0"/>
</linearGradient>
<linearGradient id="paint4_linear_131_1409" x1="3.81182" y1="15.637" x2="11.9337" y2="15.637" gradientUnits="userSpaceOnUse">
<stop stop-color="#C5C5C7"/>
<stop offset="1" stop-color="#F0EBED"/>
</linearGradient>
<linearGradient id="paint5_linear_131_1409" x1="15.7868" y1="15.7698" x2="14.5173" y2="15.7698" gradientUnits="userSpaceOnUse">
<stop stop-color="#B9B3BA"/>
<stop offset="1" stop-color="#B9B3BA" stop-opacity="0"/>
</linearGradient>
<radialGradient id="paint6_radial_131_1409" cx="0" cy="0" r="1" gradientUnits="userSpaceOnUse" gradientTransform="translate(19.193 14.3636) rotate(-87.5159) scale(2.69507 9.34905)">
<stop stop-color="#ED4C48"/>
<stop offset="1" stop-color="#B5312D"/>
</radialGradient>
<linearGradient id="paint7_linear_131_1409" x1="17.6375" y1="13.4005" x2="20.7438" y2="13.4005" gradientUnits="userSpaceOnUse">
<stop stop-color="#E4AA2D"/>
<stop offset="1" stop-color="#F38320"/>
</linearGradient>
<linearGradient id="paint8_linear_131_1409" x1="17.3907" y1="13.5012" x2="18.2266" y2="13.5012" gradientUnits="userSpaceOnUse">
<stop stop-color="#B58B2C"/>
<stop offset="1" stop-color="#B58B2C" stop-opacity="0"/>
</linearGradient>
<linearGradient id="paint9_linear_131_1409" x1="17.6399" y1="12.2796" x2="20.7461" y2="12.2796" gradientUnits="userSpaceOnUse">
<stop stop-color="#B9AAB5"/>
<stop offset="0.693" stop-color="#D8D4E0"/>
<stop offset="1" stop-color="#C7C5CC"/>
</linearGradient>
<linearGradient id="paint10_linear_131_1409" x1="17.5571" y1="12.5591" x2="18.2829" y2="12.5591" gradientUnits="userSpaceOnUse">
<stop stop-color="#94858A"/>
<stop offset="1" stop-color="#94858A" stop-opacity="0"/>
</linearGradient>
<linearGradient id="paint11_linear_131_1409" x1="20.8524" y1="12.5591" x2="20.6329" y2="12.5591" gradientUnits="userSpaceOnUse">
<stop stop-color="#94858A"/>
<stop offset="1" stop-color="#94858A" stop-opacity="0"/>
</linearGradient>
<radialGradient id="paint12_radial_131_1409" cx="0" cy="0" r="1" gradientUnits="userSpaceOnUse" gradientTransform="translate(16.3477 17.0328) rotate(180) scale(1.58691 1.56398)">
<stop offset="0.429" stop-color="#620B25"/>
<stop offset="1" stop-color="#620B25" stop-opacity="0"/>
</radialGradient>
<linearGradient id="paint13_linear_131_1409" x1="16.0016" y1="16.4736" x2="16.0016" y2="16.5254" gradientUnits="userSpaceOnUse">
<stop stop-color="#B11B27"/>
<stop offset="1" stop-color="#B11B27" stop-opacity="0"/>
</linearGradient>
<linearGradient id="paint14_linear_131_1409" x1="-0.0343749" y1="17.5919" x2="13.268" y2="17.5919" gradientUnits="userSpaceOnUse">
<stop stop-color="#AB3138"/>
<stop offset="1" stop-color="#C8494E"/>
</linearGradient>
<linearGradient id="paint15_linear_131_1409" x1="10.4398" y1="17.8264" x2="9.2488" y2="17.2582" gradientUnits="userSpaceOnUse">
<stop stop-color="#722026"/>
<stop offset="1" stop-color="#722026" stop-opacity="0"/>
</linearGradient>
<linearGradient id="paint16_linear_131_1409" x1="9.17031" y1="17.8613" x2="9.17031" y2="17.1408" gradientUnits="userSpaceOnUse">
<stop stop-color="#722026"/>
<stop offset="1" stop-color="#722026" stop-opacity="0"/>
</linearGradient>
<radialGradient id="paint17_radial_131_1409" cx="0" cy="0" r="1" gradientUnits="userSpaceOnUse" gradientTransform="translate(2.94453 17.0328) rotate(173.297) scale(2.43363 1.25753)">
<stop stop-color="#722026"/>
<stop offset="1" stop-color="#722026" stop-opacity="0"/>
</radialGradient>
<linearGradient id="paint18_linear_131_1409" x1="7.11953" y1="16.4736" x2="7.11953" y2="16.5254" gradientUnits="userSpaceOnUse">
<stop stop-color="#BF212E"/>
<stop offset="1" stop-color="#BF212E" stop-opacity="0"/>
</linearGradient>
<radialGradient id="paint19_radial_131_1409" cx="0" cy="0" r="1" gradientUnits="userSpaceOnUse" gradientTransform="translate(13.4429 14.7957) rotate(-60.8511) scale(2.10519 5.5324)">
<stop stop-color="#FF5A56"/>
<stop offset="1" stop-color="#FF4940"/>
</radialGradient>
<radialGradient id="paint20_radial_131_1409" cx="0" cy="0" r="1" gradientUnits="userSpaceOnUse" gradientTransform="translate(11.7093 16.0511) scale(2.82336 1.37109)">
<stop stop-color="#FFE042"/>
<stop offset="1" stop-color="#DC8B38"/>
</radialGradient>
<radialGradient id="paint21_radial_131_1409" cx="0" cy="0" r="1" gradientUnits="userSpaceOnUse" gradientTransform="translate(11.4257 16.7531) scale(2.91996 1.75296)">
<stop offset="0.749" stop-color="#E57A14" stop-opacity="0"/>
<stop offset="1" stop-color="#E57A14"/>
</radialGradient>
<linearGradient id="paint22_linear_131_1409" x1="12.1976" y1="18.125" x2="12.1976" y2="17.1232" gradientUnits="userSpaceOnUse">
<stop stop-color="#97594D"/>
<stop offset="0.93" stop-color="#97594D" stop-opacity="0"/>
</linearGradient>
<linearGradient id="paint23_linear_131_1409" x1="11.0382" y1="15.914" x2="11.0382" y2="16.7532" gradientUnits="userSpaceOnUse">
<stop stop-color="#626162"/>
<stop offset="1" stop-color="#646367"/>
</linearGradient>
<linearGradient id="paint24_linear_131_1409" x1="11.4265" y1="17.5919" x2="11.4265" y2="16.3764" gradientUnits="userSpaceOnUse">
<stop stop-color="#2B1B41"/>
<stop offset="1" stop-color="#2B1B41" stop-opacity="0"/>
</linearGradient>
<linearGradient id="paint25_linear_131_1409" x1="2.79449" y1="15.7019" x2="6.8773" y2="15.7019" gradientUnits="userSpaceOnUse">
<stop offset="0.239" stop-color="#34214F"/>
<stop offset="1" stop-color="#241337"/>
</linearGradient>
<radialGradient id="paint26_radial_131_1409" cx="0" cy="0" r="1" gradientUnits="userSpaceOnUse" gradientTransform="translate(4.0484 16.0192) rotate(-57.712) scale(1.1498 1.43874)">
<stop offset="0.523" stop-color="#2D114D"/>
<stop offset="1" stop-color="#2B1249" stop-opacity="0"/>
</radialGradient>
<radialGradient id="paint27_radial_131_1409" cx="0" cy="0" r="1" gradientUnits="userSpaceOnUse" gradientTransform="translate(4.7898 16.3291) rotate(25.4689) scale(0.555984 0.527089)">
<stop stop-color="#392A49"/>
<stop offset="1" stop-color="#392A49" stop-opacity="0"/>
</radialGradient>
<radialGradient id="paint28_radial_131_1409" cx="0" cy="0" r="1" gradientUnits="userSpaceOnUse" gradientTransform="translate(14.554 13.9855) rotate(21.0068) scale(1.56913 0.821044)">
<stop stop-color="#F8F2F5"/>
<stop offset="1" stop-color="#F2DEE2"/>
</radialGradient>
<radialGradient id="paint29_radial_131_1409" cx="0" cy="0" r="1" gradientUnits="userSpaceOnUse" gradientTransform="translate(15.4327 15.0666) rotate(-43.0835) scale(1.62125 2.95583)">
<stop offset="0.688" stop-color="#C8BBBA" stop-opacity="0"/>
<stop offset="1" stop-color="#C8BBBA"/>
</radialGradient>
<linearGradient id="paint30_linear_131_1409" x1="16.7743" y1="15.7019" x2="20.8571" y2="15.7019" gradientUnits="userSpaceOnUse">
<stop offset="0.239" stop-color="#34214F"/>
<stop offset="1" stop-color="#241337"/>
</linearGradient>
<radialGradient id="paint31_radial_131_1409" cx="0" cy="0" r="1" gradientUnits="userSpaceOnUse" gradientTransform="translate(18.0274 16.0192) rotate(-57.712) scale(1.1498 1.43874)">
<stop offset="0.523" stop-color="#2D114D"/>
<stop offset="1" stop-color="#2B1249" stop-opacity="0"/>
</radialGradient>
<radialGradient id="paint32_radial_131_1409" cx="0" cy="0" r="1" gradientUnits="userSpaceOnUse" gradientTransform="translate(18.7696 16.3291) rotate(25.4689) scale(0.555984 0.527089)">
<stop stop-color="#392A49"/>
<stop offset="1" stop-color="#392A49" stop-opacity="0"/>
</radialGradient>
<linearGradient id="paint33_linear_131_1409" x1="5.64145" y1="14.7956" x2="3.85619" y2="17.7223" gradientUnits="userSpaceOnUse">
<stop offset="0.083" stop-color="#615B6B"/>
<stop offset="0.391" stop-color="#615B6B" stop-opacity="0"/>
<stop offset="0.692" stop-color="#615B6B" stop-opacity="0"/>
<stop offset="0.935" stop-color="#615B6B"/>
</linearGradient>
<linearGradient id="paint34_linear_131_1409" x1="19.6063" y1="14.7956" x2="17.821" y2="17.7223" gradientUnits="userSpaceOnUse">
<stop offset="0.083" stop-color="#615B6B"/>
<stop offset="0.391" stop-color="#615B6B" stop-opacity="0"/>
<stop offset="0.692" stop-color="#615B6B" stop-opacity="0"/>
<stop offset="0.935" stop-color="#615B6B"/>
</linearGradient>
<clipPath id="clip0_131_1409">
<rect width="25" height="18" fill="white"/>
</clipPath>
</defs>
</svg>
