<svg width="41" height="41" viewBox="0 0 41 41" fill="none" xmlns="http://www.w3.org/2000/svg">
<g id="Frame">
<path id="Vector" d="M29.2874 22.75H14.0194L14.3603 24.625H28.3404C29.1425 24.625 29.737 25.4629 29.5593 26.3429L29.2719 27.7653C30.2454 28.2969 30.9167 29.4196 30.9167 30.7187C30.9167 32.547 29.5876 34.026 27.9571 33.9996C26.4038 33.9745 25.1264 32.5564 25.0844 30.8094C25.0615 29.8551 25.4014 28.9901 25.9596 28.3749H15.0404C15.5809 28.9706 15.9167 29.8003 15.9167 30.7187C15.9167 32.5828 14.535 34.0838 12.8609 33.9964C11.3745 33.9187 10.1656 32.5676 10.0874 30.8958C10.0271 29.6047 10.631 28.4668 11.5484 27.8731L7.88974 7.75H4.25C3.55964 7.75 3 7.12041 3 6.34375V5.40625C3 4.62959 3.55964 4 4.25 4H9.59005C10.1839 4 10.6957 4.46998 10.8147 5.12441L11.2921 7.75H31.7495C32.5516 7.75 33.1462 8.58795 32.9684 9.46791L30.5063 21.6554C30.3769 22.2957 29.871 22.75 29.2874 22.75ZM24.25 13.8437H21.75V11.5C21.75 10.9822 21.3769 10.5625 20.9167 10.5625H20.0833C19.6231 10.5625 19.25 10.9822 19.25 11.5V13.8437H16.75C16.2897 13.8437 15.9167 14.2635 15.9167 14.7812V15.7187C15.9167 16.2365 16.2897 16.6562 16.75 16.6562H19.25V19C19.25 19.5178 19.6231 19.9375 20.0833 19.9375H20.9167C21.3769 19.9375 21.75 19.5178 21.75 19V16.6562H24.25C24.7103 16.6562 25.0833 16.2365 25.0833 15.7187V14.7812C25.0833 14.2635 24.7103 13.8437 24.25 13.8437Z" fill="#E8E8E8"/>
</g>
</svg>
