<svg width="24" height="27" viewBox="0 0 24 27" fill="none" xmlns="http://www.w3.org/2000/svg">
<g id="Group">
<g id="Group_2" filter="url(#filter0_iii_84_734)">
<path id="Vector" d="M22.8155 12.5019L14.4866 1.30169C14.1817 0.893985 13.8012 0.566222 13.3718 0.341366C12.9424 0.11651 12.4745 0 12.0009 0C11.5273 0 11.0594 0.11651 10.63 0.341366C10.2006 0.566222 9.82011 0.893985 9.51518 1.30169L1.18371 12.5019C-1.56944 16.2038 0.786854 21.8141 5.09402 21.8141C6.06905 21.8137 7.02364 21.4995 7.84503 20.9084C8.66642 20.3174 9.32031 19.4742 9.72947 18.4786L10.2823 17.1189V20.1757C10.2823 22.1998 8.83203 23.8381 7.02774 23.8767H6.95917C6.19031 23.8767 5.5603 24.5806 5.5603 25.4388C5.5603 26.297 6.19031 27 6.95917 27H17.0495C17.8175 27 18.4484 26.2961 18.4484 25.4379C18.4484 24.5796 17.8175 23.8767 17.0495 23.8767H16.9809C15.1766 23.8381 13.7263 22.1988 13.7263 20.1757V17.1189L14.2792 18.4786C15.0986 20.5132 16.9115 21.8141 18.9138 21.8141C23.2132 21.8141 25.5695 16.2038 22.8155 12.5019Z" fill="url(#paint0_linear_84_734)"/>
</g>
</g>
<defs>
<filter id="filter0_iii_84_734" x="-0.375" y="-0.28125" width="24.6562" height="27.5625" filterUnits="userSpaceOnUse" color-interpolation-filters="sRGB">
<feFlood flood-opacity="0" result="BackgroundImageFix"/>
<feBlend mode="normal" in="SourceGraphic" in2="BackgroundImageFix" result="shape"/>
<feColorMatrix in="SourceAlpha" type="matrix" values="0 0 0 0 0 0 0 0 0 0 0 0 0 0 0 0 0 0 127 0" result="hardAlpha"/>
<feOffset dx="-0.375"/>
<feGaussianBlur stdDeviation="0.1875"/>
<feComposite in2="hardAlpha" operator="arithmetic" k2="-1" k3="1"/>
<feColorMatrix type="matrix" values="0 0 0 0 0.427451 0 0 0 0 0.372549 0 0 0 0 0.482353 0 0 0 1 0"/>
<feBlend mode="normal" in2="shape" result="effect1_innerShadow_84_734"/>
<feColorMatrix in="SourceAlpha" type="matrix" values="0 0 0 0 0 0 0 0 0 0 0 0 0 0 0 0 0 0 127 0" result="hardAlpha"/>
<feOffset dx="0.28125" dy="-0.28125"/>
<feGaussianBlur stdDeviation="0.234375"/>
<feComposite in2="hardAlpha" operator="arithmetic" k2="-1" k3="1"/>
<feColorMatrix type="matrix" values="0 0 0 0 0.172549 0 0 0 0 0.109804 0 0 0 0 0.227451 0 0 0 1 0"/>
<feBlend mode="normal" in2="effect1_innerShadow_84_734" result="effect2_innerShadow_84_734"/>
<feColorMatrix in="SourceAlpha" type="matrix" values="0 0 0 0 0 0 0 0 0 0 0 0 0 0 0 0 0 0 127 0" result="hardAlpha"/>
<feOffset dx="0.28125" dy="0.28125"/>
<feGaussianBlur stdDeviation="0.234375"/>
<feComposite in2="hardAlpha" operator="arithmetic" k2="-1" k3="1"/>
<feColorMatrix type="matrix" values="0 0 0 0 0.196078 0 0 0 0 0.192157 0 0 0 0 0.2 0 0 0 1 0"/>
<feBlend mode="normal" in2="effect2_innerShadow_84_734" result="effect3_innerShadow_84_734"/>
</filter>
<linearGradient id="paint0_linear_84_734" x1="19.1289" y1="8.75372" x2="6.31545" y2="24.7966" gradientUnits="userSpaceOnUse">
<stop stop-color="#534165"/>
<stop offset="1" stop-color="#3F3946"/>
</linearGradient>
</defs>
</svg>
