<svg width="30" height="30" viewBox="0 0 30 30" fill="none" xmlns="http://www.w3.org/2000/svg">
<g id="Frame">
<g id="Group">
<path id="Vector" fill-rule="evenodd" clip-rule="evenodd" d="M7.86668 5.08406C7.64074 5.05406 7.44012 5.1075 7.28918 5.24531C6.68731 5.79844 5.98606 6.50906 5.46481 7.03781L5.04856 7.45781C4.69793 7.80844 4.69512 8.07094 4.73918 8.24531C4.79262 8.46281 4.95293 8.65219 5.06731 8.75531L5.07293 8.76L6.51012 10.1363C6.55709 10.1781 6.59515 10.2291 6.62202 10.286C6.64888 10.3429 6.66401 10.4047 6.6665 10.4676C6.66899 10.5305 6.65878 10.5932 6.63649 10.6521C6.6142 10.7109 6.58028 10.7647 6.53676 10.8102C6.49324 10.8557 6.44101 10.8919 6.38318 10.9167C6.32535 10.9416 6.2631 10.9545 6.20016 10.9548C6.13722 10.9551 6.07486 10.9427 6.01682 10.9183C5.95877 10.894 5.90622 10.8582 5.86231 10.8131L4.4345 9.44719C4.25543 9.28406 3.947 8.94375 3.82887 8.47219C3.69856 7.95094 3.82418 7.35656 4.38575 6.795L4.78325 6.39281C5.39325 5.76583 6.01779 5.15316 6.65637 4.55531C7.04918 4.19344 7.54325 4.09594 7.98762 4.15406C8.42356 4.21031 8.84262 4.4175 9.14075 4.71375C9.36293 4.93406 9.61981 5.1825 9.86918 5.42156L9.90949 5.46C10.1439 5.685 10.3689 5.9025 10.5461 6.07781C10.6319 6.16584 10.6797 6.28407 10.6792 6.40702C10.6787 6.52998 10.6299 6.6478 10.5433 6.73511C10.4567 6.82242 10.3393 6.87222 10.2164 6.87378C10.0934 6.87533 9.97481 6.82852 9.88606 6.74344C9.7145 6.57375 9.49231 6.36094 9.25606 6.13313L9.21949 6.0975C8.97154 5.85989 8.72528 5.6205 8.48074 5.37938C8.31223 5.21878 8.09734 5.11544 7.86668 5.08406Z" fill="#5F4982"/>
<path id="Vector_2" fill-rule="evenodd" clip-rule="evenodd" d="M7.86668 5.08406C7.64074 5.05406 7.44012 5.1075 7.28918 5.24531C6.68731 5.79844 5.98606 6.50906 5.46481 7.03781L5.04856 7.45781C4.69793 7.80844 4.69512 8.07094 4.73918 8.24531C4.79262 8.46281 4.95293 8.65219 5.06731 8.75531L5.07293 8.76L6.51012 10.1363C6.55709 10.1781 6.59515 10.2291 6.62202 10.286C6.64888 10.3429 6.66401 10.4047 6.6665 10.4676C6.66899 10.5305 6.65878 10.5932 6.63649 10.6521C6.6142 10.7109 6.58028 10.7647 6.53676 10.8102C6.49324 10.8557 6.44101 10.8919 6.38318 10.9167C6.32535 10.9416 6.2631 10.9545 6.20016 10.9548C6.13722 10.9551 6.07486 10.9427 6.01682 10.9183C5.95877 10.894 5.90622 10.8582 5.86231 10.8131L4.4345 9.44719C4.25543 9.28406 3.947 8.94375 3.82887 8.47219C3.69856 7.95094 3.82418 7.35656 4.38575 6.795L4.78325 6.39281C5.39325 5.76583 6.01779 5.15316 6.65637 4.55531C7.04918 4.19344 7.54325 4.09594 7.98762 4.15406C8.42356 4.21031 8.84262 4.4175 9.14075 4.71375C9.36293 4.93406 9.61981 5.1825 9.86918 5.42156L9.90949 5.46C10.1439 5.685 10.3689 5.9025 10.5461 6.07781C10.6319 6.16584 10.6797 6.28407 10.6792 6.40702C10.6787 6.52998 10.6299 6.6478 10.5433 6.73511C10.4567 6.82242 10.3393 6.87222 10.2164 6.87378C10.0934 6.87533 9.97481 6.82852 9.88606 6.74344C9.7145 6.57375 9.49231 6.36094 9.25606 6.13313L9.21949 6.0975C8.97154 5.85989 8.72528 5.6205 8.48074 5.37938C8.31223 5.21878 8.09734 5.11544 7.86668 5.08406Z" fill="url(#paint0_radial_308_7885)"/>
<g id="Group_2" filter="url(#filter0_f_308_7885)">
<path id="Vector_3" d="M5.15637 9.24374C5.15637 9.24374 5.29512 9.38999 4.70918 8.79656C4.12324 8.20312 4.41293 7.68843 4.70918 7.33124C5.03168 6.94312 6.35262 5.68593 7.10449 4.94343C7.33699 4.71468 8.01387 4.27499 8.71606 4.86374C9.12199 5.20406 9.33762 5.43562 9.53168 5.62124" stroke="url(#paint1_linear_308_7885)" stroke-width="0.09375" stroke-linecap="round"/>
</g>
<path id="Vector_4" fill-rule="evenodd" clip-rule="evenodd" d="M24.0948 23.1506L24.512 22.7306C24.8617 22.38 24.8645 22.1175 24.8214 21.9431C24.767 21.7256 24.6067 21.5362 24.4932 21.4331L24.4867 21.4284L23.0495 20.0522C22.9596 19.9661 22.9076 19.8479 22.9048 19.7235C22.9021 19.5991 22.9489 19.4788 23.035 19.3889C23.121 19.299 23.2392 19.247 23.3636 19.2443C23.488 19.2415 23.6083 19.2883 23.6982 19.3744L25.1251 20.7412C25.3051 20.9044 25.6135 21.2447 25.7307 21.7162C25.862 22.2375 25.7364 22.8319 25.1748 23.3934C25.0651 23.5031 24.9292 23.64 24.7764 23.7956C24.1667 24.4226 23.5424 25.0352 22.9042 25.6331C22.5104 25.994 22.0164 26.0925 21.5729 26.0344C21.1383 25.9769 20.7338 25.7806 20.4198 25.4747C20.1967 25.2544 19.9398 25.0059 19.6904 24.7659L19.651 24.7284C19.4167 24.5034 19.1907 24.2859 19.0135 24.1097C18.9253 24.022 18.8754 23.9029 18.875 23.7785C18.8746 23.6541 18.9236 23.5347 19.0112 23.4464C19.0988 23.3581 19.218 23.3083 19.3424 23.3078C19.4667 23.3074 19.5862 23.3564 19.6745 23.444C19.846 23.6147 20.0673 23.8284 20.3026 24.0553L20.3401 24.0909C20.5895 24.33 20.851 24.5822 21.0789 24.809C21.2307 24.959 21.4595 25.0744 21.6929 25.1044C21.9198 25.1334 22.1195 25.0809 22.2704 24.9431C22.8925 24.36 23.5008 23.7623 24.0948 23.1506Z" fill="#513D75"/>
<g id="Group_3" filter="url(#filter1_f_308_7885)">
<path id="Vector_5" d="M24.1847 20.2444C24.1847 20.2444 24.4697 20.4947 25.0566 21.0881C25.6416 21.6806 25.411 22.2759 25.1147 22.6331C24.7922 23.0213 23.4713 24.2784 22.7194 25.0209C22.4899 25.2264 22.1926 25.3401 21.8846 25.3401C21.5765 25.3401 21.2792 25.2264 21.0497 25.0209C20.6428 24.6806 20.4282 24.4491 20.2332 24.2625" stroke="url(#paint2_linear_308_7885)" stroke-width="0.09375" stroke-linecap="round"/>
</g>
<path id="Vector_6" d="M15.0462 25.5469C20.9937 25.5469 25.8152 20.7254 25.8152 14.7779C25.8152 8.83026 20.9937 4.00879 15.0462 4.00879C9.09857 4.00879 4.2771 8.83026 4.2771 14.7779C4.2771 20.7254 9.09857 25.5469 15.0462 25.5469Z" fill="url(#paint3_linear_308_7885)"/>
<g id="Group_4" filter="url(#filter2_f_308_7885)">
<path id="Vector_7" d="M15.0461 25.0435C20.7157 25.0435 25.3118 20.4474 25.3118 14.7778C25.3118 9.10828 20.7157 4.51221 15.0461 4.51221C9.37659 4.51221 4.78052 9.10828 4.78052 14.7778C4.78052 20.4474 9.37659 25.0435 15.0461 25.0435Z" fill="url(#paint4_linear_308_7885)"/>
<path id="Vector_8" d="M15.0461 25.0435C20.7157 25.0435 25.3118 20.4474 25.3118 14.7778C25.3118 9.10828 20.7157 4.51221 15.0461 4.51221C9.37659 4.51221 4.78052 9.10828 4.78052 14.7778C4.78052 20.4474 9.37659 25.0435 15.0461 25.0435Z" fill="url(#paint5_radial_308_7885)"/>
</g>
<path id="Vector_9" d="M15.0461 23.1694C19.6806 23.1694 23.4377 19.4123 23.4377 14.7778C23.4377 10.1433 19.6806 6.38623 15.0461 6.38623C10.4116 6.38623 6.65454 10.1433 6.65454 14.7778C6.65454 19.4123 10.4116 23.1694 15.0461 23.1694Z" fill="url(#paint6_radial_308_7885)"/>
<path id="Vector_10" d="M15.0461 23.1694C19.6806 23.1694 23.4377 19.4123 23.4377 14.7778C23.4377 10.1433 19.6806 6.38623 15.0461 6.38623C10.4116 6.38623 6.65454 10.1433 6.65454 14.7778C6.65454 19.4123 10.4116 23.1694 15.0461 23.1694Z" fill="url(#paint7_radial_308_7885)"/>
<g id="Group_5" filter="url(#filter3_f_308_7885)">
<path id="Vector_11" d="M14.7095 21.24C15.4257 21.24 16.1457 21.6572 16.8039 21.4528C17.477 21.2335 17.8595 20.3897 18.4304 19.981C19.0004 19.5713 19.8001 19.4747 20.2173 18.9113C20.7329 18.2156 20.5567 17.236 20.776 16.5638C20.9879 15.9131 21.616 15.4528 21.616 14.7216C21.616 14.0053 20.9129 13.2085 20.7001 12.5578C20.4817 11.8856 20.7339 11.1891 20.312 10.5985C19.8301 9.92345 18.9854 9.84283 18.4154 9.43408C17.8595 9.02439 17.5848 8.25564 16.7673 7.98939C15.9498 7.72314 15.3235 8.17408 14.5923 8.17408C13.876 8.17408 13.3895 7.6922 12.4792 7.98939C11.807 8.20783 11.3682 9.02439 10.7982 9.43314C10.2282 9.84283 9.43886 9.93376 9.02167 10.4963C8.54261 11.1441 8.76198 11.9541 8.54261 12.6272C8.33073 13.2778 7.64917 13.9838 7.64917 14.7141C7.64917 15.4303 8.25479 16.0191 8.46667 16.6697C8.68604 17.3428 8.46667 18.2156 9.05542 18.9263C9.46417 19.4963 10.2273 19.5122 10.7982 19.9219C11.3532 20.3316 11.7957 21.2335 12.4679 21.4528C13.1335 21.6647 13.9942 21.24 14.7095 21.24Z" fill="#393138"/>
</g>
<path id="Vector_12" d="M15.0881 21.24C15.8044 21.24 16.5244 21.6572 17.1825 21.4528C17.8556 21.2335 18.2381 20.3897 18.8091 19.981C19.3791 19.5713 20.1788 19.4747 20.596 18.9113C21.1116 18.2156 20.9353 17.236 21.1547 16.5638C21.3666 15.9131 21.9947 15.4528 21.9947 14.7216C21.9947 14.0053 21.2916 13.2085 21.0788 12.5578C20.8594 11.8856 21.1125 11.1891 20.6906 10.5985C20.2088 9.92345 19.3641 9.84283 18.7941 9.43408C18.2381 9.02439 17.9635 8.25564 17.146 7.98939C16.3285 7.72314 15.7022 8.17408 14.971 8.17408C14.2547 8.17408 13.7681 7.6922 12.8578 7.98939C12.1856 8.20783 11.7469 9.02439 11.1769 9.43314C10.6069 9.84283 9.81752 9.93376 9.40033 10.4963C8.92127 11.1441 9.14064 11.9541 8.92127 12.6272C8.70939 13.2778 8.02783 13.9838 8.02783 14.7141C8.02783 15.4303 8.63346 16.0191 8.84533 16.6697C9.06471 17.3428 8.84533 18.2156 9.43314 18.9263C9.84283 19.4963 10.6069 19.5122 11.1769 19.9219C11.7319 20.3316 12.1744 21.2335 12.8466 21.4528C13.5122 21.6647 14.3728 21.24 15.0881 21.24Z" fill="url(#paint8_linear_308_7885)"/>
<g id="Group_6" filter="url(#filter4_f_308_7885)">
<path id="Vector_13" d="M15.0845 20.8858C15.7614 20.8858 16.4429 21.2795 17.0654 21.0864C17.7011 20.8801 18.0639 20.0814 18.603 19.6942C19.142 19.307 19.8986 19.2161 20.2933 18.6826C20.7808 18.0245 20.6148 17.0983 20.822 16.4626C21.0226 15.8476 21.6161 15.4126 21.6161 14.7208C21.6161 14.0429 20.9504 13.2892 20.7498 12.6742C20.5436 12.0386 20.7817 11.3795 20.3833 10.8208C19.9276 10.1833 19.1279 10.1064 18.5889 9.71919C18.0639 9.332 17.8033 8.60544 17.0308 8.35325C16.2573 8.10106 15.6648 8.52763 14.9729 8.52763C14.2951 8.52763 13.8358 8.07294 12.9751 8.35325C12.3395 8.56044 11.9242 9.332 11.3851 9.71919C10.8461 10.1064 10.0989 10.1917 9.70514 10.7242C9.25139 11.3373 9.45857 12.1033 9.25139 12.7398C9.05076 13.3548 8.40576 14.0223 8.40576 14.7142C8.40576 15.3911 8.97951 15.9479 9.1792 16.5629C9.38732 17.1995 9.1792 18.0254 9.73607 18.6967C10.1233 19.2358 10.8461 19.2517 11.3851 19.6389C11.9101 20.0261 12.3283 20.8792 12.9639 21.0864C13.5929 21.287 14.4076 20.8858 15.0845 20.8858Z" fill="url(#paint9_linear_308_7885)"/>
</g>
<g id="Group_7" filter="url(#filter5_f_308_7885)">
<path id="Vector_14" d="M15.8531 11.6559C15.9167 11.7225 15.993 11.7757 16.0774 11.8124C16.1619 11.8491 16.2528 11.8686 16.3449 11.8696C16.4369 11.8707 16.5283 11.8533 16.6135 11.8186C16.6988 11.7838 16.7763 11.7324 16.8414 11.6673C16.9065 11.6022 16.9579 11.5247 16.9927 11.4395C17.0274 11.3542 17.0448 11.2629 17.0437 11.1708C17.0426 11.0787 17.0232 10.9878 16.9865 10.9034C16.9498 10.8189 16.8966 10.7427 16.83 10.6791C16.6995 10.5544 16.5253 10.4858 16.3449 10.4878C16.1644 10.4899 15.9919 10.5625 15.8642 10.6902C15.7366 10.8178 15.664 10.9903 15.6619 11.1708C15.6598 11.3513 15.7285 11.5254 15.8531 11.6559Z" fill="#B36D31"/>
</g>
<g id="Group_8" filter="url(#filter6_f_308_7885)">
<path id="Vector_15" d="M9.5775 16.5629C9.64109 16.6295 9.71735 16.6827 9.80179 16.7194C9.88623 16.7561 9.97716 16.7755 10.0692 16.7766C10.1613 16.7777 10.2526 16.7603 10.3379 16.7256C10.4232 16.6908 10.5006 16.6394 10.5657 16.5743C10.6308 16.5092 10.6823 16.4317 10.717 16.3464C10.7518 16.2612 10.7691 16.1698 10.7681 16.0778C10.767 15.9857 10.7476 15.8948 10.7109 15.8103C10.6742 15.7259 10.621 15.6496 10.5544 15.586C10.4238 15.4614 10.2497 15.3927 10.0692 15.3948C9.88874 15.3969 9.71623 15.4695 9.5886 15.5971C9.46097 15.7248 9.38835 15.8973 9.38628 16.0778C9.3842 16.2583 9.45284 16.4324 9.5775 16.5629Z" fill="#B36D31"/>
</g>
<g id="Group_9" filter="url(#filter7_f_308_7885)">
<path id="Vector_16" d="M17.0438 19.322C17.1074 19.3885 17.1837 19.4417 17.2681 19.4784C17.3525 19.5151 17.4435 19.5346 17.5355 19.5356C17.6276 19.5367 17.7189 19.5193 17.8042 19.4846C17.8895 19.4499 17.9669 19.3984 18.032 19.3333C18.0971 19.2682 18.1486 19.1907 18.1833 19.1055C18.2181 19.0202 18.2354 18.9289 18.2344 18.8368C18.2333 18.7447 18.2139 18.6538 18.1772 18.5694C18.1405 18.4849 18.0873 18.4087 18.0207 18.3451C17.8902 18.2204 17.716 18.1518 17.5355 18.1539C17.355 18.1559 17.1825 18.2285 17.0549 18.3562C16.9273 18.4838 16.8547 18.6563 16.8526 18.8368C16.8505 19.0173 16.9191 19.1914 17.0438 19.322Z" fill="#B36D31"/>
</g>
<path id="Vector_17" d="M16.0669 11.5463C16.1301 11.6145 16.2064 11.6692 16.2913 11.7072C16.3761 11.7453 16.4678 11.7657 16.5608 11.7675C16.6537 11.7692 16.7461 11.7522 16.8323 11.7174C16.9185 11.6826 16.9968 11.6308 17.0626 11.565C17.1283 11.4992 17.18 11.4209 17.2147 11.3346C17.2494 11.2484 17.2664 11.156 17.2646 11.063C17.2627 10.9701 17.2421 10.8784 17.204 10.7936C17.166 10.7088 17.1111 10.6325 17.0429 10.5694C16.9117 10.4481 16.7387 10.3823 16.5601 10.3859C16.3815 10.3894 16.2112 10.462 16.0849 10.5883C15.9587 10.7147 15.8863 10.8851 15.8829 11.0637C15.8796 11.2423 15.9455 11.4153 16.0669 11.5463Z" fill="#C9433E"/>
<path id="Vector_18" d="M16.0669 11.5463C16.1301 11.6145 16.2064 11.6692 16.2913 11.7072C16.3761 11.7453 16.4678 11.7657 16.5608 11.7675C16.6537 11.7692 16.7461 11.7522 16.8323 11.7174C16.9185 11.6826 16.9968 11.6308 17.0626 11.565C17.1283 11.4992 17.18 11.4209 17.2147 11.3346C17.2494 11.2484 17.2664 11.156 17.2646 11.063C17.2627 10.9701 17.2421 10.8784 17.204 10.7936C17.166 10.7088 17.1111 10.6325 17.0429 10.5694C16.9117 10.4481 16.7387 10.3823 16.5601 10.3859C16.3815 10.3894 16.2112 10.462 16.0849 10.5883C15.9587 10.7147 15.8863 10.8851 15.8829 11.0637C15.8796 11.2423 15.9455 11.4153 16.0669 11.5463Z" fill="url(#paint10_radial_308_7885)"/>
<path id="Vector_19" d="M17.2352 19.2076C17.2988 19.2742 17.375 19.3274 17.4595 19.3641C17.5439 19.4008 17.6348 19.4203 17.7269 19.4213C17.819 19.4224 17.9103 19.405 17.9956 19.3703C18.0809 19.3355 18.1583 19.2841 18.2234 19.219C18.2885 19.1539 18.34 19.0764 18.3747 18.9912C18.4094 18.9059 18.4268 18.8145 18.4257 18.7225C18.4247 18.6304 18.4052 18.5395 18.3685 18.455C18.3318 18.3706 18.2786 18.2943 18.2121 18.2307C18.081 18.1093 17.9081 18.0434 17.7295 18.0468C17.5509 18.0501 17.3805 18.1225 17.2541 18.2488C17.1277 18.375 17.0552 18.5453 17.0516 18.7239C17.0481 18.9025 17.1139 19.0755 17.2352 19.2067" fill="#C9433E"/>
<path id="Vector_20" d="M17.2352 19.2076C17.2988 19.2742 17.375 19.3274 17.4595 19.3641C17.5439 19.4008 17.6348 19.4203 17.7269 19.4213C17.819 19.4224 17.9103 19.405 17.9956 19.3703C18.0809 19.3355 18.1583 19.2841 18.2234 19.219C18.2885 19.1539 18.34 19.0764 18.3747 18.9912C18.4094 18.9059 18.4268 18.8145 18.4257 18.7225C18.4247 18.6304 18.4052 18.5395 18.3685 18.455C18.3318 18.3706 18.2786 18.2943 18.2121 18.2307C18.081 18.1093 17.9081 18.0434 17.7295 18.0468C17.5509 18.0501 17.3805 18.1225 17.2541 18.2488C17.1277 18.375 17.0552 18.5453 17.0516 18.7239C17.0481 18.9025 17.1139 19.0755 17.2352 19.2067" fill="url(#paint11_radial_308_7885)"/>
<path id="Vector_21" d="M9.7501 16.4821C9.81293 16.5515 9.88922 16.6074 9.97432 16.6464C10.0594 16.6854 10.1516 16.7067 10.2451 16.7091C10.3387 16.7114 10.4318 16.6946 10.5187 16.6599C10.6056 16.6251 10.6846 16.5731 10.7508 16.5069C10.817 16.4407 10.869 16.3617 10.9038 16.2748C10.9385 16.1879 10.9553 16.0948 10.953 16.0012C10.9506 15.9077 10.9293 15.8155 10.8903 15.7304C10.8513 15.6453 10.7954 15.569 10.726 15.5062C10.5946 15.3872 10.4224 15.3232 10.2451 15.3276C10.0679 15.332 9.89905 15.4044 9.77366 15.5298C9.64827 15.6552 9.57589 15.824 9.5715 16.0012C9.56711 16.1785 9.63106 16.3507 9.7501 16.4821Z" fill="#C9433E"/>
<path id="Vector_22" d="M9.7501 16.4821C9.81293 16.5515 9.88922 16.6074 9.97432 16.6464C10.0594 16.6854 10.1516 16.7067 10.2451 16.7091C10.3387 16.7114 10.4318 16.6946 10.5187 16.6599C10.6056 16.6251 10.6846 16.5731 10.7508 16.5069C10.817 16.4407 10.869 16.3617 10.9038 16.2748C10.9385 16.1879 10.9553 16.0948 10.953 16.0012C10.9506 15.9077 10.9293 15.8155 10.8903 15.7304C10.8513 15.6453 10.7954 15.569 10.726 15.5062C10.5946 15.3872 10.4224 15.3232 10.2451 15.3276C10.0679 15.332 9.89905 15.4044 9.77366 15.5298C9.64827 15.6552 9.57589 15.824 9.5715 16.0012C9.56711 16.1785 9.63106 16.3507 9.7501 16.4821Z" fill="url(#paint12_radial_308_7885)"/>
<g id="Group_10" filter="url(#filter8_f_308_7885)">
<path id="Vector_23" d="M17.9767 13.2619C18.1412 13.2789 18.2923 13.3606 18.3967 13.4889C18.5011 13.6172 18.5503 13.7817 18.5336 13.9463L18.2926 16.3088C18.257 16.6519 17.8408 16.9257 17.4986 16.89C17.3341 16.8732 17.183 16.7918 17.0786 16.6636C16.9742 16.5355 16.9249 16.3711 16.9417 16.2066L17.1826 13.8432C17.2183 13.5 17.6336 13.2263 17.9767 13.2619Z" fill="#9D7B30"/>
</g>
<path id="Vector_24" d="M18.1341 13.1664C18.2156 13.1747 18.2947 13.199 18.3668 13.2379C18.439 13.2768 18.5027 13.3296 18.5544 13.3931C18.6061 13.4567 18.6448 13.5298 18.6683 13.6084C18.6917 13.6869 18.6994 13.7693 18.691 13.8508L18.45 16.2142C18.4417 16.2957 18.4174 16.3748 18.3786 16.4469C18.3397 16.519 18.287 16.5828 18.2235 16.6345C18.16 16.6863 18.0869 16.725 18.0084 16.7485C17.93 16.772 17.8476 16.7799 17.7661 16.7716C17.6846 16.7632 17.6056 16.739 17.5334 16.7001C17.4613 16.6612 17.3976 16.6085 17.3458 16.545C17.2941 16.4815 17.2553 16.4084 17.2318 16.33C17.2083 16.2515 17.2005 16.1691 17.2088 16.0876L17.4497 13.7233C17.458 13.6417 17.4823 13.5627 17.5212 13.4905C17.5602 13.4184 17.6129 13.3547 17.6765 13.3029C17.74 13.2512 17.8132 13.2125 17.8917 13.1891C17.9702 13.1657 18.0526 13.158 18.1341 13.1664Z" fill="url(#paint13_linear_308_7885)"/>
<path id="Vector_25" d="M18.1341 13.1664C18.2156 13.1747 18.2947 13.199 18.3668 13.2379C18.439 13.2768 18.5027 13.3296 18.5544 13.3931C18.6061 13.4567 18.6448 13.5298 18.6683 13.6084C18.6917 13.6869 18.6994 13.7693 18.691 13.8508L18.45 16.2142C18.4417 16.2957 18.4174 16.3748 18.3786 16.4469C18.3397 16.519 18.287 16.5828 18.2235 16.6345C18.16 16.6863 18.0869 16.725 18.0084 16.7485C17.93 16.772 17.8476 16.7799 17.7661 16.7716C17.6846 16.7632 17.6056 16.739 17.5334 16.7001C17.4613 16.6612 17.3976 16.6085 17.3458 16.545C17.2941 16.4815 17.2553 16.4084 17.2318 16.33C17.2083 16.2515 17.2005 16.1691 17.2088 16.0876L17.4497 13.7233C17.458 13.6417 17.4823 13.5627 17.5212 13.4905C17.5602 13.4184 17.6129 13.3547 17.6765 13.3029C17.74 13.2512 17.8132 13.2125 17.8917 13.1891C17.9702 13.1657 18.0526 13.158 18.1341 13.1664Z" fill="url(#paint14_radial_308_7885)"/>
<g id="Group_11" filter="url(#filter9_f_308_7885)">
<path id="Vector_26" d="M14.2755 11.267C14.3294 11.4261 14.318 11.6001 14.2436 11.7508C14.1692 11.9014 14.0381 12.0164 13.879 12.0704L11.5915 12.8457C11.5121 12.8749 11.4277 12.8878 11.3432 12.8839C11.2588 12.8799 11.1759 12.8591 11.0997 12.8226C11.0234 12.7861 10.9551 12.7347 10.899 12.6715C10.8429 12.6082 10.8 12.5344 10.7728 12.4543C10.7457 12.3742 10.7348 12.2895 10.7409 12.2052C10.747 12.1208 10.7699 12.0386 10.8083 11.9632C10.8466 11.8879 10.8997 11.821 10.9643 11.7664C11.029 11.7119 11.1039 11.6709 11.1846 11.6457L13.4721 10.8704C13.804 10.7579 14.163 10.936 14.2755 11.267Z" fill="url(#paint15_linear_308_7885)"/>
</g>
<g id="Group_12" filter="url(#filter10_f_308_7885)">
<path id="Vector_27" d="M14.2969 11.3062C14.4094 11.6381 14.2106 11.954 13.8788 12.0665L10.891 13.0509C10.5591 13.1634 10.2216 13.0303 10.1091 12.6984C10.0824 12.6195 10.0715 12.5362 10.0771 12.4532C10.0826 12.3701 10.1045 12.2889 10.1414 12.2143C10.1783 12.1397 10.2296 12.0731 10.2922 12.0183C10.3549 11.9635 10.4277 11.9216 10.5066 11.895L13.4935 10.9106C13.5723 10.8837 13.6556 10.8727 13.7386 10.878C13.8217 10.8834 13.9029 10.905 13.9776 10.9418C14.0523 10.9785 14.119 11.0296 14.174 11.0921C14.2289 11.1547 14.271 11.2274 14.2978 11.3062" fill="url(#paint16_linear_308_7885)"/>
</g>
<g id="Group_13" filter="url(#filter11_f_308_7885)">
<path id="Vector_28" d="M14.2971 11.2294C14.4096 11.5612 14.2568 11.7909 13.9258 11.9034L11.6383 12.6778C11.3064 12.7903 10.8789 12.7753 10.7664 12.4434C10.6539 12.1125 10.9164 11.8669 11.2483 11.7544L13.5358 10.9791C13.8668 10.8666 14.1855 10.8984 14.298 11.2294" fill="#A27932"/>
</g>
<path id="Vector_29" d="M14.536 11.1571C14.5899 11.3162 14.5785 11.4903 14.5041 11.6409C14.4297 11.7916 14.2986 11.9065 14.1395 11.9605L11.852 12.7359C11.7726 12.765 11.6882 12.778 11.6037 12.774C11.5193 12.77 11.4364 12.7492 11.3601 12.7127C11.2839 12.6762 11.2156 12.6249 11.1595 12.5616C11.1034 12.4984 11.0605 12.4245 11.0333 12.3445C11.0062 12.2644 10.9953 12.1797 11.0014 12.0953C11.0075 12.011 11.0304 11.9287 11.0688 11.8534C11.1071 11.778 11.1602 11.7111 11.2248 11.6566C11.2895 11.602 11.3644 11.561 11.4451 11.5359L13.7326 10.7605C14.0645 10.648 14.4235 10.8262 14.536 11.1571Z" fill="url(#paint17_linear_308_7885)"/>
<path id="Vector_30" d="M14.536 11.1571C14.5899 11.3162 14.5785 11.4903 14.5041 11.6409C14.4297 11.7916 14.2986 11.9065 14.1395 11.9605L11.852 12.7359C11.7726 12.765 11.6882 12.778 11.6037 12.774C11.5193 12.77 11.4364 12.7492 11.3601 12.7127C11.2839 12.6762 11.2156 12.6249 11.1595 12.5616C11.1034 12.4984 11.0605 12.4245 11.0333 12.3445C11.0062 12.2644 10.9953 12.1797 11.0014 12.0953C11.0075 12.011 11.0304 11.9287 11.0688 11.8534C11.1071 11.778 11.1602 11.7111 11.2248 11.6566C11.2895 11.602 11.3644 11.561 11.4451 11.5359L13.7326 10.7605C14.0645 10.648 14.4235 10.8262 14.536 11.1571Z" fill="url(#paint18_radial_308_7885)"/>
<path id="Vector_31" d="M14.536 11.1571C14.5899 11.3162 14.5785 11.4903 14.5041 11.6409C14.4297 11.7916 14.2986 11.9065 14.1395 11.9605L11.852 12.7359C11.7726 12.765 11.6882 12.778 11.6037 12.774C11.5193 12.77 11.4364 12.7492 11.3601 12.7127C11.2839 12.6762 11.2156 12.6249 11.1595 12.5616C11.1034 12.4984 11.0605 12.4245 11.0333 12.3445C11.0062 12.2644 10.9953 12.1797 11.0014 12.0953C11.0075 12.011 11.0304 11.9287 11.0688 11.8534C11.1071 11.778 11.1602 11.7111 11.2248 11.6566C11.2895 11.602 11.3644 11.561 11.4451 11.5359L13.7326 10.7605C14.0645 10.648 14.4235 10.8262 14.536 11.1571Z" fill="url(#paint19_radial_308_7885)"/>
<g id="Group_14" filter="url(#filter12_f_308_7885)">
<path id="Vector_32" d="M14.0954 11.2922L11.6917 12.1022" stroke="url(#paint20_linear_308_7885)" stroke-width="0.09375" stroke-linecap="round"/>
</g>
<g id="Group_15" filter="url(#filter13_f_308_7885)">
<path id="Vector_33" d="M14.8145 19.2525C14.7553 19.3111 14.6852 19.3574 14.6081 19.3889C14.5311 19.4203 14.4486 19.4363 14.3654 19.4358C14.2821 19.4354 14.1998 19.4186 14.1231 19.3863C14.0464 19.3541 13.9768 19.307 13.9182 19.2479L12.2185 17.5322C12.1002 17.4128 12.0341 17.2512 12.0349 17.083C12.0357 16.9148 12.1033 16.7539 12.2227 16.6355C12.3422 16.5172 12.5038 16.4511 12.672 16.4519C12.8401 16.4527 13.0011 16.5203 13.1195 16.6397L14.8192 18.3554C14.8778 18.4145 14.9243 18.4847 14.9558 18.5618C14.9873 18.639 15.0033 18.7216 15.0029 18.8049C15.0025 18.8883 14.9856 18.9707 14.9533 19.0475C14.9209 19.1243 14.8738 19.194 14.8145 19.2525Z" fill="#A07A34"/>
</g>
<path id="Vector_34" d="M15.0761 19.0884C15.017 19.1469 14.9468 19.1933 14.8698 19.2247C14.7927 19.2561 14.7102 19.2721 14.627 19.2717C14.5438 19.2712 14.4615 19.2544 14.3847 19.2222C14.308 19.1899 14.2384 19.1429 14.1799 19.0837L12.4811 17.3681C12.3628 17.2487 12.2967 17.0873 12.2974 16.9192C12.2981 16.7511 12.3655 16.5902 12.4849 16.4718C12.6042 16.3535 12.7657 16.2874 12.9338 16.2881C13.1018 16.2888 13.2628 16.3562 13.3811 16.4756L15.0808 18.1912C15.1395 18.2504 15.1859 18.3206 15.2174 18.3977C15.249 18.4748 15.265 18.5574 15.2645 18.6408C15.2641 18.7241 15.2472 18.8065 15.2149 18.8834C15.1826 18.9602 15.1354 19.0298 15.0761 19.0884Z" fill="url(#paint21_linear_308_7885)"/>
<path id="Vector_35" d="M15.0761 19.0884C15.017 19.1469 14.9468 19.1933 14.8698 19.2247C14.7927 19.2561 14.7102 19.2721 14.627 19.2717C14.5438 19.2712 14.4615 19.2544 14.3847 19.2222C14.308 19.1899 14.2384 19.1429 14.1799 19.0837L12.4811 17.3681C12.3628 17.2487 12.2967 17.0873 12.2974 16.9192C12.2981 16.7511 12.3655 16.5902 12.4849 16.4718C12.6042 16.3535 12.7657 16.2874 12.9338 16.2881C13.1018 16.2888 13.2628 16.3562 13.3811 16.4756L15.0808 18.1912C15.1395 18.2504 15.1859 18.3206 15.2174 18.3977C15.249 18.4748 15.265 18.5574 15.2645 18.6408C15.2641 18.7241 15.2472 18.8065 15.2149 18.8834C15.1826 18.9602 15.1354 19.0298 15.0761 19.0884Z" fill="url(#paint22_radial_308_7885)"/>
<g id="Group_16" filter="url(#filter14_f_308_7885)">
<path id="Vector_36" d="M18.3696 13.7109L18.0762 16.2309" stroke="url(#paint23_linear_308_7885)" stroke-width="0.09375" stroke-linecap="round"/>
</g>
<g id="Group_17" filter="url(#filter15_f_308_7885)">
<path id="Vector_37" d="M13.9745 11.3091L11.4695 12.1585" stroke="url(#paint24_linear_308_7885)" stroke-width="0.09375" stroke-linecap="round"/>
</g>
<g id="Group_18" filter="url(#filter16_f_308_7885)">
<path id="Vector_38" d="M13.0454 16.6848L14.8688 18.4483" stroke="url(#paint25_linear_308_7885)" stroke-width="0.09375" stroke-linecap="round"/>
</g>
<g id="Group_19" filter="url(#filter17_f_308_7885)">
<path id="Vector_39" d="M10.9971 12.302C10.8996 12.0085 11.3637 11.5398 11.3637 11.5398C11.2755 12.2429 11.8109 12.7585 11.8109 12.7585C11.6627 12.7998 11.0955 12.5954 10.998 12.302" fill="url(#paint26_linear_308_7885)"/>
</g>
<g id="Group_20" filter="url(#filter18_f_308_7885)">
<path id="Vector_40" d="M12.4651 16.4812C12.6798 16.2591 13.3107 16.4503 13.3107 16.4503C12.3264 16.575 12.4389 17.4131 12.4389 17.4131C12.3339 17.3016 12.2514 16.7044 12.4651 16.4812Z" fill="url(#paint27_linear_308_7885)"/>
</g>
<g id="Group_21" filter="url(#filter19_f_308_7885)">
<path id="Vector_41" d="M17.733 16.7503C17.4255 16.7175 17.1892 16.1016 17.1892 16.1016C17.8923 16.8019 18.4848 16.1972 18.4848 16.1972C18.4614 16.35 18.0414 16.7822 17.733 16.7503Z" fill="url(#paint28_linear_308_7885)"/>
</g>
<g id="Group_22" filter="url(#filter20_f_308_7885)">
<path id="Vector_42" d="M17.2559 8.4375C17.7687 8.67188 17.8859 9.27187 18.4427 9.6975C18.9865 10.1119 19.804 10.2019 20.2005 10.6931C20.508 11.0738 20.6543 11.4712 20.6543 12.7444C20.6543 13.3162 21.1671 13.7991 21.5046 14.1797" stroke="url(#paint29_linear_308_7885)" stroke-width="0.09375" stroke-linecap="round"/>
</g>
</g>
</g>
<defs>
<filter id="filter0_f_308_7885" x="4.22925" y="4.4292" width="5.44312" height="4.97119" filterUnits="userSpaceOnUse" color-interpolation-filters="sRGB">
<feFlood flood-opacity="0" result="BackgroundImageFix"/>
<feBlend mode="normal" in="SourceGraphic" in2="BackgroundImageFix" result="shape"/>
<feGaussianBlur stdDeviation="0.046875" result="effect1_foregroundBlur_308_7885"/>
</filter>
<filter id="filter1_f_308_7885" x="20.0925" y="20.1038" width="5.46729" height="5.37695" filterUnits="userSpaceOnUse" color-interpolation-filters="sRGB">
<feFlood flood-opacity="0" result="BackgroundImageFix"/>
<feBlend mode="normal" in="SourceGraphic" in2="BackgroundImageFix" result="shape"/>
<feGaussianBlur stdDeviation="0.046875" result="effect1_foregroundBlur_308_7885"/>
</filter>
<filter id="filter2_f_308_7885" x="4.59302" y="4.32471" width="20.9062" height="20.9062" filterUnits="userSpaceOnUse" color-interpolation-filters="sRGB">
<feFlood flood-opacity="0" result="BackgroundImageFix"/>
<feBlend mode="normal" in="SourceGraphic" in2="BackgroundImageFix" result="shape"/>
<feGaussianBlur stdDeviation="0.09375" result="effect1_foregroundBlur_308_7885"/>
</filter>
<filter id="filter3_f_308_7885" x="7.46167" y="7.70508" width="14.3418" height="13.9944" filterUnits="userSpaceOnUse" color-interpolation-filters="sRGB">
<feFlood flood-opacity="0" result="BackgroundImageFix"/>
<feBlend mode="normal" in="SourceGraphic" in2="BackgroundImageFix" result="shape"/>
<feGaussianBlur stdDeviation="0.09375" result="effect1_foregroundBlur_308_7885"/>
</filter>
<filter id="filter4_f_308_7885" x="8.31201" y="8.16821" width="13.3977" height="13.0681" filterUnits="userSpaceOnUse" color-interpolation-filters="sRGB">
<feFlood flood-opacity="0" result="BackgroundImageFix"/>
<feBlend mode="normal" in="SourceGraphic" in2="BackgroundImageFix" result="shape"/>
<feGaussianBlur stdDeviation="0.046875" result="effect1_foregroundBlur_308_7885"/>
</filter>
<filter id="filter5_f_308_7885" x="15.5681" y="10.394" width="1.56934" height="1.56934" filterUnits="userSpaceOnUse" color-interpolation-filters="sRGB">
<feFlood flood-opacity="0" result="BackgroundImageFix"/>
<feBlend mode="normal" in="SourceGraphic" in2="BackgroundImageFix" result="shape"/>
<feGaussianBlur stdDeviation="0.046875" result="effect1_foregroundBlur_308_7885"/>
</filter>
<filter id="filter6_f_308_7885" x="9.29248" y="15.301" width="1.56934" height="1.56934" filterUnits="userSpaceOnUse" color-interpolation-filters="sRGB">
<feFlood flood-opacity="0" result="BackgroundImageFix"/>
<feBlend mode="normal" in="SourceGraphic" in2="BackgroundImageFix" result="shape"/>
<feGaussianBlur stdDeviation="0.046875" result="effect1_foregroundBlur_308_7885"/>
</filter>
<filter id="filter7_f_308_7885" x="16.7588" y="18.0601" width="1.56934" height="1.56934" filterUnits="userSpaceOnUse" color-interpolation-filters="sRGB">
<feFlood flood-opacity="0" result="BackgroundImageFix"/>
<feBlend mode="normal" in="SourceGraphic" in2="BackgroundImageFix" result="shape"/>
<feGaussianBlur stdDeviation="0.046875" result="effect1_foregroundBlur_308_7885"/>
</filter>
<filter id="filter8_f_308_7885" x="16.8447" y="13.165" width="1.78589" height="3.82178" filterUnits="userSpaceOnUse" color-interpolation-filters="sRGB">
<feFlood flood-opacity="0" result="BackgroundImageFix"/>
<feBlend mode="normal" in="SourceGraphic" in2="BackgroundImageFix" result="shape"/>
<feGaussianBlur stdDeviation="0.046875" result="effect1_foregroundBlur_308_7885"/>
</filter>
<filter id="filter9_f_308_7885" x="10.6455" y="10.7429" width="3.75732" height="2.23535" filterUnits="userSpaceOnUse" color-interpolation-filters="sRGB">
<feFlood flood-opacity="0" result="BackgroundImageFix"/>
<feBlend mode="normal" in="SourceGraphic" in2="BackgroundImageFix" result="shape"/>
<feGaussianBlur stdDeviation="0.046875" result="effect1_foregroundBlur_308_7885"/>
</filter>
<filter id="filter10_f_308_7885" x="9.98193" y="10.783" width="4.44043" height="2.40088" filterUnits="userSpaceOnUse" color-interpolation-filters="sRGB">
<feFlood flood-opacity="0" result="BackgroundImageFix"/>
<feBlend mode="normal" in="SourceGraphic" in2="BackgroundImageFix" result="shape"/>
<feGaussianBlur stdDeviation="0.046875" result="effect1_foregroundBlur_308_7885"/>
</filter>
<filter id="filter11_f_308_7885" x="10.6462" y="10.8267" width="3.78125" height="2.00806" filterUnits="userSpaceOnUse" color-interpolation-filters="sRGB">
<feFlood flood-opacity="0" result="BackgroundImageFix"/>
<feBlend mode="normal" in="SourceGraphic" in2="BackgroundImageFix" result="shape"/>
<feGaussianBlur stdDeviation="0.046875" result="effect1_foregroundBlur_308_7885"/>
</filter>
<filter id="filter12_f_308_7885" x="11.551" y="11.1516" width="2.68506" height="1.09131" filterUnits="userSpaceOnUse" color-interpolation-filters="sRGB">
<feFlood flood-opacity="0" result="BackgroundImageFix"/>
<feBlend mode="normal" in="SourceGraphic" in2="BackgroundImageFix" result="shape"/>
<feGaussianBlur stdDeviation="0.046875" result="effect1_foregroundBlur_308_7885"/>
</filter>
<filter id="filter13_f_308_7885" x="11.9412" y="16.3582" width="3.15552" height="3.17139" filterUnits="userSpaceOnUse" color-interpolation-filters="sRGB">
<feFlood flood-opacity="0" result="BackgroundImageFix"/>
<feBlend mode="normal" in="SourceGraphic" in2="BackgroundImageFix" result="shape"/>
<feGaussianBlur stdDeviation="0.046875" result="effect1_foregroundBlur_308_7885"/>
</filter>
<filter id="filter14_f_308_7885" x="17.9355" y="13.5703" width="0.574707" height="2.80127" filterUnits="userSpaceOnUse" color-interpolation-filters="sRGB">
<feFlood flood-opacity="0" result="BackgroundImageFix"/>
<feBlend mode="normal" in="SourceGraphic" in2="BackgroundImageFix" result="shape"/>
<feGaussianBlur stdDeviation="0.046875" result="effect1_foregroundBlur_308_7885"/>
</filter>
<filter id="filter15_f_308_7885" x="11.2351" y="11.0747" width="2.97388" height="1.31812" filterUnits="userSpaceOnUse" color-interpolation-filters="sRGB">
<feFlood flood-opacity="0" result="BackgroundImageFix"/>
<feBlend mode="normal" in="SourceGraphic" in2="BackgroundImageFix" result="shape"/>
<feGaussianBlur stdDeviation="0.09375" result="effect1_foregroundBlur_308_7885"/>
</filter>
<filter id="filter16_f_308_7885" x="12.9048" y="16.5442" width="2.10474" height="2.04468" filterUnits="userSpaceOnUse" color-interpolation-filters="sRGB">
<feFlood flood-opacity="0" result="BackgroundImageFix"/>
<feBlend mode="normal" in="SourceGraphic" in2="BackgroundImageFix" result="shape"/>
<feGaussianBlur stdDeviation="0.046875" result="effect1_foregroundBlur_308_7885"/>
</filter>
<filter id="filter17_f_308_7885" x="10.8899" y="11.446" width="1.01465" height="1.41162" filterUnits="userSpaceOnUse" color-interpolation-filters="sRGB">
<feFlood flood-opacity="0" result="BackgroundImageFix"/>
<feBlend mode="normal" in="SourceGraphic" in2="BackgroundImageFix" result="shape"/>
<feGaussianBlur stdDeviation="0.046875" result="effect1_foregroundBlur_308_7885"/>
</filter>
<filter id="filter18_f_308_7885" x="12.2378" y="16.28" width="1.16675" height="1.22681" filterUnits="userSpaceOnUse" color-interpolation-filters="sRGB">
<feFlood flood-opacity="0" result="BackgroundImageFix"/>
<feBlend mode="normal" in="SourceGraphic" in2="BackgroundImageFix" result="shape"/>
<feGaussianBlur stdDeviation="0.046875" result="effect1_foregroundBlur_308_7885"/>
</filter>
<filter id="filter19_f_308_7885" x="17.0955" y="16.0078" width="1.48315" height="0.837891" filterUnits="userSpaceOnUse" color-interpolation-filters="sRGB">
<feFlood flood-opacity="0" result="BackgroundImageFix"/>
<feBlend mode="normal" in="SourceGraphic" in2="BackgroundImageFix" result="shape"/>
<feGaussianBlur stdDeviation="0.046875" result="effect1_foregroundBlur_308_7885"/>
</filter>
<filter id="filter20_f_308_7885" x="17.1152" y="8.29688" width="4.53003" height="6.02344" filterUnits="userSpaceOnUse" color-interpolation-filters="sRGB">
<feFlood flood-opacity="0" result="BackgroundImageFix"/>
<feBlend mode="normal" in="SourceGraphic" in2="BackgroundImageFix" result="shape"/>
<feGaussianBlur stdDeviation="0.046875" result="effect1_foregroundBlur_308_7885"/>
</filter>
<radialGradient id="paint0_radial_308_7885" cx="0" cy="0" r="1" gradientUnits="userSpaceOnUse" gradientTransform="translate(7.77856 7.76344) rotate(135.141) scale(4.195 1.03585)">
<stop stop-color="#3F3749"/>
<stop offset="0.439" stop-color="#332D3B"/>
<stop offset="1" stop-opacity="0"/>
</radialGradient>
<linearGradient id="paint1_linear_308_7885" x1="4.36981" y1="8.32031" x2="8.27637" y2="4.24781" gradientUnits="userSpaceOnUse">
<stop stop-color="#7A69A3"/>
<stop offset="0.277" stop-color="#7456A6"/>
<stop offset="0.832" stop-color="#654D8D"/>
<stop offset="1" stop-color="#7B69A3"/>
</linearGradient>
<linearGradient id="paint2_linear_308_7885" x1="25.395" y1="21.5644" x2="21.4894" y2="25.6359" gradientUnits="userSpaceOnUse">
<stop stop-color="#7A69A3"/>
<stop offset="0.277" stop-color="#7456A6"/>
<stop offset="0.832" stop-color="#654D8D"/>
<stop offset="1" stop-color="#7B69A3"/>
</linearGradient>
<linearGradient id="paint3_linear_308_7885" x1="23.2568" y1="8.20129" x2="6.37335" y2="21.1754" gradientUnits="userSpaceOnUse">
<stop stop-color="#7E75BF"/>
<stop offset="0.506" stop-color="#58457C"/>
<stop offset="1" stop-color="#4D3966"/>
</linearGradient>
<linearGradient id="paint4_linear_308_7885" x1="23.5755" y1="8.13002" x2="7.79458" y2="22.0275" gradientUnits="userSpaceOnUse">
<stop stop-color="#5E50A1"/>
<stop offset="0.449" stop-color="#5C4385"/>
<stop offset="1" stop-color="#5D3F7C"/>
</linearGradient>
<radialGradient id="paint5_radial_308_7885" cx="0" cy="0" r="1" gradientUnits="userSpaceOnUse" gradientTransform="translate(12.8324 15.4684) rotate(82.447) scale(16.8454 16.8454)">
<stop offset="0.31" stop-color="#B5A4CB"/>
<stop offset="0.431" stop-color="#7E6898" stop-opacity="0"/>
</radialGradient>
<radialGradient id="paint6_radial_308_7885" cx="0" cy="0" r="1" gradientUnits="userSpaceOnUse" gradientTransform="translate(10.4373 15.2961) rotate(-3.391) scale(15.761)">
<stop stop-color="#654B7E"/>
<stop offset="0.466" stop-color="#4D3A5E"/>
<stop offset="1" stop-color="#1C1C1C"/>
</radialGradient>
<radialGradient id="paint7_radial_308_7885" cx="0" cy="0" r="1" gradientUnits="userSpaceOnUse" gradientTransform="translate(18.9465 12.0342) rotate(111.224) scale(12.8774)">
<stop offset="0.821" stop-color="#5E3F77" stop-opacity="0"/>
<stop offset="1" stop-color="#60407C"/>
</radialGradient>
<linearGradient id="paint8_linear_308_7885" x1="20.2153" y1="10.7231" x2="9.72658" y2="17.9297" gradientUnits="userSpaceOnUse">
<stop stop-color="#C6943B"/>
<stop offset="0.159" stop-color="#DFA930"/>
<stop offset="0.642" stop-color="#F4C52E"/>
<stop offset="1" stop-color="#E4C03C"/>
</linearGradient>
<linearGradient id="paint9_linear_308_7885" x1="19.7467" y1="10.8404" x2="10.0783" y2="18.5748" gradientUnits="userSpaceOnUse">
<stop stop-color="#F9B93F"/>
<stop offset="0.517" stop-color="#FFD941"/>
<stop offset="1" stop-color="#FFDE42"/>
</linearGradient>
<radialGradient id="paint10_radial_308_7885" cx="0" cy="0" r="1" gradientUnits="userSpaceOnUse" gradientTransform="translate(16.8602 10.9426) rotate(110.759) scale(0.86175)">
<stop stop-color="#FF8981"/>
<stop offset="0.472" stop-color="#FF4E3C"/>
<stop offset="1" stop-color="#C6453D"/>
</radialGradient>
<radialGradient id="paint11_radial_308_7885" cx="0" cy="0" r="1" gradientUnits="userSpaceOnUse" gradientTransform="translate(18.0282 18.6039) rotate(110.759) scale(0.86175)">
<stop stop-color="#FF8981"/>
<stop offset="0.472" stop-color="#FF4E3C"/>
<stop offset="1" stop-color="#C6453D"/>
</radialGradient>
<radialGradient id="paint12_radial_308_7885" cx="0" cy="0" r="1" gradientUnits="userSpaceOnUse" gradientTransform="translate(10.543 15.8794) rotate(110.759) scale(0.86175)">
<stop stop-color="#FF8981"/>
<stop offset="0.472" stop-color="#FF4E3C"/>
<stop offset="1" stop-color="#C6453D"/>
</radialGradient>
<linearGradient id="paint13_linear_308_7885" x1="18.3403" y1="13.128" x2="17.9503" y2="16.8105" gradientUnits="userSpaceOnUse">
<stop stop-color="#539253"/>
<stop offset="1" stop-color="#72AB42"/>
</linearGradient>
<radialGradient id="paint14_radial_308_7885" cx="0" cy="0" r="1" gradientUnits="userSpaceOnUse" gradientTransform="translate(18.135 16.4064) rotate(94.2949) scale(2.46787 1.01672)">
<stop stop-color="#90E43C"/>
<stop offset="1" stop-color="#96E839" stop-opacity="0"/>
</radialGradient>
<linearGradient id="paint15_linear_308_7885" x1="15.0659" y1="11.0635" x2="10.203" y2="12.4117" gradientUnits="userSpaceOnUse">
<stop offset="0.793" stop-color="#9E7830"/>
<stop offset="1" stop-color="#9E7830" stop-opacity="0"/>
</linearGradient>
<linearGradient id="paint16_linear_308_7885" x1="15.0881" y1="11.1037" x2="10.2244" y2="12.4509" gradientUnits="userSpaceOnUse">
<stop offset="0.793" stop-color="#D5AB3E"/>
<stop offset="1" stop-color="#D3AB3E" stop-opacity="0"/>
</linearGradient>
<linearGradient id="paint17_linear_308_7885" x1="14.6589" y1="11.3305" x2="11.0898" y2="12.5259" gradientUnits="userSpaceOnUse">
<stop stop-color="#539253"/>
<stop offset="1" stop-color="#72AB42"/>
</linearGradient>
<radialGradient id="paint18_radial_308_7885" cx="0" cy="0" r="1" gradientUnits="userSpaceOnUse" gradientTransform="translate(11.5604 11.9418) rotate(162.467) scale(2.42457 0.998886)">
<stop stop-color="#90E43C"/>
<stop offset="1" stop-color="#96E839" stop-opacity="0"/>
</radialGradient>
<radialGradient id="paint19_radial_308_7885" cx="0" cy="0" r="1" gradientUnits="userSpaceOnUse" gradientTransform="translate(14.1507 11.3015) rotate(154.655) scale(0.307968 0.284505)">
<stop stop-color="#8AD291"/>
<stop offset="1" stop-color="#88CF90" stop-opacity="0"/>
</radialGradient>
<linearGradient id="paint20_linear_308_7885" x1="14.0326" y1="11.1591" x2="11.6017" y2="12.0704" gradientUnits="userSpaceOnUse">
<stop stop-color="#74AD78"/>
<stop offset="1" stop-color="#B9F270"/>
</linearGradient>
<linearGradient id="paint21_linear_308_7885" x1="14.9739" y1="19.275" x2="12.3358" y2="16.5909" gradientUnits="userSpaceOnUse">
<stop stop-color="#539253"/>
<stop offset="1" stop-color="#72AB42"/>
</linearGradient>
<radialGradient id="paint22_radial_308_7885" cx="0" cy="0" r="1" gradientUnits="userSpaceOnUse" gradientTransform="translate(13.0668 16.7584) rotate(-133.531) scale(2.42457 0.998887)">
<stop stop-color="#90E43C"/>
<stop offset="1" stop-color="#96E839" stop-opacity="0"/>
</radialGradient>
<linearGradient id="paint23_linear_308_7885" x1="18.2234" y1="13.7109" x2="18.2234" y2="16.2309" gradientUnits="userSpaceOnUse">
<stop stop-color="#89D18E"/>
<stop offset="1" stop-color="#B9F270"/>
</linearGradient>
<linearGradient id="paint24_linear_308_7885" x1="13.9239" y1="11.1525" x2="11.6607" y2="12.2578" gradientUnits="userSpaceOnUse">
<stop stop-color="#67B35B"/>
<stop offset="1" stop-color="#7CCD45"/>
</linearGradient>
<linearGradient id="paint25_linear_308_7885" x1="14.8538" y1="18.4483" x2="13.3595" y2="16.8751" gradientUnits="userSpaceOnUse">
<stop stop-color="#89D18E"/>
<stop offset="1" stop-color="#B9F270"/>
</linearGradient>
<linearGradient id="paint26_linear_308_7885" x1="11.0749" y1="12.3414" x2="11.8109" y2="12.152" gradientUnits="userSpaceOnUse">
<stop stop-color="#6B9134"/>
<stop offset="1" stop-color="#6B9134" stop-opacity="0"/>
</linearGradient>
<linearGradient id="paint27_linear_308_7885" x1="12.466" y1="16.5675" x2="12.977" y2="17.1309" gradientUnits="userSpaceOnUse">
<stop stop-color="#79A53B"/>
<stop offset="1" stop-color="#6B9134" stop-opacity="0"/>
</linearGradient>
<linearGradient id="paint28_linear_308_7885" x1="17.8005" y1="16.6959" x2="17.9317" y2="15.9469" gradientUnits="userSpaceOnUse">
<stop stop-color="#79A53B"/>
<stop offset="1" stop-color="#6B9134" stop-opacity="0"/>
</linearGradient>
<linearGradient id="paint29_linear_308_7885" x1="17.2559" y1="8.4375" x2="21.739" y2="14.6194" gradientUnits="userSpaceOnUse">
<stop stop-color="#F8C05B" stop-opacity="0"/>
<stop offset="0.187" stop-color="#FFD874"/>
<stop offset="0.455" stop-color="#E7B052"/>
<stop offset="0.727" stop-color="#FFD07C"/>
<stop offset="1" stop-color="#F5BF5F" stop-opacity="0"/>
</linearGradient>
</defs>
</svg>
