<svg width="118" height="96" viewBox="0 0 118 96" fill="none" xmlns="http://www.w3.org/2000/svg">
<g filter="url(#filter0_d_32_2180)">
<path d="M35 36C35 29.3726 40.3726 24 47 24H71C77.6274 24 83 29.3726 83 36V60C83 66.6274 77.6274 72 71 72H47C40.3726 72 35 66.6274 35 60V36Z" fill="white" shape-rendering="crispEdges"/>
<path d="M35.5 36C35.5 29.6487 40.6487 24.5 47 24.5H71C77.3513 24.5 82.5 29.6487 82.5 36V60C82.5 66.3513 77.3513 71.5 71 71.5H47C40.6487 71.5 35.5 66.3513 35.5 60V36Z" stroke="#F7F7F7" shape-rendering="crispEdges"/>
<rect x="49" y="38" width="20" height="20" rx="10" fill="#1877F2"/>
<path d="M62.8926 50.8906L63.3359 48H60.5625V46.125C60.5625 45.334 60.9492 44.5625 62.1914 44.5625H63.4531V42.1016C63.4531 42.1016 62.3086 41.9062 61.2148 41.9062C58.9297 41.9062 57.4375 43.291 57.4375 45.7969V48H54.8984V50.8906H57.4375V57.8789C57.9473 57.959 58.4688 58 59 58C59.5312 58 60.0527 57.959 60.5625 57.8789V50.8906H62.8926Z" fill="white"/>
</g>
<defs>
<filter id="filter0_d_32_2180" x="0" y="-6" width="118" height="118" filterUnits="userSpaceOnUse" color-interpolation-filters="sRGB">
<feFlood flood-opacity="0" result="BackgroundImageFix"/>
<feColorMatrix in="SourceAlpha" type="matrix" values="0 0 0 0 0 0 0 0 0 0 0 0 0 0 0 0 0 0 127 0" result="hardAlpha"/>
<feOffset dy="5"/>
<feGaussianBlur stdDeviation="17.5"/>
<feComposite in2="hardAlpha" operator="out"/>
<feColorMatrix type="matrix" values="0 0 0 0 0.0705882 0 0 0 0 0.0705882 0 0 0 0 0.0705882 0 0 0 0.05 0"/>
<feBlend mode="normal" in2="BackgroundImageFix" result="effect1_dropShadow_32_2180"/>
<feBlend mode="normal" in="SourceGraphic" in2="effect1_dropShadow_32_2180" result="shape"/>
</filter>
</defs>
</svg>
