<svg width="24" height="27" viewBox="0 0 24 27" fill="none" xmlns="http://www.w3.org/2000/svg">
<g id="Group">
<path id="Vector" d="M13.0488 0.132618L10.2097 3.24639H13.7613V0.522362C13.7613 0.421435 13.7374 0.322674 13.6925 0.238015C13.6475 0.153357 13.5835 0.0864261 13.5081 0.0453129C13.4328 0.00419972 13.3493 -0.00933592 13.2678 0.00634283C13.1862 0.0220216 13.1102 0.0651986 13.0488 0.132618Z" fill="#AEC64B"/>
<path id="Vector_2" d="M13.0488 0.132618L10.2097 3.24639H13.7613V0.522362C13.7613 0.421435 13.7374 0.322674 13.6925 0.238015C13.6475 0.153357 13.5835 0.0864261 13.5081 0.0453129C13.4328 0.00419972 13.3493 -0.00933592 13.2678 0.00634283C13.1862 0.0220216 13.1102 0.0651986 13.0488 0.132618Z" fill="url(#paint0_linear_84_699)"/>
<path id="Vector_3" d="M13.0488 0.132618L10.2097 3.24639H13.7613V0.522362C13.7613 0.421435 13.7374 0.322674 13.6925 0.238015C13.6475 0.153357 13.5835 0.0864261 13.5081 0.0453129C13.4328 0.00419972 13.3493 -0.00933592 13.2678 0.00634283C13.1862 0.0220216 13.1102 0.0651986 13.0488 0.132618Z" fill="url(#paint1_linear_84_699)"/>
<path id="Vector_4" d="M13.0488 0.132618L10.2097 3.24639H13.7613V0.522362C13.7613 0.421435 13.7374 0.322674 13.6925 0.238015C13.6475 0.153357 13.5835 0.0864261 13.5081 0.0453129C13.4328 0.00419972 13.3493 -0.00933592 13.2678 0.00634283C13.1862 0.0220216 13.1102 0.0651986 13.0488 0.132618Z" fill="url(#paint2_radial_84_699)"/>
<g id="Group_2" filter="url(#filter0_ii_84_699)">
<path id="Vector_5" d="M9.35534 3.0332H14.6439C18.7166 3.0332 21.6087 5.80217 22.5254 9.825L23.6737 14.8666C25.0526 20.927 22.0401 26.9999 15.0446 26.9999H8.95635C1.95909 26.9999 -1.05255 20.928 0.326399 14.8666L1.47467 9.825C2.3914 5.80217 5.28428 3.0332 9.35534 3.0332Z" fill="url(#paint3_linear_84_699)"/>
<path id="Vector_6" d="M9.35534 3.0332H14.6439C18.7166 3.0332 21.6087 5.80217 22.5254 9.825L23.6737 14.8666C25.0526 20.927 22.0401 26.9999 15.0446 26.9999H8.95635C1.95909 26.9999 -1.05255 20.928 0.326399 14.8666L1.47467 9.825C2.3914 5.80217 5.28428 3.0332 9.35534 3.0332Z" fill="url(#paint4_linear_84_699)"/>
<path id="Vector_7" d="M9.35534 3.0332H14.6439C18.7166 3.0332 21.6087 5.80217 22.5254 9.825L23.6737 14.8666C25.0526 20.927 22.0401 26.9999 15.0446 26.9999H8.95635C1.95909 26.9999 -1.05255 20.928 0.326399 14.8666L1.47467 9.825C2.3914 5.80217 5.28428 3.0332 9.35534 3.0332Z" fill="url(#paint5_radial_84_699)"/>
<path id="Vector_8" d="M9.35534 3.0332H14.6439C18.7166 3.0332 21.6087 5.80217 22.5254 9.825L23.6737 14.8666C25.0526 20.927 22.0401 26.9999 15.0446 26.9999H8.95635C1.95909 26.9999 -1.05255 20.928 0.326399 14.8666L1.47467 9.825C2.3914 5.80217 5.28428 3.0332 9.35534 3.0332Z" fill="url(#paint6_radial_84_699)"/>
</g>
<path id="Vector_9" d="M9.35534 3.0332H14.6439C18.7166 3.0332 21.6087 5.80217 22.5254 9.825L23.6737 14.8666C25.0526 20.927 22.0401 26.9999 15.0446 26.9999H8.95635C1.95909 26.9999 -1.05255 20.928 0.326399 14.8666L1.47467 9.825C2.3914 5.80217 5.28428 3.0332 9.35534 3.0332Z" fill="url(#paint7_radial_84_699)"/>
<g id="Group_3" filter="url(#filter1_f_84_699)">
<path id="Vector_10" d="M21.059 9.94848C20.7583 8.55982 20.1286 7.44074 19.6536 6.78664C19.4186 6.46272 19.0726 6.31226 18.7172 6.31226C17.8936 6.31226 17.2263 7.12936 17.2263 8.13559V18.1216C17.2263 18.3987 17.3163 18.6645 17.4766 18.8605C17.6368 19.0564 17.8541 19.1665 18.0807 19.1665H21.7801C21.9085 19.1668 22.0353 19.1316 22.1511 19.0635C22.2668 18.9954 22.3685 18.8962 22.4485 18.7734C22.5285 18.6505 22.5848 18.5071 22.6132 18.3539C22.6415 18.2007 22.6412 18.0416 22.6122 17.8886C22.1295 15.3328 21.3931 11.4866 21.059 9.94848Z" fill="url(#paint8_linear_84_699)"/>
</g>
<g id="Group_4" filter="url(#filter2_i_84_699)">
<path id="Vector_11" fill-rule="evenodd" clip-rule="evenodd" d="M13.2521 13.4822H10.748C10.6041 13.9077 10.3602 14.2715 10.0472 14.5274C9.73423 14.7834 9.36618 14.92 8.98967 14.92C8.61316 14.92 8.24511 14.7834 7.93212 14.5274C7.61912 14.2715 7.37526 13.9077 7.23138 13.4822H5.17236V13.5919C5.17248 15.4402 5.67371 17.2362 6.59759 18.6989C7.52146 20.1615 8.81582 21.2083 10.2781 21.6752C10.4297 21.2726 10.6724 20.9316 10.9776 20.6926C11.2828 20.4536 11.6376 20.3265 12 20.3265C12.3624 20.3265 12.7172 20.4536 13.0224 20.6926C13.3276 20.9316 13.5704 21.2726 13.722 21.6752C15.1992 21.2036 16.5047 20.1405 17.4301 18.6555C18.3556 17.1705 18.8476 15.3492 18.8277 13.4822H16.7687C16.6248 13.9077 16.3809 14.2715 16.0679 14.5274C15.7549 14.7834 15.3869 14.92 15.0104 14.92C14.6339 14.92 14.2658 14.7834 13.9528 14.5274C13.6398 14.2715 13.396 13.9077 13.2521 13.4822Z" fill="url(#paint9_radial_84_699)"/>
<path id="Vector_12" fill-rule="evenodd" clip-rule="evenodd" d="M13.2521 13.4822H10.748C10.6041 13.9077 10.3602 14.2715 10.0472 14.5274C9.73423 14.7834 9.36618 14.92 8.98967 14.92C8.61316 14.92 8.24511 14.7834 7.93212 14.5274C7.61912 14.2715 7.37526 13.9077 7.23138 13.4822H5.17236V13.5919C5.17248 15.4402 5.67371 17.2362 6.59759 18.6989C7.52146 20.1615 8.81582 21.2083 10.2781 21.6752C10.4297 21.2726 10.6724 20.9316 10.9776 20.6926C11.2828 20.4536 11.6376 20.3265 12 20.3265C12.3624 20.3265 12.7172 20.4536 13.0224 20.6926C13.3276 20.9316 13.5704 21.2726 13.722 21.6752C15.1992 21.2036 16.5047 20.1405 17.4301 18.6555C18.3556 17.1705 18.8476 15.3492 18.8277 13.4822H16.7687C16.6248 13.9077 16.3809 14.2715 16.0679 14.5274C15.7549 14.7834 15.3869 14.92 15.0104 14.92C14.6339 14.92 14.2658 14.7834 13.9528 14.5274C13.6398 14.2715 13.396 13.9077 13.2521 13.4822Z" fill="url(#paint10_radial_84_699)"/>
</g>
<g id="Group_5" filter="url(#filter3_i_84_699)">
<path id="Vector_13" d="M16.2664 9.52506L15.3104 10.9398C15.2794 10.9857 15.2598 11.0413 15.2537 11.1003C15.2476 11.1592 15.2554 11.2191 15.2761 11.2729C15.2968 11.3266 15.3295 11.3721 15.3705 11.404C15.4116 11.4359 15.4591 11.4528 15.5077 11.4529H17.888C17.9367 11.4528 17.9843 11.4357 18.0253 11.4037C18.0664 11.3717 18.0991 11.3261 18.1197 11.2722C18.1404 11.2182 18.148 11.1583 18.1417 11.0992C18.1355 11.0402 18.1156 10.9845 18.0845 10.9388L17.1208 9.52297C17.0685 9.44637 17.0031 9.38478 16.9292 9.34258C16.8553 9.30038 16.7747 9.27861 16.6932 9.27881C16.6116 9.27901 16.5311 9.30118 16.4573 9.34374C16.3836 9.3863 16.3184 9.4482 16.2664 9.52506Z" fill="#583674"/>
<path id="Vector_14" d="M16.2664 9.52506L15.3104 10.9398C15.2794 10.9857 15.2598 11.0413 15.2537 11.1003C15.2476 11.1592 15.2554 11.2191 15.2761 11.2729C15.2968 11.3266 15.3295 11.3721 15.3705 11.404C15.4116 11.4359 15.4591 11.4528 15.5077 11.4529H17.888C17.9367 11.4528 17.9843 11.4357 18.0253 11.4037C18.0664 11.3717 18.0991 11.3261 18.1197 11.2722C18.1404 11.2182 18.148 11.1583 18.1417 11.0992C18.1355 11.0402 18.1156 10.9845 18.0845 10.9388L17.1208 9.52297C17.0685 9.44637 17.0031 9.38478 16.9292 9.34258C16.8553 9.30038 16.7747 9.27861 16.6932 9.27881C16.6116 9.27901 16.5311 9.30118 16.4573 9.34374C16.3836 9.3863 16.3184 9.4482 16.2664 9.52506Z" fill="url(#paint11_linear_84_699)"/>
<path id="Vector_15" d="M16.2664 9.52506L15.3104 10.9398C15.2794 10.9857 15.2598 11.0413 15.2537 11.1003C15.2476 11.1592 15.2554 11.2191 15.2761 11.2729C15.2968 11.3266 15.3295 11.3721 15.3705 11.404C15.4116 11.4359 15.4591 11.4528 15.5077 11.4529H17.888C17.9367 11.4528 17.9843 11.4357 18.0253 11.4037C18.0664 11.3717 18.0991 11.3261 18.1197 11.2722C18.1404 11.2182 18.148 11.1583 18.1417 11.0992C18.1355 11.0402 18.1156 10.9845 18.0845 10.9388L17.1208 9.52297C17.0685 9.44637 17.0031 9.38478 16.9292 9.34258C16.8553 9.30038 16.7747 9.27861 16.6932 9.27881C16.6116 9.27901 16.5311 9.30118 16.4573 9.34374C16.3836 9.3863 16.3184 9.4482 16.2664 9.52506Z" fill="url(#paint12_radial_84_699)"/>
</g>
<g id="Group_6" filter="url(#filter4_i_84_699)">
<path id="Vector_16" d="M6.85491 9.52496L5.89802 10.9397C5.86703 10.9856 5.84737 11.0414 5.84134 11.1004C5.8353 11.1595 5.84313 11.2194 5.86392 11.2732C5.88471 11.327 5.9176 11.3725 5.95874 11.4043C5.99988 11.4361 6.04756 11.4529 6.09623 11.4528H8.47564C8.52431 11.4527 8.57195 11.4356 8.61299 11.4036C8.65404 11.3716 8.68678 11.326 8.70739 11.2721C8.728 11.2181 8.73563 11.1581 8.72939 11.0991C8.72315 11.0401 8.70329 10.9844 8.67214 10.9387L7.70927 9.52287C7.65704 9.44608 7.59159 9.38433 7.51761 9.34202C7.44363 9.29971 7.36293 9.27788 7.28126 9.27808C7.19959 9.27828 7.11896 9.30051 7.04512 9.34318C6.97127 9.38585 6.90603 9.44792 6.85405 9.52496" fill="#583674"/>
<path id="Vector_17" d="M6.85491 9.52496L5.89802 10.9397C5.86703 10.9856 5.84737 11.0414 5.84134 11.1004C5.8353 11.1595 5.84313 11.2194 5.86392 11.2732C5.88471 11.327 5.9176 11.3725 5.95874 11.4043C5.99988 11.4361 6.04756 11.4529 6.09623 11.4528H8.47564C8.52431 11.4527 8.57195 11.4356 8.61299 11.4036C8.65404 11.3716 8.68678 11.326 8.70739 11.2721C8.728 11.2181 8.73563 11.1581 8.72939 11.0991C8.72315 11.0401 8.70329 10.9844 8.67214 10.9387L7.70927 9.52287C7.65704 9.44608 7.59159 9.38433 7.51761 9.34202C7.44363 9.29971 7.36293 9.27788 7.28126 9.27808C7.19959 9.27828 7.11896 9.30051 7.04512 9.34318C6.97127 9.38585 6.90603 9.44792 6.85405 9.52496" fill="url(#paint13_linear_84_699)"/>
<path id="Vector_18" d="M6.85491 9.52496L5.89802 10.9397C5.86703 10.9856 5.84737 11.0414 5.84134 11.1004C5.8353 11.1595 5.84313 11.2194 5.86392 11.2732C5.88471 11.327 5.9176 11.3725 5.95874 11.4043C5.99988 11.4361 6.04756 11.4529 6.09623 11.4528H8.47564C8.52431 11.4527 8.57195 11.4356 8.61299 11.4036C8.65404 11.3716 8.68678 11.326 8.70739 11.2721C8.728 11.2181 8.73563 11.1581 8.72939 11.0991C8.72315 11.0401 8.70329 10.9844 8.67214 10.9387L7.70927 9.52287C7.65704 9.44608 7.59159 9.38433 7.51761 9.34202C7.44363 9.29971 7.36293 9.27788 7.28126 9.27808C7.19959 9.27828 7.11896 9.30051 7.04512 9.34318C6.97127 9.38585 6.90603 9.44792 6.85405 9.52496" fill="url(#paint14_radial_84_699)"/>
</g>
<g id="Group_7" filter="url(#filter5_f_84_699)">
<path id="Vector_19" d="M2.57451 9.63889C3.48013 6.31614 4.89326 5.70697 5.38793 5.48022L1.64752 20.8297C0.875173 19.5058 0.94694 17.3011 1.02981 16.671C1.23486 15.461 1.83206 12.3608 2.57451 9.63889Z" fill="#FF9470"/>
</g>
</g>
<defs>
<filter id="filter0_ii_84_699" x="0" y="2.75195" width="24" height="24.248" filterUnits="userSpaceOnUse" color-interpolation-filters="sRGB">
<feFlood flood-opacity="0" result="BackgroundImageFix"/>
<feBlend mode="normal" in="SourceGraphic" in2="BackgroundImageFix" result="shape"/>
<feColorMatrix in="SourceAlpha" type="matrix" values="0 0 0 0 0 0 0 0 0 0 0 0 0 0 0 0 0 0 127 0" result="hardAlpha"/>
<feOffset dy="-0.28125"/>
<feGaussianBlur stdDeviation="0.234375"/>
<feComposite in2="hardAlpha" operator="arithmetic" k2="-1" k3="1"/>
<feColorMatrix type="matrix" values="0 0 0 0 0.956863 0 0 0 0 0.592157 0 0 0 0 0.823529 0 0 0 1 0"/>
<feBlend mode="normal" in2="shape" result="effect1_innerShadow_84_699"/>
<feColorMatrix in="SourceAlpha" type="matrix" values="0 0 0 0 0 0 0 0 0 0 0 0 0 0 0 0 0 0 127 0" result="hardAlpha"/>
<feOffset/>
<feGaussianBlur stdDeviation="0.1875"/>
<feComposite in2="hardAlpha" operator="arithmetic" k2="-1" k3="1"/>
<feColorMatrix type="matrix" values="0 0 0 0 0.890196 0 0 0 0 0.627451 0 0 0 0 0.572549 0 0 0 1 0"/>
<feBlend mode="normal" in2="effect1_innerShadow_84_699" result="effect2_innerShadow_84_699"/>
</filter>
<filter id="filter1_f_84_699" x="16.4763" y="5.56226" width="6.90796" height="14.3542" filterUnits="userSpaceOnUse" color-interpolation-filters="sRGB">
<feFlood flood-opacity="0" result="BackgroundImageFix"/>
<feBlend mode="normal" in="SourceGraphic" in2="BackgroundImageFix" result="shape"/>
<feGaussianBlur stdDeviation="0.375" result="effect1_foregroundBlur_84_699"/>
</filter>
<filter id="filter2_i_84_699" x="4.60986" y="13.4822" width="14.2185" height="8.19312" filterUnits="userSpaceOnUse" color-interpolation-filters="sRGB">
<feFlood flood-opacity="0" result="BackgroundImageFix"/>
<feBlend mode="normal" in="SourceGraphic" in2="BackgroundImageFix" result="shape"/>
<feColorMatrix in="SourceAlpha" type="matrix" values="0 0 0 0 0 0 0 0 0 0 0 0 0 0 0 0 0 0 127 0" result="hardAlpha"/>
<feOffset dx="-0.5625"/>
<feGaussianBlur stdDeviation="0.28125"/>
<feComposite in2="hardAlpha" operator="arithmetic" k2="-1" k3="1"/>
<feColorMatrix type="matrix" values="0 0 0 0 0.223529 0 0 0 0 0.0901961 0 0 0 0 0.313726 0 0 0 1 0"/>
<feBlend mode="normal" in2="shape" result="effect1_innerShadow_84_699"/>
</filter>
<filter id="filter3_i_84_699" x="15.0642" y="9.27881" width="3.07959" height="2.36157" filterUnits="userSpaceOnUse" color-interpolation-filters="sRGB">
<feFlood flood-opacity="0" result="BackgroundImageFix"/>
<feBlend mode="normal" in="SourceGraphic" in2="BackgroundImageFix" result="shape"/>
<feColorMatrix in="SourceAlpha" type="matrix" values="0 0 0 0 0 0 0 0 0 0 0 0 0 0 0 0 0 0 127 0" result="hardAlpha"/>
<feOffset dx="-0.1875" dy="0.1875"/>
<feGaussianBlur stdDeviation="0.09375"/>
<feComposite in2="hardAlpha" operator="arithmetic" k2="-1" k3="1"/>
<feColorMatrix type="matrix" values="0 0 0 0 0.219608 0 0 0 0 0.121569 0 0 0 0 0.329412 0 0 0 1 0"/>
<feBlend mode="normal" in2="shape" result="effect1_innerShadow_84_699"/>
</filter>
<filter id="filter4_i_84_699" x="5.65186" y="9.27808" width="3.07959" height="2.3623" filterUnits="userSpaceOnUse" color-interpolation-filters="sRGB">
<feFlood flood-opacity="0" result="BackgroundImageFix"/>
<feBlend mode="normal" in="SourceGraphic" in2="BackgroundImageFix" result="shape"/>
<feColorMatrix in="SourceAlpha" type="matrix" values="0 0 0 0 0 0 0 0 0 0 0 0 0 0 0 0 0 0 127 0" result="hardAlpha"/>
<feOffset dx="-0.1875" dy="0.1875"/>
<feGaussianBlur stdDeviation="0.09375"/>
<feComposite in2="hardAlpha" operator="arithmetic" k2="-1" k3="1"/>
<feColorMatrix type="matrix" values="0 0 0 0 0.219608 0 0 0 0 0.121569 0 0 0 0 0.329412 0 0 0 1 0"/>
<feBlend mode="normal" in2="shape" result="effect1_innerShadow_84_699"/>
</filter>
<filter id="filter5_f_84_699" x="0.230713" y="4.73022" width="5.90723" height="16.8494" filterUnits="userSpaceOnUse" color-interpolation-filters="sRGB">
<feFlood flood-opacity="0" result="BackgroundImageFix"/>
<feBlend mode="normal" in="SourceGraphic" in2="BackgroundImageFix" result="shape"/>
<feGaussianBlur stdDeviation="0.375" result="effect1_foregroundBlur_84_699"/>
</filter>
<linearGradient id="paint0_linear_84_699" x1="11.8125" y1="1.29872" x2="12.3032" y2="1.67593" gradientUnits="userSpaceOnUse">
<stop stop-color="#9EC44E"/>
<stop offset="1" stop-color="#9EC44E" stop-opacity="0"/>
</linearGradient>
<linearGradient id="paint1_linear_84_699" x1="13.8912" y1="2.58393" x2="13.1282" y2="2.58393" gradientUnits="userSpaceOnUse">
<stop stop-color="#C7EC76"/>
<stop offset="1" stop-color="#C7EC76" stop-opacity="0"/>
</linearGradient>
<radialGradient id="paint2_radial_84_699" cx="0" cy="0" r="1" gradientUnits="userSpaceOnUse" gradientTransform="translate(13.7613 0.212029) rotate(133.946) scale(0.624178 0.676159)">
<stop stop-color="#C4E973"/>
<stop offset="1" stop-color="#C4E973" stop-opacity="0"/>
</radialGradient>
<linearGradient id="paint3_linear_84_699" x1="12.0005" y1="3.0332" x2="13.6949" y2="28.0612" gradientUnits="userSpaceOnUse">
<stop stop-color="#FF7B3E"/>
<stop offset="1" stop-color="#F6586D"/>
</linearGradient>
<linearGradient id="paint4_linear_84_699" x1="0.657892" y1="11.0005" x2="3.28365" y2="11.7335" gradientUnits="userSpaceOnUse">
<stop stop-color="#E89B88"/>
<stop offset="1" stop-color="#E89B88" stop-opacity="0"/>
</linearGradient>
<radialGradient id="paint5_radial_84_699" cx="0" cy="0" r="1" gradientUnits="userSpaceOnUse" gradientTransform="translate(23.9992 9.10934) rotate(146.447) scale(13.5429 23.784)">
<stop stop-color="#FFA182"/>
<stop offset="1" stop-color="#FFA182" stop-opacity="0"/>
</radialGradient>
<radialGradient id="paint6_radial_84_699" cx="0" cy="0" r="1" gradientUnits="userSpaceOnUse" gradientTransform="translate(12.0005 15.016) rotate(-90) scale(7.4122 7.81065)">
<stop stop-color="#FF7F50"/>
<stop offset="1" stop-color="#FF7F50" stop-opacity="0"/>
</radialGradient>
<radialGradient id="paint7_radial_84_699" cx="0" cy="0" r="1" gradientUnits="userSpaceOnUse" gradientTransform="translate(0.293079 20.9594) rotate(-24.0479) scale(2.1635 4.26287)">
<stop stop-color="#CD7769"/>
<stop offset="1" stop-color="#CD7769" stop-opacity="0"/>
</radialGradient>
<linearGradient id="paint8_linear_84_699" x1="21.3683" y1="10.0927" x2="13.9327" y2="11.9117" gradientUnits="userSpaceOnUse">
<stop stop-color="#FFAB81"/>
<stop offset="1" stop-color="#FFAB81" stop-opacity="0"/>
</linearGradient>
<radialGradient id="paint9_radial_84_699" cx="0" cy="0" r="1" gradientUnits="userSpaceOnUse" gradientTransform="translate(8.35658 20.7306) rotate(-34.3059) scale(12.2822 8.15991)">
<stop stop-color="#694582"/>
<stop offset="1" stop-color="#462162"/>
</radialGradient>
<radialGradient id="paint10_radial_84_699" cx="0" cy="0" r="1" gradientUnits="userSpaceOnUse" gradientTransform="translate(13.6425 11.8344) rotate(116.594) scale(11.0049 9.73332)">
<stop offset="0.876" stop-color="#3B1652" stop-opacity="0"/>
<stop offset="1" stop-color="#3B1652"/>
</radialGradient>
<linearGradient id="paint11_linear_84_699" x1="15.6983" y1="10.0527" x2="16.0823" y2="10.3667" gradientUnits="userSpaceOnUse">
<stop stop-color="#501E76"/>
<stop offset="1" stop-color="#501E76" stop-opacity="0"/>
</linearGradient>
<radialGradient id="paint12_radial_84_699" cx="0" cy="0" r="1" gradientUnits="userSpaceOnUse" gradientTransform="translate(15.3296 11.4533) rotate(-50.0408) scale(1.66938 0.81156)">
<stop stop-color="#6F5384"/>
<stop offset="1" stop-color="#6F5384" stop-opacity="0"/>
</radialGradient>
<linearGradient id="paint13_linear_84_699" x1="6.28761" y1="10.0526" x2="6.67163" y2="10.3666" gradientUnits="userSpaceOnUse">
<stop stop-color="#501E76"/>
<stop offset="1" stop-color="#501E76" stop-opacity="0"/>
</linearGradient>
<radialGradient id="paint14_radial_84_699" cx="0" cy="0" r="1" gradientUnits="userSpaceOnUse" gradientTransform="translate(5.91853 11.453) rotate(-50.0408) scale(1.66938 0.81156)">
<stop stop-color="#6F5384"/>
<stop offset="1" stop-color="#6F5384" stop-opacity="0"/>
</radialGradient>
</defs>
</svg>
