<svg width="18" height="20" viewBox="0 0 18 20" fill="none" xmlns="http://www.w3.org/2000/svg">
<g id="Frame">
<g id="Group">
<path id="Vector" d="M3.80765 2.76758C3.80765 2.70956 3.83069 2.65392 3.87172 2.6129C3.91274 2.57187 3.96838 2.54883 4.0264 2.54883H6.1189C6.17691 2.54883 6.23255 2.57187 6.27358 2.6129C6.3146 2.65392 6.33765 2.70956 6.33765 2.76758V9.20695H3.8064L3.80765 2.76758Z" fill="url(#paint0_radial_121_291)"/>
<path id="Vector_2" d="M3.80765 2.76758C3.80765 2.70956 3.83069 2.65392 3.87172 2.6129C3.91274 2.57187 3.96838 2.54883 4.0264 2.54883H6.1189C6.17691 2.54883 6.23255 2.57187 6.27358 2.6129C6.3146 2.65392 6.33765 2.70956 6.33765 2.76758V9.20695H3.8064L3.80765 2.76758Z" fill="url(#paint1_linear_121_291)"/>
<path id="Vector_3" d="M3.80765 2.76758C3.80765 2.70956 3.83069 2.65392 3.87172 2.6129C3.91274 2.57187 3.96838 2.54883 4.0264 2.54883H6.1189C6.17691 2.54883 6.23255 2.57187 6.27358 2.6129C6.3146 2.65392 6.33765 2.70956 6.33765 2.76758V9.20695H3.8064L3.80765 2.76758Z" fill="url(#paint2_linear_121_291)"/>
<path id="Vector_4" d="M3.80765 2.76758C3.80765 2.70956 3.83069 2.65392 3.87172 2.6129C3.91274 2.57187 3.96838 2.54883 4.0264 2.54883H6.1189C6.17691 2.54883 6.23255 2.57187 6.27358 2.6129C6.3146 2.65392 6.33765 2.70956 6.33765 2.76758V9.20695H3.8064L3.80765 2.76758Z" fill="url(#paint3_linear_121_291)"/>
<path id="Vector_5" d="M3.80765 2.76758C3.80765 2.70956 3.83069 2.65392 3.87172 2.6129C3.91274 2.57187 3.96838 2.54883 4.0264 2.54883H6.1189C6.17691 2.54883 6.23255 2.57187 6.27358 2.6129C6.3146 2.65392 6.33765 2.70956 6.33765 2.76758V9.20695H3.8064L3.80765 2.76758Z" fill="url(#paint4_radial_121_291)"/>
<path id="Vector_6" d="M17.285 18.2251H2.90063V9.82327L10.0925 3.10327L17.285 9.8239V18.2251Z" fill="url(#paint5_linear_121_291)"/>
<path id="Vector_7" d="M17.285 18.2251H2.90063V9.82327L10.0925 3.10327L17.285 9.8239V18.2251Z" fill="url(#paint6_linear_121_291)"/>
<path id="Vector_8" d="M17.285 18.2251H2.90063V9.82327L10.0925 3.10327L17.285 9.8239V18.2251Z" fill="url(#paint7_radial_121_291)"/>
<path id="Vector_9" d="M17.285 18.2251H2.90063V9.82327L10.0925 3.10327L17.285 9.8239V18.2251Z" fill="url(#paint8_linear_121_291)"/>
<path id="Vector_10" d="M17.285 18.2251H2.90063V9.82327L10.0925 3.10327L17.285 9.8239V18.2251Z" fill="url(#paint9_radial_121_291)"/>
<path id="Vector_11" d="M17.285 18.2251H2.90063V9.82327L10.0925 3.10327L17.285 9.8239V18.2251Z" fill="url(#paint10_linear_121_291)"/>
<path id="Vector_12" d="M17.285 18.2251H2.90063V9.82327L10.0925 3.10327L17.285 9.8239V18.2251Z" fill="url(#paint11_linear_121_291)"/>
<g id="Group_2" filter="url(#filter0_f_121_291)">
<path id="Vector_13" d="M9.41628 18.2251H5.0769V11.3445C5.0769 10.8208 5.41003 10.3901 5.8144 10.3901H8.67878C9.08378 10.3901 9.41628 10.8208 9.41628 11.3445V18.2251Z" fill="url(#paint12_linear_121_291)"/>
</g>
<g id="Group_3" filter="url(#filter1_i_121_291)">
<path id="Vector_14" d="M14.7812 13.665H12.1624C12.0936 13.6651 12.0255 13.6516 11.9619 13.6253C11.8983 13.599 11.8405 13.5604 11.7919 13.5118C11.7432 13.4631 11.7047 13.4054 11.6784 13.3418C11.6521 13.2782 11.6386 13.2101 11.6387 13.1412V10.5237C11.6387 10.23 11.8774 10 12.1624 10H14.7799C15.0737 10 15.3037 10.2387 15.3037 10.5237V13.1412C15.3037 13.435 15.0743 13.665 14.7799 13.665" fill="url(#paint13_linear_121_291)"/>
<path id="Vector_15" d="M14.7812 13.665H12.1624C12.0936 13.6651 12.0255 13.6516 11.9619 13.6253C11.8983 13.599 11.8405 13.5604 11.7919 13.5118C11.7432 13.4631 11.7047 13.4054 11.6784 13.3418C11.6521 13.2782 11.6386 13.2101 11.6387 13.1412V10.5237C11.6387 10.23 11.8774 10 12.1624 10H14.7799C15.0737 10 15.3037 10.2387 15.3037 10.5237V13.1412C15.3037 13.435 15.0743 13.665 14.7799 13.665" fill="url(#paint14_linear_121_291)"/>
</g>
<path id="Vector_16" d="M14.7812 13.665H12.1624C12.0936 13.6651 12.0255 13.6516 11.9619 13.6253C11.8983 13.599 11.8405 13.5604 11.7919 13.5118C11.7432 13.4631 11.7047 13.4054 11.6784 13.3418C11.6521 13.2782 11.6386 13.2101 11.6387 13.1412V10.5237C11.6387 10.23 11.8774 10 12.1624 10H14.7799C15.0737 10 15.3037 10.2387 15.3037 10.5237V13.1412C15.3037 13.435 15.0743 13.665 14.7799 13.665" fill="url(#paint15_linear_121_291)"/>
<path id="Vector_17" d="M14.7812 13.665H12.1624C12.0936 13.6651 12.0255 13.6516 11.9619 13.6253C11.8983 13.599 11.8405 13.5604 11.7919 13.5118C11.7432 13.4631 11.7047 13.4054 11.6784 13.3418C11.6521 13.2782 11.6386 13.2101 11.6387 13.1412V10.5237C11.6387 10.23 11.8774 10 12.1624 10H14.7799C15.0737 10 15.3037 10.2387 15.3037 10.5237V13.1412C15.3037 13.435 15.0743 13.665 14.7799 13.665" fill="url(#paint16_linear_121_291)"/>
<g id="Group_4" filter="url(#filter2_ii_121_291)">
<path id="Vector_18" d="M10.1607 17.4363H5.32129V10.915C5.32129 10.4181 5.69191 10.01 6.14379 10.01H9.33754C9.78941 10.01 10.1607 10.4181 10.1607 10.915V17.4363Z" fill="url(#paint17_linear_121_291)"/>
</g>
<g id="Group_5" filter="url(#filter3_f_121_291)">
<path id="Vector_19" d="M8.94805 13.9208C9.04046 13.9208 9.12909 13.884 9.19443 13.8187C9.25977 13.7534 9.29648 13.6647 9.29648 13.5723C9.29648 13.4799 9.25977 13.3913 9.19443 13.3259C9.12909 13.2606 9.04046 13.2239 8.94805 13.2239C8.85564 13.2239 8.76701 13.2606 8.70166 13.3259C8.63632 13.3913 8.59961 13.4799 8.59961 13.5723C8.59961 13.6647 8.63632 13.7534 8.70166 13.8187C8.76701 13.884 8.85564 13.9208 8.94805 13.9208Z" fill="#62393D"/>
</g>
<g id="Group_6" filter="url(#filter4_ii_121_291)">
<path id="Vector_20" d="M9.03889 13.8683C9.13221 13.8683 9.22171 13.8312 9.2877 13.7652C9.35369 13.6992 9.39076 13.6097 9.39076 13.5164C9.39076 13.4231 9.35369 13.3336 9.2877 13.2676C9.22171 13.2016 9.13221 13.1646 9.03889 13.1646C8.94556 13.1646 8.85606 13.2016 8.79007 13.2676C8.72408 13.3336 8.68701 13.4231 8.68701 13.5164C8.68701 13.6097 8.72408 13.6992 8.79007 13.7652C8.85606 13.8312 8.94556 13.8683 9.03889 13.8683Z" fill="#895D56"/>
</g>
<path id="Vector_21" d="M18.5862 9.90448L10.6237 2.05948C10.4815 1.91773 10.2888 1.83813 10.088 1.83813C9.88725 1.83813 9.69464 1.91773 9.55242 2.05948C9.55242 2.05948 9.54367 2.05948 9.54367 2.06823L1.5643 9.92135C1.49409 9.99003 1.43831 10.072 1.40023 10.1626C1.36215 10.2531 1.34253 10.3503 1.34253 10.4485C1.34253 10.5468 1.36215 10.644 1.40023 10.7345C1.43831 10.825 1.49409 10.907 1.5643 10.9757C1.70746 11.1157 1.89972 11.194 2.09992 11.194C2.30013 11.194 2.49238 11.1157 2.63555 10.9757L9.97367 3.74385C10.0029 3.71503 10.0423 3.69888 10.0834 3.69888C10.1244 3.69888 10.1638 3.71503 10.193 3.74385L17.5068 10.9501C17.649 11.0919 17.8416 11.1714 18.0424 11.1714C18.2432 11.1714 18.4358 11.0919 18.578 10.9501C18.873 10.6545 18.8818 10.1901 18.5862 9.90385" fill="url(#paint18_linear_121_291)"/>
<path id="Vector_22" d="M18.5862 9.90448L10.6237 2.05948C10.4815 1.91773 10.2888 1.83813 10.088 1.83813C9.88725 1.83813 9.69464 1.91773 9.55242 2.05948C9.55242 2.05948 9.54367 2.05948 9.54367 2.06823L1.5643 9.92135C1.49409 9.99003 1.43831 10.072 1.40023 10.1626C1.36215 10.2531 1.34253 10.3503 1.34253 10.4485C1.34253 10.5468 1.36215 10.644 1.40023 10.7345C1.43831 10.825 1.49409 10.907 1.5643 10.9757C1.70746 11.1157 1.89972 11.194 2.09992 11.194C2.30013 11.194 2.49238 11.1157 2.63555 10.9757L9.97367 3.74385C10.0029 3.71503 10.0423 3.69888 10.0834 3.69888C10.1244 3.69888 10.1638 3.71503 10.193 3.74385L17.5068 10.9501C17.649 11.0919 17.8416 11.1714 18.0424 11.1714C18.2432 11.1714 18.4358 11.0919 18.578 10.9501C18.873 10.6545 18.8818 10.1901 18.5862 9.90385" fill="url(#paint19_radial_121_291)"/>
<g id="Group_7" filter="url(#filter5_f_121_291)">
<path id="Vector_23" d="M4.59888 17.0488H10.0001V17.7563H4.59888V17.0488Z" fill="#68552B"/>
</g>
<g id="Group_8" filter="url(#filter6_i_121_291)">
<path id="Vector_24" d="M1.34253 18.7076C1.34253 18.0095 1.90878 17.4438 2.60628 17.4438H17.54C18.2375 17.4438 18.8038 18.0095 18.8038 18.7076H1.34253Z" fill="url(#paint20_linear_121_291)"/>
</g>
<path id="Vector_25" d="M1.34253 18.7076C1.34253 18.0095 1.90878 17.4438 2.60628 17.4438H17.54C18.2375 17.4438 18.8038 18.0095 18.8038 18.7076H1.34253Z" fill="url(#paint21_linear_121_291)"/>
<path id="Vector_26" d="M1.34253 18.7076C1.34253 18.0095 1.90878 17.4438 2.60628 17.4438H17.54C18.2375 17.4438 18.8038 18.0095 18.8038 18.7076H1.34253Z" fill="url(#paint22_radial_121_291)"/>
<path id="Vector_27" d="M4.72681 17.3613C4.72681 17.237 4.77619 17.1178 4.8641 17.0299C4.95201 16.942 5.07124 16.8926 5.19556 16.8926H10.2037C10.5081 16.8926 10.7549 17.1395 10.7549 17.4438H4.72681V17.3613Z" fill="url(#paint23_linear_121_291)"/>
<path id="Vector_28" d="M4.72681 17.3613C4.72681 17.237 4.77619 17.1178 4.8641 17.0299C4.95201 16.942 5.07124 16.8926 5.19556 16.8926H10.2037C10.5081 16.8926 10.7549 17.1395 10.7549 17.4438H4.72681V17.3613Z" fill="url(#paint24_linear_121_291)"/>
<path id="Vector_29" d="M4.72681 17.3613C4.72681 17.237 4.77619 17.1178 4.8641 17.0299C4.95201 16.942 5.07124 16.8926 5.19556 16.8926H10.2037C10.5081 16.8926 10.7549 17.1395 10.7549 17.4438H4.72681V17.3613Z" fill="url(#paint25_linear_121_291)"/>
<g id="Group_9" filter="url(#filter7_f_121_291)">
<path id="Vector_30" d="M10.2119 2.43579L18.1969 10.2983" stroke="url(#paint26_linear_121_291)" stroke-width="0.1125" stroke-linecap="round"/>
</g>
<g id="Group_10" filter="url(#filter8_f_121_291)">
<path id="Vector_31" d="M10.2119 2.43579L2.22632 10.2983" stroke="url(#paint27_linear_121_291)" stroke-opacity="0.5" stroke-width="0.1125" stroke-linecap="round"/>
</g>
</g>
</g>
<defs>
<filter id="filter0_f_121_291" x="4.8894" y="10.2026" width="4.71436" height="8.20996" filterUnits="userSpaceOnUse" color-interpolation-filters="sRGB">
<feFlood flood-opacity="0" result="BackgroundImageFix"/>
<feBlend mode="normal" in="SourceGraphic" in2="BackgroundImageFix" result="shape"/>
<feGaussianBlur stdDeviation="0.09375" result="effect1_foregroundBlur_121_291"/>
</filter>
<filter id="filter1_i_121_291" x="11.4512" y="10" width="3.85254" height="3.85254" filterUnits="userSpaceOnUse" color-interpolation-filters="sRGB">
<feFlood flood-opacity="0" result="BackgroundImageFix"/>
<feBlend mode="normal" in="SourceGraphic" in2="BackgroundImageFix" result="shape"/>
<feColorMatrix in="SourceAlpha" type="matrix" values="0 0 0 0 0 0 0 0 0 0 0 0 0 0 0 0 0 0 127 0" result="hardAlpha"/>
<feOffset dx="-0.1875" dy="0.1875"/>
<feGaussianBlur stdDeviation="0.09375"/>
<feComposite in2="hardAlpha" operator="arithmetic" k2="-1" k3="1"/>
<feColorMatrix type="matrix" values="0 0 0 0 0.0470588 0 0 0 0 0.47451 0 0 0 0 0.792157 0 0 0 1 0"/>
<feBlend mode="normal" in2="shape" result="effect1_innerShadow_121_291"/>
</filter>
<filter id="filter2_ii_121_291" x="5.24629" y="10.01" width="5.00811" height="7.42627" filterUnits="userSpaceOnUse" color-interpolation-filters="sRGB">
<feFlood flood-opacity="0" result="BackgroundImageFix"/>
<feBlend mode="normal" in="SourceGraphic" in2="BackgroundImageFix" result="shape"/>
<feColorMatrix in="SourceAlpha" type="matrix" values="0 0 0 0 0 0 0 0 0 0 0 0 0 0 0 0 0 0 127 0" result="hardAlpha"/>
<feOffset dx="0.09375"/>
<feGaussianBlur stdDeviation="0.09375"/>
<feComposite in2="hardAlpha" operator="arithmetic" k2="-1" k3="1"/>
<feColorMatrix type="matrix" values="0 0 0 0 0.254902 0 0 0 0 0.188235 0 0 0 0 0.141176 0 0 0 1 0"/>
<feBlend mode="normal" in2="shape" result="effect1_innerShadow_121_291"/>
<feColorMatrix in="SourceAlpha" type="matrix" values="0 0 0 0 0 0 0 0 0 0 0 0 0 0 0 0 0 0 127 0" result="hardAlpha"/>
<feOffset dx="-0.075"/>
<feGaussianBlur stdDeviation="0.05625"/>
<feComposite in2="hardAlpha" operator="arithmetic" k2="-1" k3="1"/>
<feColorMatrix type="matrix" values="0 0 0 0 0.694118 0 0 0 0 0.470588 0 0 0 0 0.407843 0 0 0 1 0"/>
<feBlend mode="normal" in2="effect1_innerShadow_121_291" result="effect2_innerShadow_121_291"/>
</filter>
<filter id="filter3_f_121_291" x="8.54336" y="13.1676" width="0.809277" height="0.809277" filterUnits="userSpaceOnUse" color-interpolation-filters="sRGB">
<feFlood flood-opacity="0" result="BackgroundImageFix"/>
<feBlend mode="normal" in="SourceGraphic" in2="BackgroundImageFix" result="shape"/>
<feGaussianBlur stdDeviation="0.028125" result="effect1_foregroundBlur_121_291"/>
</filter>
<filter id="filter4_ii_121_291" x="8.64951" y="13.1646" width="0.778857" height="0.703857" filterUnits="userSpaceOnUse" color-interpolation-filters="sRGB">
<feFlood flood-opacity="0" result="BackgroundImageFix"/>
<feBlend mode="normal" in="SourceGraphic" in2="BackgroundImageFix" result="shape"/>
<feColorMatrix in="SourceAlpha" type="matrix" values="0 0 0 0 0 0 0 0 0 0 0 0 0 0 0 0 0 0 127 0" result="hardAlpha"/>
<feOffset dx="-0.0375"/>
<feGaussianBlur stdDeviation="0.0375"/>
<feComposite in2="hardAlpha" operator="arithmetic" k2="-1" k3="1"/>
<feColorMatrix type="matrix" values="0 0 0 0 0.694118 0 0 0 0 0.482353 0 0 0 0 0.419608 0 0 0 1 0"/>
<feBlend mode="normal" in2="shape" result="effect1_innerShadow_121_291"/>
<feColorMatrix in="SourceAlpha" type="matrix" values="0 0 0 0 0 0 0 0 0 0 0 0 0 0 0 0 0 0 127 0" result="hardAlpha"/>
<feOffset dx="0.0375"/>
<feGaussianBlur stdDeviation="0.0375"/>
<feComposite in2="hardAlpha" operator="arithmetic" k2="-1" k3="1"/>
<feColorMatrix type="matrix" values="0 0 0 0 0.290196 0 0 0 0 0.184314 0 0 0 0 0.164706 0 0 0 1 0"/>
<feBlend mode="normal" in2="effect1_innerShadow_121_291" result="effect2_innerShadow_121_291"/>
</filter>
<filter id="filter5_f_121_291" x="4.41138" y="16.8613" width="5.77637" height="1.08252" filterUnits="userSpaceOnUse" color-interpolation-filters="sRGB">
<feFlood flood-opacity="0" result="BackgroundImageFix"/>
<feBlend mode="normal" in="SourceGraphic" in2="BackgroundImageFix" result="shape"/>
<feGaussianBlur stdDeviation="0.09375" result="effect1_foregroundBlur_121_291"/>
</filter>
<filter id="filter6_i_121_291" x="1.34253" y="17.4438" width="17.6487" height="1.26367" filterUnits="userSpaceOnUse" color-interpolation-filters="sRGB">
<feFlood flood-opacity="0" result="BackgroundImageFix"/>
<feBlend mode="normal" in="SourceGraphic" in2="BackgroundImageFix" result="shape"/>
<feColorMatrix in="SourceAlpha" type="matrix" values="0 0 0 0 0 0 0 0 0 0 0 0 0 0 0 0 0 0 127 0" result="hardAlpha"/>
<feOffset dx="0.1875"/>
<feGaussianBlur stdDeviation="0.1875"/>
<feComposite in2="hardAlpha" operator="arithmetic" k2="-1" k3="1"/>
<feColorMatrix type="matrix" values="0 0 0 0 0.25098 0 0 0 0 0.545098 0 0 0 0 0.352941 0 0 0 1 0"/>
<feBlend mode="normal" in2="shape" result="effect1_innerShadow_121_291"/>
</filter>
<filter id="filter7_f_121_291" x="9.93076" y="2.15464" width="8.54741" height="8.42485" filterUnits="userSpaceOnUse" color-interpolation-filters="sRGB">
<feFlood flood-opacity="0" result="BackgroundImageFix"/>
<feBlend mode="normal" in="SourceGraphic" in2="BackgroundImageFix" result="shape"/>
<feGaussianBlur stdDeviation="0.1125" result="effect1_foregroundBlur_121_291"/>
</filter>
<filter id="filter8_f_121_291" x="1.94517" y="2.15464" width="8.54814" height="8.42485" filterUnits="userSpaceOnUse" color-interpolation-filters="sRGB">
<feFlood flood-opacity="0" result="BackgroundImageFix"/>
<feBlend mode="normal" in="SourceGraphic" in2="BackgroundImageFix" result="shape"/>
<feGaussianBlur stdDeviation="0.1125" result="effect1_foregroundBlur_121_291"/>
</filter>
<radialGradient id="paint0_radial_121_291" cx="0" cy="0" r="1" gradientUnits="userSpaceOnUse" gradientTransform="translate(5.99577 2.92133) rotate(90) scale(2.95626 1.61363)">
<stop stop-color="#F1B379"/>
<stop offset="1" stop-color="#CD915F"/>
</radialGradient>
<linearGradient id="paint1_linear_121_291" x1="3.63265" y1="5.1207" x2="4.6914" y2="5.1207" gradientUnits="userSpaceOnUse">
<stop stop-color="#8E694B"/>
<stop offset="1" stop-color="#8E694B" stop-opacity="0"/>
</linearGradient>
<linearGradient id="paint2_linear_121_291" x1="6.01577" y1="6.60195" x2="5.22952" y2="4.92633" gradientUnits="userSpaceOnUse">
<stop stop-color="#9F6A42"/>
<stop offset="1" stop-color="#9F6A42" stop-opacity="0"/>
</linearGradient>
<linearGradient id="paint3_linear_121_291" x1="5.07265" y1="2.51258" x2="5.07265" y2="2.62133" gradientUnits="userSpaceOnUse">
<stop stop-color="#D5AD80"/>
<stop offset="1" stop-color="#D5AD80" stop-opacity="0"/>
</linearGradient>
<radialGradient id="paint4_radial_121_291" cx="0" cy="0" r="1" gradientUnits="userSpaceOnUse" gradientTransform="translate(6.63452 2.66883) rotate(180) scale(1.75314 0.342769)">
<stop stop-color="#FFCB8C"/>
<stop offset="1" stop-color="#FFCB8C" stop-opacity="0"/>
</radialGradient>
<linearGradient id="paint5_linear_121_291" x1="3.42376" y1="12.9858" x2="16.8881" y2="12.9858" gradientUnits="userSpaceOnUse">
<stop stop-color="#D7905F"/>
<stop offset="1" stop-color="#E8BC97"/>
</linearGradient>
<linearGradient id="paint6_linear_121_291" x1="3.80188" y1="18.5758" x2="8.61938" y2="11.1595" gradientUnits="userSpaceOnUse">
<stop stop-color="#BA8951"/>
<stop offset="1" stop-color="#BA8951" stop-opacity="0"/>
</linearGradient>
<radialGradient id="paint7_radial_121_291" cx="0" cy="0" r="1" gradientUnits="userSpaceOnUse" gradientTransform="translate(12.8525 17.7376) rotate(-118.804) scale(2.39872 3.01057)">
<stop stop-color="#BEAB75"/>
<stop offset="1" stop-color="#BEAB75" stop-opacity="0"/>
</radialGradient>
<linearGradient id="paint8_linear_121_291" x1="17.285" y1="15.0476" x2="16.8231" y2="15.0476" gradientUnits="userSpaceOnUse">
<stop stop-color="#FFE6B1"/>
<stop offset="1" stop-color="#FFE6B1" stop-opacity="0"/>
</linearGradient>
<radialGradient id="paint9_radial_121_291" cx="0" cy="0" r="1" gradientUnits="userSpaceOnUse" gradientTransform="translate(17.455 9.32265) rotate(90) scale(2.94818 0.666231)">
<stop offset="0.35" stop-color="#9E413E"/>
<stop offset="1" stop-color="#9E413E" stop-opacity="0"/>
</radialGradient>
<linearGradient id="paint10_linear_121_291" x1="12.6413" y1="5.62827" x2="11.9231" y2="6.36265" gradientUnits="userSpaceOnUse">
<stop stop-color="#B55852"/>
<stop offset="1" stop-color="#B55852" stop-opacity="0"/>
</linearGradient>
<linearGradient id="paint11_linear_121_291" x1="2.81188" y1="16.4908" x2="3.30313" y2="16.4908" gradientUnits="userSpaceOnUse">
<stop stop-color="#845F3D"/>
<stop offset="1" stop-color="#845F3D" stop-opacity="0"/>
</linearGradient>
<linearGradient id="paint12_linear_121_291" x1="7.2469" y1="10.3908" x2="7.2469" y2="18.2245" gradientUnits="userSpaceOnUse">
<stop stop-color="#805139"/>
<stop offset="1" stop-color="#6D4D2F"/>
</linearGradient>
<linearGradient id="paint13_linear_121_291" x1="11.6393" y1="13.9425" x2="15.5943" y2="10" gradientUnits="userSpaceOnUse">
<stop stop-color="#4CCCFF"/>
<stop offset="1" stop-color="#3A9EE6"/>
</linearGradient>
<linearGradient id="paint14_linear_121_291" x1="13.4718" y1="13.895" x2="13.4718" y2="13.1738" gradientUnits="userSpaceOnUse">
<stop stop-color="#1E9FE4"/>
<stop offset="1" stop-color="#1E9FE4" stop-opacity="0"/>
</linearGradient>
<linearGradient id="paint15_linear_121_291" x1="11.6393" y1="12.7338" x2="12.3755" y2="12.7338" gradientUnits="userSpaceOnUse">
<stop stop-color="#48E0FF"/>
<stop offset="1" stop-color="#48E0FF" stop-opacity="0"/>
</linearGradient>
<linearGradient id="paint16_linear_121_291" x1="12.1937" y1="9.35875" x2="12.6868" y2="10.8381" gradientUnits="userSpaceOnUse">
<stop stop-color="#43B3F2"/>
<stop offset="1" stop-color="#43B3F2" stop-opacity="0"/>
</linearGradient>
<linearGradient id="paint17_linear_121_291" x1="5.32129" y1="14.6675" x2="10.1607" y2="14.6394" gradientUnits="userSpaceOnUse">
<stop stop-color="#70504D"/>
<stop offset="1" stop-color="#9B665E"/>
</linearGradient>
<linearGradient id="paint18_linear_121_291" x1="10.073" y1="1.83823" x2="10.073" y2="11.1939" gradientUnits="userSpaceOnUse">
<stop stop-color="#EA6D2E"/>
<stop offset="1" stop-color="#CA222B"/>
</linearGradient>
<radialGradient id="paint19_radial_121_291" cx="0" cy="0" r="1" gradientUnits="userSpaceOnUse" gradientTransform="translate(10.5982 1.20594) rotate(97.326) scale(2.25331 4.20543)">
<stop stop-color="#FF853F"/>
<stop offset="1" stop-color="#FF853F" stop-opacity="0"/>
</radialGradient>
<linearGradient id="paint20_linear_121_291" x1="18.3207" y1="18.7076" x2="0.898779" y2="18.7076" gradientUnits="userSpaceOnUse">
<stop stop-color="#3FD47B"/>
<stop offset="1" stop-color="#40DC7F"/>
</linearGradient>
<linearGradient id="paint21_linear_121_291" x1="10.0732" y1="19.0426" x2="10.0732" y2="18.0757" gradientUnits="userSpaceOnUse">
<stop offset="0.107" stop-color="#3FD17B"/>
<stop offset="1" stop-color="#3FD17B" stop-opacity="0"/>
</linearGradient>
<radialGradient id="paint22_radial_121_291" cx="0" cy="0" r="1" gradientUnits="userSpaceOnUse" gradientTransform="translate(18.8038 17.262) rotate(147.147) scale(2.09486 3.43506)">
<stop stop-color="#5CEE92"/>
<stop offset="1" stop-color="#5CEE92" stop-opacity="0"/>
</radialGradient>
<linearGradient id="paint23_linear_121_291" x1="4.88931" y1="17.4438" x2="10.5349" y2="17.4438" gradientUnits="userSpaceOnUse">
<stop stop-color="#9FA1A3"/>
<stop offset="1" stop-color="#C4C1C7"/>
</linearGradient>
<linearGradient id="paint24_linear_121_291" x1="4.62556" y1="17.4438" x2="5.34431" y2="17.4438" gradientUnits="userSpaceOnUse">
<stop stop-color="#59675C"/>
<stop offset="1" stop-color="#59675C" stop-opacity="0"/>
</linearGradient>
<linearGradient id="paint25_linear_121_291" x1="10.7549" y1="17.1682" x2="9.80993" y2="17.7557" gradientUnits="userSpaceOnUse">
<stop stop-color="#E3DADD"/>
<stop offset="1" stop-color="#E3DADD" stop-opacity="0"/>
</linearGradient>
<linearGradient id="paint26_linear_121_291" x1="9.96629" y1="2.31392" x2="18.5313" y2="11.1314" gradientUnits="userSpaceOnUse">
<stop stop-color="#FF8337"/>
<stop offset="1" stop-color="#F24747"/>
</linearGradient>
<linearGradient id="paint27_linear_121_291" x1="10.4569" y1="2.31392" x2="1.89194" y2="11.1314" gradientUnits="userSpaceOnUse">
<stop stop-color="#FF8337"/>
<stop offset="1" stop-color="#F24747"/>
</linearGradient>
</defs>
</svg>
