<svg width="21" height="20" viewBox="0 0 21 20" fill="none" xmlns="http://www.w3.org/2000/svg">
<g id="Group">
<path id="Vector" d="M17.9003 0.347534H3.06526C1.6062 0.347534 0.420258 1.48191 0.420258 2.87753V17.0675C0.420258 18.4632 1.6062 19.5975 3.06526 19.5975H17.9003C19.3593 19.5975 20.5453 18.4632 20.5453 17.0675V2.87753C20.5453 1.48191 19.3593 0.347534 17.9003 0.347534Z" fill="url(#paint0_linear_862_883)"/>
<path id="Vector_2" d="M17.9003 0.347534H3.06526C1.6062 0.347534 0.420258 1.48191 0.420258 2.87753V17.0675C0.420258 18.4632 1.6062 19.5975 3.06526 19.5975H17.9003C19.3593 19.5975 20.5453 18.4632 20.5453 17.0675V2.87753C20.5453 1.48191 19.3593 0.347534 17.9003 0.347534Z" fill="url(#paint1_linear_862_883)"/>
<path id="Vector_3" d="M17.9003 0.347534H3.06526C1.6062 0.347534 0.420258 1.48191 0.420258 2.87753V17.0675C0.420258 18.4632 1.6062 19.5975 3.06526 19.5975H17.9003C19.3593 19.5975 20.5453 18.4632 20.5453 17.0675V2.87753C20.5453 1.48191 19.3593 0.347534 17.9003 0.347534Z" fill="url(#paint2_linear_862_883)"/>
<g id="Group_2" filter="url(#filter0_f_862_883)">
<path id="Vector_4" d="M18.7477 1.84692H18.7469C18.3393 1.84692 18.0088 2.16304 18.0088 2.55299V16.6515C18.0088 17.0415 18.3393 17.3576 18.7469 17.3576H18.7477C19.1553 17.3576 19.4858 17.0415 19.4858 16.6515V2.55299C19.4858 2.16304 19.1553 1.84692 18.7477 1.84692Z" fill="url(#paint3_linear_862_883)"/>
</g>
<path id="Vector_5" d="M10.4828 11.3104C10.8611 11.3104 11.1677 11.017 11.1677 10.6552C11.1677 10.2933 10.8611 10 10.4828 10C10.1045 10 9.79779 10.2933 9.79779 10.6552C9.79779 11.017 10.1045 11.3104 10.4828 11.3104Z" fill="url(#paint4_radial_862_883)"/>
<path id="Vector_6" d="M10.8644 3.81259C10.8644 3.60186 10.686 3.43103 10.4659 3.43103C10.2458 3.43103 10.0673 3.60186 10.0673 3.81259V5.89641C10.0673 6.10714 10.2458 6.27797 10.4659 6.27797C10.686 6.27797 10.8644 6.10714 10.8644 5.89641V3.81259Z" fill="url(#paint5_linear_862_883)"/>
<path id="Vector_7" d="M5.94738 5.46738C5.7916 5.31837 5.53914 5.31826 5.3835 5.46713C5.22786 5.61601 5.22797 5.85749 5.38375 6.0065L6.92421 7.47998C7.07999 7.62899 7.33245 7.6291 7.48809 7.48022C7.64373 7.33135 7.64362 7.08986 7.48784 6.94085L5.94738 5.46738Z" fill="url(#paint6_linear_862_883)"/>
<path id="Vector_8" d="M6.02594 15.1803C5.87015 15.3293 5.61769 15.3294 5.46205 15.1806C5.30641 15.0317 5.30652 14.7902 5.46231 14.6412L7.00276 13.1677C7.15854 13.0187 7.411 13.0186 7.56664 13.1675C7.72229 13.3164 7.72217 13.5578 7.56639 13.7069L6.02594 15.1803Z" fill="url(#paint7_radial_862_883)"/>
<path id="Vector_9" d="M15.0176 5.46664C15.1734 5.31763 15.4258 5.31752 15.5815 5.4664C15.7371 5.61527 15.737 5.85676 15.5812 6.00577L14.0408 7.47925C13.885 7.62825 13.6325 7.62836 13.4769 7.47949C13.3212 7.33061 13.3214 7.08913 13.4771 6.94012L15.0176 5.46664Z" fill="url(#paint8_radial_862_883)"/>
<path id="Vector_10" d="M14.9508 15.1808C15.1066 15.3298 15.359 15.3299 15.5147 15.1811C15.6703 15.0322 15.6702 14.7907 15.5144 14.6417L13.974 13.1682C13.8182 13.0192 13.5657 13.0191 13.4101 13.168C13.2544 13.3168 13.2545 13.5583 13.4103 13.7073L14.9508 15.1808Z" fill="url(#paint9_linear_862_883)"/>
<path id="Vector_11" d="M3.71429 9.97328C3.49398 9.97328 3.31538 10.144 3.31538 10.3545C3.31538 10.565 3.49398 10.7357 3.71429 10.7357H5.89282C6.11313 10.7357 6.29173 10.565 6.29173 10.3545C6.29173 10.144 6.11313 9.97328 5.89282 9.97328H3.71429Z" fill="url(#paint10_radial_862_883)"/>
<path id="Vector_12" d="M17.2512 9.97328C17.4715 9.97328 17.6501 10.144 17.6501 10.3545C17.6501 10.565 17.4715 10.7357 17.2512 10.7357H15.0727C14.8524 10.7357 14.6738 10.565 14.6738 10.3545C14.6738 10.144 14.8524 9.97328 15.0727 9.97328H17.2512Z" fill="url(#paint11_radial_862_883)"/>
<path id="Vector_13" d="M10.8644 2.22849C10.8644 2.01776 10.686 1.84692 10.4659 1.84692C10.2458 1.84692 10.0673 2.01776 10.0673 2.22849V2.71661C10.0673 2.92734 10.2458 3.09817 10.4659 3.09817C10.686 3.09817 10.8644 2.92734 10.8644 2.71661V2.22849Z" fill="url(#paint12_linear_862_883)"/>
<path id="Vector_14" d="M4.76483 4.34347C4.60905 4.19446 4.35659 4.19436 4.20094 4.34323C4.0453 4.49211 4.04542 4.73359 4.2012 4.8826L4.56204 5.22775C4.71783 5.37676 4.97029 5.37687 5.12593 5.228C5.28157 5.07912 5.28146 4.83764 5.12567 4.68863L4.76483 4.34347Z" fill="url(#paint13_linear_862_883)"/>
<path id="Vector_15" d="M4.84321 16.3041C4.68743 16.4531 4.43497 16.4532 4.27933 16.3044C4.12369 16.1555 4.1238 15.914 4.27958 15.765L4.64043 15.4198C4.79621 15.2708 5.04867 15.2707 5.20431 15.4196C5.35995 15.5685 5.35984 15.8099 5.20406 15.959L4.84321 16.3041Z" fill="url(#paint14_radial_862_883)"/>
<path id="Vector_16" d="M16.2006 4.3436C16.3564 4.19459 16.6089 4.19448 16.7645 4.34335C16.9202 4.49223 16.92 4.73371 16.7643 4.88272L16.4034 5.22788C16.2476 5.37689 15.9952 5.377 15.8395 5.22812C15.6839 5.07924 15.684 4.83776 15.8398 4.68875L16.2006 4.3436Z" fill="url(#paint15_radial_862_883)"/>
<path id="Vector_17" d="M16.1331 16.3042C16.2889 16.4532 16.5414 16.4534 16.697 16.3045C16.8526 16.1556 16.8525 15.9141 16.6968 15.7651L16.3359 15.4199C16.1801 15.2709 15.9277 15.2708 15.772 15.4197C15.6164 15.5686 15.6165 15.8101 15.7723 15.9591L16.1331 16.3042Z" fill="url(#paint16_linear_862_883)"/>
<path id="Vector_18" d="M2.04751 9.97877C1.8272 9.97877 1.64861 10.1495 1.64861 10.36C1.64861 10.5705 1.8272 10.7412 2.04751 10.7412H2.55783C2.77813 10.7412 2.95673 10.5705 2.95673 10.36C2.95673 10.1495 2.77813 9.97877 2.55783 9.97877H2.04751Z" fill="url(#paint17_radial_862_883)"/>
<path id="Vector_19" d="M18.918 9.97877C19.1383 9.97877 19.3169 10.1495 19.3169 10.36C19.3169 10.5705 19.1383 10.7412 18.918 10.7412H18.4077C18.1874 10.7412 18.0088 10.5705 18.0088 10.36C18.0088 10.1495 18.1874 9.97877 18.4077 9.97877H18.918Z" fill="url(#paint18_radial_862_883)"/>
<path id="Vector_20" d="M10.0673 12.4269C10.0673 12.3232 10.1104 12.2238 10.187 12.1505C10.2636 12.0772 10.3676 12.036 10.4759 12.036C10.5843 12.036 10.6882 12.0772 10.7649 12.1505C10.8415 12.2238 10.8845 12.3232 10.8845 12.4269V19.5975H10.0673V12.4269Z" fill="url(#paint19_linear_862_883)"/>
<path id="Vector_21" d="M8.06776 6.0373C8.04752 5.99298 8.03675 5.94524 8.0361 5.89688C8.03545 5.84852 8.04493 5.80053 8.06398 5.75573C8.08302 5.71093 8.11125 5.67023 8.147 5.63604C8.18275 5.60184 8.2253 5.57483 8.27213 5.55661C8.31897 5.53839 8.36914 5.52932 8.4197 5.52994C8.47025 5.53056 8.52017 5.54085 8.5665 5.56021C8.61283 5.57957 8.65464 5.60761 8.68947 5.64267C8.72429 5.67773 8.75142 5.71911 8.76926 5.76436L10.1565 9.02792C10.1767 9.07224 10.1875 9.11998 10.1881 9.16834C10.1888 9.2167 10.1793 9.26469 10.1602 9.30949C10.1412 9.35429 10.113 9.39499 10.0772 9.42918C10.0415 9.46338 9.99892 9.49039 9.95208 9.50861C9.90525 9.52683 9.85507 9.5359 9.80452 9.53528C9.75396 9.53466 9.70405 9.52437 9.65772 9.50501C9.61138 9.48565 9.56958 9.45761 9.53475 9.42255C9.49993 9.38749 9.47279 9.34611 9.45495 9.30086L8.06776 6.0373Z" fill="url(#paint20_linear_862_883)"/>
<path id="Vector_22" d="M5.56076 8.8588C5.51506 8.83758 5.47429 8.80779 5.44088 8.7712C5.40746 8.73461 5.38208 8.69196 5.36624 8.6458C5.35041 8.59963 5.34444 8.55089 5.3487 8.50247C5.35296 8.45406 5.36735 8.40696 5.39103 8.36397C5.4147 8.32099 5.44718 8.28299 5.48651 8.25226C5.52585 8.22152 5.57125 8.19866 5.62001 8.18505C5.66877 8.17143 5.7199 8.16734 5.77034 8.17301C5.82079 8.17868 5.86953 8.19399 5.91367 8.21805L9.16313 9.85705C9.24854 9.90359 9.31168 9.98007 9.33922 10.0703C9.36677 10.1606 9.35655 10.2575 9.31074 10.3407C9.26492 10.4239 9.1871 10.4868 9.0937 10.5161C9.00031 10.5454 8.89866 10.5388 8.81023 10.4978L5.56076 8.8588Z" fill="url(#paint21_linear_862_883)"/>
<path id="Vector_23" d="M15.376 8.82653C15.4614 8.77998 15.5246 8.7035 15.5521 8.61325C15.5796 8.523 15.5694 8.42604 15.5236 8.34285C15.4778 8.25967 15.4 8.19678 15.3066 8.16747C15.2132 8.13816 15.1115 8.14472 15.0231 8.18578L11.7744 9.82478C11.7287 9.84599 11.6879 9.87578 11.6545 9.91237C11.6211 9.94896 11.5957 9.99161 11.5798 10.0378C11.564 10.0839 11.558 10.1327 11.5623 10.1811C11.5665 10.2295 11.5809 10.2766 11.6046 10.3196C11.6283 10.3626 11.6608 10.4006 11.7001 10.4313C11.7394 10.4621 11.7848 10.4849 11.8336 10.4985C11.8824 10.5121 11.9335 10.5162 11.9839 10.5106C12.0344 10.5049 12.0831 10.4896 12.1273 10.4655L15.376 8.82653Z" fill="url(#paint22_radial_862_883)"/>
<path id="Vector_24" d="M15.4457 12.0481C15.5396 12.0762 15.6183 12.1381 15.6653 12.2207C15.7123 12.3034 15.7238 12.4002 15.6975 12.4909C15.6712 12.5815 15.609 12.6588 15.5242 12.7064C15.4394 12.754 15.3386 12.7682 15.243 12.7459L11.7039 11.8054C11.6546 11.7939 11.6081 11.7731 11.5674 11.7441C11.5267 11.7151 11.4924 11.6786 11.4667 11.6367C11.441 11.5948 11.4244 11.5484 11.4178 11.5003C11.4113 11.4521 11.4149 11.4032 11.4285 11.3564C11.4421 11.3096 11.4653 11.2659 11.497 11.2279C11.5286 11.1899 11.5678 11.1583 11.6124 11.1351C11.657 11.1119 11.7061 11.0975 11.7566 11.0928C11.8071 11.0881 11.8581 11.0931 11.9066 11.1076L15.4457 12.0481Z" fill="url(#paint23_linear_862_883)"/>
<path id="Vector_25" d="M5.46013 12.075C5.36339 12.1007 5.28129 12.1621 5.23189 12.2457C5.18248 12.3293 5.16983 12.4283 5.19671 12.5208C5.22359 12.6133 5.2878 12.6919 5.37521 12.7391C5.46262 12.7864 5.56608 12.7985 5.66282 12.7728L9.20194 11.8323C9.25128 11.8208 9.2977 11.8 9.33845 11.771C9.37919 11.742 9.41343 11.7055 9.43913 11.6636C9.46482 11.6217 9.48145 11.5753 9.48802 11.5271C9.4946 11.479 9.49098 11.43 9.47739 11.3832C9.46379 11.3364 9.4405 11.2927 9.4089 11.2547C9.3773 11.2167 9.33803 11.1852 9.29342 11.162C9.24882 11.1388 9.19979 11.1244 9.14926 11.1196C9.09872 11.1149 9.04771 11.12 8.99926 11.1345L5.46013 12.075Z" fill="url(#paint24_linear_862_883)"/>
<path id="Vector_26" d="M5.46013 12.075C5.36339 12.1007 5.28129 12.1621 5.23189 12.2457C5.18248 12.3293 5.16983 12.4283 5.19671 12.5208C5.22359 12.6133 5.2878 12.6919 5.37521 12.7391C5.46262 12.7864 5.56608 12.7985 5.66282 12.7728L9.20194 11.8323C9.25128 11.8208 9.2977 11.8 9.33845 11.771C9.37919 11.742 9.41343 11.7055 9.43913 11.6636C9.46482 11.6217 9.48145 11.5753 9.48802 11.5271C9.4946 11.479 9.49098 11.43 9.47739 11.3832C9.46379 11.3364 9.4405 11.2927 9.4089 11.2547C9.3773 11.2167 9.33803 11.1852 9.29342 11.162C9.24882 11.1388 9.19979 11.1244 9.14926 11.1196C9.09872 11.1149 9.04771 11.12 8.99926 11.1345L5.46013 12.075Z" fill="url(#paint25_radial_862_883)"/>
<path id="Vector_27" d="M8.01097 14.8751C7.98973 14.918 7.97754 14.9646 7.9751 15.012C7.97265 15.0594 7.98 15.1069 7.99672 15.1516C8.01344 15.1963 8.0392 15.2374 8.07254 15.2726C8.10588 15.3078 8.14614 15.3364 8.19102 15.3567C8.2359 15.377 8.28452 15.3887 8.33412 15.391C8.38371 15.3934 8.4333 15.3863 8.48005 15.3703C8.5268 15.3543 8.5698 15.3297 8.6066 15.2978C8.6434 15.2659 8.67326 15.2274 8.6945 15.1845L9.58863 13.375C9.63152 13.2883 9.63664 13.1888 9.60288 13.0985C9.56911 13.0082 9.49922 12.9344 9.40858 12.8934C9.31794 12.8524 9.21397 12.8475 9.11955 12.8798C9.02513 12.9121 8.94799 12.9789 8.9051 13.0656L8.01097 14.8751Z" fill="url(#paint26_linear_862_883)"/>
<path id="Vector_28" d="M12.8359 14.9185C12.8745 15.0071 12.8746 15.1067 12.8363 15.1954C12.798 15.2841 12.7245 15.3546 12.6318 15.3915C12.5392 15.4283 12.435 15.4284 12.3423 15.3918C12.2496 15.3552 12.1758 15.2848 12.1373 15.1962L11.3352 13.3475C11.2968 13.2589 11.2968 13.1593 11.3351 13.0707C11.3734 12.982 11.447 12.9116 11.5397 12.8749C11.6323 12.8381 11.7364 12.8381 11.8291 12.8748C11.9218 12.9115 11.9954 12.9818 12.0338 13.0705L12.8359 14.9185Z" fill="url(#paint27_linear_862_883)"/>
<path id="Vector_29" d="M12.8474 6.02907C12.8665 5.9851 12.8762 5.93798 12.8762 5.8904C12.8762 5.84281 12.8664 5.7957 12.8473 5.75175C12.8283 5.70779 12.8004 5.66786 12.7652 5.63423C12.73 5.60059 12.6882 5.57392 12.6422 5.55573C12.5963 5.53753 12.547 5.52818 12.4973 5.5282C12.4475 5.52822 12.3983 5.53761 12.3523 5.55583C12.2595 5.59264 12.1858 5.66321 12.1474 5.75201L10.7458 8.99494C10.7074 9.08374 10.7075 9.1835 10.7459 9.27227C10.7844 9.36104 10.8582 9.43155 10.951 9.46829C11.0439 9.50503 11.1481 9.50499 11.241 9.46818C11.3338 9.43137 11.4075 9.3608 11.4459 9.27201L12.8474 6.02907Z" fill="url(#paint28_radial_862_883)"/>
<path id="Vector_30" d="M7.92545 4.88708C8.12392 4.88708 8.28482 4.73318 8.28482 4.54333C8.28482 4.35349 8.12392 4.19958 7.92545 4.19958C7.72697 4.19958 7.56607 4.35349 7.56607 4.54333C7.56607 4.73318 7.72697 4.88708 7.92545 4.88708Z" fill="url(#paint29_radial_862_883)"/>
<path id="Vector_31" d="M8.00954 16.5492C8.20801 16.5492 8.36891 16.3953 8.36891 16.2054C8.36891 16.0156 8.20801 15.8617 8.00954 15.8617C7.81106 15.8617 7.65016 16.0156 7.65016 16.2054C7.65016 16.3953 7.81106 16.5492 8.00954 16.5492Z" fill="url(#paint30_radial_862_883)"/>
<path id="Vector_32" d="M13.0422 4.88708C13.2407 4.88708 13.4016 4.73318 13.4016 4.54333C13.4016 4.35349 13.2407 4.19958 13.0422 4.19958C12.8437 4.19958 12.6828 4.35349 12.6828 4.54333C12.6828 4.73318 12.8437 4.88708 13.0422 4.88708Z" fill="url(#paint31_radial_862_883)"/>
<path id="Vector_33" d="M13.0408 16.5492C13.2393 16.5492 13.4002 16.3953 13.4002 16.2054C13.4002 16.0156 13.2393 15.8617 13.0408 15.8617C12.8423 15.8617 12.6814 16.0156 12.6814 16.2054C12.6814 16.3953 12.8423 16.5492 13.0408 16.5492Z" fill="url(#paint32_radial_862_883)"/>
<path id="Vector_34" d="M16.6389 13.1666C16.8373 13.1666 16.9982 13.0127 16.9982 12.8229C16.9982 12.633 16.8373 12.4791 16.6389 12.4791C16.4404 12.4791 16.2795 12.633 16.2795 12.8229C16.2795 13.0127 16.4404 13.1666 16.6389 13.1666Z" fill="url(#paint33_radial_862_883)"/>
<path id="Vector_35" d="M4.38272 13.2073C4.5812 13.2073 4.7421 13.0534 4.7421 12.8635C4.7421 12.6737 4.5812 12.5198 4.38272 12.5198C4.18424 12.5198 4.02335 12.6737 4.02335 12.8635C4.02335 13.0534 4.18424 13.2073 4.38272 13.2073Z" fill="url(#paint34_radial_862_883)"/>
<path id="Vector_36" d="M4.38272 13.2073C4.5812 13.2073 4.7421 13.0534 4.7421 12.8635C4.7421 12.6737 4.5812 12.5198 4.38272 12.5198C4.18424 12.5198 4.02335 12.6737 4.02335 12.8635C4.02335 13.0534 4.18424 13.2073 4.38272 13.2073Z" fill="url(#paint35_radial_862_883)"/>
<path id="Vector_37" d="M16.6446 8.27991C16.8431 8.27991 17.004 8.12601 17.004 7.93616C17.004 7.74631 16.8431 7.59241 16.6446 7.59241C16.4461 7.59241 16.2852 7.74631 16.2852 7.93616C16.2852 8.12601 16.4461 8.27991 16.6446 8.27991Z" fill="url(#paint36_radial_862_883)"/>
<path id="Vector_38" d="M4.37698 8.36865C4.57546 8.36865 4.73636 8.21475 4.73636 8.0249C4.73636 7.83505 4.57546 7.68115 4.37698 7.68115C4.17851 7.68115 4.01761 7.83505 4.01761 8.0249C4.01761 8.21475 4.17851 8.36865 4.37698 8.36865Z" fill="url(#paint37_radial_862_883)"/>
<path id="Vector_39" d="M4.37698 8.36865C4.57546 8.36865 4.73636 8.21475 4.73636 8.0249C4.73636 7.83505 4.57546 7.68115 4.37698 7.68115C4.17851 7.68115 4.01761 7.83505 4.01761 8.0249C4.01761 8.21475 4.17851 8.36865 4.37698 8.36865Z" fill="url(#paint38_radial_862_883)"/>
</g>
<defs>
<filter id="filter0_f_862_883" x="17.0713" y="0.909424" width="3.35204" height="17.3857" filterUnits="userSpaceOnUse" color-interpolation-filters="sRGB">
<feFlood flood-opacity="0" result="BackgroundImageFix"/>
<feBlend mode="normal" in="SourceGraphic" in2="BackgroundImageFix" result="shape"/>
<feGaussianBlur stdDeviation="0.46875" result="effect1_foregroundBlur_862_883"/>
</filter>
<linearGradient id="paint0_linear_862_883" x1="10.4828" y1="16.8977" x2="10.4828" y2="-0.719465" gradientUnits="userSpaceOnUse">
<stop stop-color="#8A52B9"/>
<stop offset="1" stop-color="#1C1C1D"/>
</linearGradient>
<linearGradient id="paint1_linear_862_883" x1="-2.27506" y1="12.9432" x2="2.78351" y2="12.9432" gradientUnits="userSpaceOnUse">
<stop stop-color="#181818"/>
<stop offset="1" stop-color="#5E2E91" stop-opacity="0"/>
</linearGradient>
<linearGradient id="paint2_linear_862_883" x1="11.3316" y1="20.7023" x2="11.3316" y2="17.7372" gradientUnits="userSpaceOnUse">
<stop offset="0.127" stop-color="#5D328D"/>
<stop offset="1" stop-color="#5D328D" stop-opacity="0"/>
</linearGradient>
<linearGradient id="paint3_linear_862_883" x1="18.7469" y1="1.84692" x2="18.7469" y2="17.3576" gradientUnits="userSpaceOnUse">
<stop stop-color="#514E55"/>
<stop offset="1" stop-color="#9F6AD1"/>
</linearGradient>
<radialGradient id="paint4_radial_862_883" cx="0" cy="0" r="1" gradientUnits="userSpaceOnUse" gradientTransform="translate(10.8421 10.3595) rotate(137.544) scale(1.0503 1.0472)">
<stop stop-color="#FFC957"/>
<stop offset="1" stop-color="#E99948"/>
</radialGradient>
<linearGradient id="paint5_linear_862_883" x1="11.0161" y1="5.18416" x2="10.3627" y2="5.18416" gradientUnits="userSpaceOnUse">
<stop stop-color="#F65E88"/>
<stop offset="1" stop-color="#D71F6B"/>
</linearGradient>
<linearGradient id="paint6_linear_862_883" x1="6.52118" y1="6.01136" x2="6.16422" y2="6.38454" gradientUnits="userSpaceOnUse">
<stop stop-color="#F15676"/>
<stop offset="1" stop-color="#DA295E"/>
</linearGradient>
<radialGradient id="paint7_radial_862_883" cx="0" cy="0" r="1" gradientUnits="userSpaceOnUse" gradientTransform="translate(7.45051 13.281) rotate(135.93) scale(2.59468 0.419201)">
<stop stop-color="#F65B7F"/>
<stop offset="1" stop-color="#D62E52"/>
</radialGradient>
<radialGradient id="paint8_radial_862_883" cx="0" cy="0" r="1" gradientUnits="userSpaceOnUse" gradientTransform="translate(15.4909 5.54649) rotate(136.189) scale(2.79113 0.613196)">
<stop stop-color="#EC548A"/>
<stop offset="1" stop-color="#DC257C"/>
</radialGradient>
<linearGradient id="paint9_linear_862_883" x1="14.6321" y1="13.859" x2="14.1889" y2="14.402" gradientUnits="userSpaceOnUse">
<stop stop-color="#FB568D"/>
<stop offset="1" stop-color="#E31F86"/>
</linearGradient>
<radialGradient id="paint10_radial_862_883" cx="0" cy="0" r="1" gradientUnits="userSpaceOnUse" gradientTransform="translate(6.2062 10.3548) rotate(180) scale(1.98213 0.551114)">
<stop stop-color="#F15675"/>
<stop offset="1" stop-color="#DF3456"/>
</radialGradient>
<radialGradient id="paint11_radial_862_883" cx="0" cy="0" r="1" gradientUnits="userSpaceOnUse" gradientTransform="translate(17.2771 10.3542) rotate(180) scale(1.87197 0.432644)">
<stop stop-color="#F85E9A"/>
<stop offset="1" stop-color="#DB1E8A"/>
</radialGradient>
<linearGradient id="paint12_linear_862_883" x1="11.0161" y1="2.61761" x2="10.3627" y2="2.61761" gradientUnits="userSpaceOnUse">
<stop stop-color="#F65E88"/>
<stop offset="1" stop-color="#D71F6B"/>
</linearGradient>
<linearGradient id="paint13_linear_862_883" x1="4.85987" y1="4.43049" x2="4.50291" y2="4.80367" gradientUnits="userSpaceOnUse">
<stop stop-color="#F15676"/>
<stop offset="1" stop-color="#DA295E"/>
</linearGradient>
<radialGradient id="paint14_radial_862_883" cx="0" cy="0" r="1" gradientUnits="userSpaceOnUse" gradientTransform="translate(5.33874 15.5268) rotate(137.09) scale(1.08866 0.41256)">
<stop stop-color="#F65B7F"/>
<stop offset="1" stop-color="#D62E52"/>
</radialGradient>
<radialGradient id="paint15_radial_862_883" cx="0" cy="0" r="1" gradientUnits="userSpaceOnUse" gradientTransform="translate(16.8898 4.3854) rotate(136.93) scale(1.23974 0.420371)">
<stop stop-color="#F55E94"/>
<stop offset="1" stop-color="#D8207F"/>
</radialGradient>
<linearGradient id="paint16_linear_862_883" x1="16.4492" y1="15.5896" x2="16.0671" y2="16.1631" gradientUnits="userSpaceOnUse">
<stop stop-color="#FB568D"/>
<stop offset="1" stop-color="#E31F86"/>
</linearGradient>
<radialGradient id="paint17_radial_862_883" cx="0" cy="0" r="1" gradientUnits="userSpaceOnUse" gradientTransform="translate(2.91936 10.3596) rotate(180) scale(0.871392 0.551114)">
<stop stop-color="#F15675"/>
<stop offset="1" stop-color="#DF3456"/>
</radialGradient>
<radialGradient id="paint18_radial_862_883" cx="0" cy="0" r="1" gradientUnits="userSpaceOnUse" gradientTransform="translate(19.2206 10.3596) rotate(180) scale(0.787053 0.38135)">
<stop stop-color="#F85E9A"/>
<stop offset="1" stop-color="#DB1E8A"/>
</radialGradient>
<linearGradient id="paint19_linear_862_883" x1="10.9902" y1="16.1902" x2="10.0673" y2="16.1902" gradientUnits="userSpaceOnUse">
<stop stop-color="#FDC14E"/>
<stop offset="1" stop-color="#EEA83B"/>
</linearGradient>
<linearGradient id="paint20_linear_862_883" x1="9.38667" y1="7.22392" x2="8.68622" y2="7.55604" gradientUnits="userSpaceOnUse">
<stop offset="0.028" stop-color="#FFC75D"/>
<stop offset="0.599" stop-color="#E99D43"/>
</linearGradient>
<linearGradient id="paint21_linear_862_883" x1="7.36195" y1="8.94886" x2="6.9993" y2="9.70293" gradientUnits="userSpaceOnUse">
<stop offset="0.028" stop-color="#FFC75D"/>
<stop offset="0.664" stop-color="#E99D43"/>
</linearGradient>
<radialGradient id="paint22_radial_862_883" cx="0" cy="0" r="1" gradientUnits="userSpaceOnUse" gradientTransform="translate(15.3789 8.42571) rotate(152.932) scale(3.68267 1.54255)">
<stop stop-color="#F4BF38"/>
<stop offset="1" stop-color="#E49B40"/>
</radialGradient>
<linearGradient id="paint23_linear_862_883" x1="14.1771" y1="11.7889" x2="14.0117" y2="12.3944" gradientUnits="userSpaceOnUse">
<stop stop-color="#F4BF38"/>
<stop offset="1" stop-color="#E49B40"/>
</linearGradient>
<linearGradient id="paint24_linear_862_883" x1="7.25916" y1="11.0925" x2="7.46584" y2="12.0535" gradientUnits="userSpaceOnUse">
<stop offset="0.028" stop-color="#FFC75D"/>
<stop offset="1" stop-color="#E99D43"/>
</linearGradient>
<radialGradient id="paint25_radial_862_883" cx="0" cy="0" r="1" gradientUnits="userSpaceOnUse" gradientTransform="translate(9.4705 11.2671) rotate(160.639) scale(0.731868 0.493176)">
<stop stop-color="#FDC05E"/>
<stop offset="1" stop-color="#FDC05E" stop-opacity="0"/>
</radialGradient>
<linearGradient id="paint26_linear_862_883" x1="9.42906" y1="14.6235" x2="8.44803" y2="14.0893" gradientUnits="userSpaceOnUse">
<stop offset="0.028" stop-color="#FFC75D"/>
<stop offset="0.929" stop-color="#E99D43"/>
</linearGradient>
<linearGradient id="paint27_linear_862_883" x1="12.2459" y1="13.9264" x2="11.5177" y2="14.2956" gradientUnits="userSpaceOnUse">
<stop offset="0.028" stop-color="#FFC75D"/>
<stop offset="0.929" stop-color="#E99D43"/>
</linearGradient>
<radialGradient id="paint28_radial_862_883" cx="0" cy="0" r="1" gradientUnits="userSpaceOnUse" gradientTransform="translate(12.6297 5.73826) rotate(114.66) scale(3.58067 0.900402)">
<stop stop-color="#F4BF38"/>
<stop offset="1" stop-color="#E49B40"/>
</radialGradient>
<radialGradient id="paint29_radial_862_883" cx="0" cy="0" r="1" gradientUnits="userSpaceOnUse" gradientTransform="translate(8.11393 4.38724) rotate(137.544) scale(0.550972 0.549344)">
<stop stop-color="#FFC957"/>
<stop offset="1" stop-color="#E99948"/>
</radialGradient>
<radialGradient id="paint30_radial_862_883" cx="0" cy="0" r="1" gradientUnits="userSpaceOnUse" gradientTransform="translate(8.19824 16.0507) rotate(137.544) scale(0.550979 0.549352)">
<stop stop-color="#FFC957"/>
<stop offset="1" stop-color="#E99948"/>
</radialGradient>
<radialGradient id="paint31_radial_862_883" cx="0" cy="0" r="1" gradientUnits="userSpaceOnUse" gradientTransform="translate(13.2312 4.38668) rotate(137.544) scale(0.550972 0.549344)">
<stop stop-color="#FED05D"/>
<stop offset="1" stop-color="#E6A546"/>
</radialGradient>
<radialGradient id="paint32_radial_862_883" cx="0" cy="0" r="1" gradientUnits="userSpaceOnUse" gradientTransform="translate(13.2293 16.0502) rotate(137.544) scale(0.550979 0.549352)">
<stop stop-color="#FFC957"/>
<stop offset="1" stop-color="#E99948"/>
</radialGradient>
<radialGradient id="paint33_radial_862_883" cx="0" cy="0" r="1" gradientUnits="userSpaceOnUse" gradientTransform="translate(16.8271 12.6673) rotate(137.544) scale(0.550972 0.549345)">
<stop stop-color="#FFD453"/>
<stop offset="1" stop-color="#EDAE4C"/>
</radialGradient>
<radialGradient id="paint34_radial_862_883" cx="0" cy="0" r="1" gradientUnits="userSpaceOnUse" gradientTransform="translate(4.56981 12.7092) rotate(137.544) scale(0.550972 0.549345)">
<stop stop-color="#FFC957"/>
<stop offset="1" stop-color="#E99948"/>
</radialGradient>
<radialGradient id="paint35_radial_862_883" cx="0" cy="0" r="1" gradientUnits="userSpaceOnUse" gradientTransform="translate(4.38272 12.616) rotate(90) scale(0.591429 0.618312)">
<stop offset="0.436" stop-color="#E2834F" stop-opacity="0"/>
<stop offset="1" stop-color="#E2834F"/>
</radialGradient>
<radialGradient id="paint36_radial_862_883" cx="0" cy="0" r="1" gradientUnits="userSpaceOnUse" gradientTransform="translate(16.8317 7.78153) rotate(137.544) scale(0.550972 0.549345)">
<stop stop-color="#FFDB62"/>
<stop offset="1" stop-color="#E9B04B"/>
</radialGradient>
<radialGradient id="paint37_radial_862_883" cx="0" cy="0" r="1" gradientUnits="userSpaceOnUse" gradientTransform="translate(4.56508 7.86965) rotate(137.544) scale(0.550979 0.549352)">
<stop stop-color="#FFC957"/>
<stop offset="1" stop-color="#E99948"/>
</radialGradient>
<radialGradient id="paint38_radial_862_883" cx="0" cy="0" r="1" gradientUnits="userSpaceOnUse" gradientTransform="translate(4.37626 7.77671) rotate(90) scale(0.591429 0.618312)">
<stop offset="0.436" stop-color="#E2834F" stop-opacity="0"/>
<stop offset="1" stop-color="#E2834F"/>
</radialGradient>
</defs>
</svg>
