<svg width="18" height="20" viewBox="0 0 18 20" fill="none" xmlns="http://www.w3.org/2000/svg">
<g id="Frame">
<path id="Vector" d="M10.8917 8.67495C11.3979 7.96767 11.6701 7.11971 11.6701 6.24995C11.6701 5.38019 11.3979 4.53223 10.8917 3.82495C11.3657 3.50206 11.9265 3.33062 12.5 3.33328C13.2736 3.33328 14.0154 3.64057 14.5624 4.18755C15.1094 4.73454 15.4167 5.4764 15.4167 6.24995C15.4167 7.0235 15.1094 7.76536 14.5624 8.31234C14.0154 8.85932 13.2736 9.16662 12.5 9.16662C11.9265 9.16928 11.3657 8.99784 10.8917 8.67495ZM4.58334 6.24995C4.58334 5.67309 4.7544 5.10918 5.07489 4.62954C5.39537 4.14989 5.85089 3.77606 6.38384 3.5553C6.9168 3.33455 7.50324 3.27679 8.06902 3.38933C8.6348 3.50187 9.1545 3.77965 9.5624 4.18755C9.9703 4.59546 10.2481 5.11516 10.3606 5.68094C10.4732 6.24671 10.4154 6.83316 10.1947 7.36611C9.9739 7.89906 9.60006 8.35458 9.12042 8.67507C8.64078 8.99556 8.07687 9.16662 7.5 9.16662C6.72646 9.16662 5.98459 8.85932 5.43761 8.31234C4.89063 7.76536 4.58334 7.0235 4.58334 6.24995ZM6.25 6.24995C6.25 6.49718 6.32332 6.73885 6.46067 6.94441C6.59802 7.14997 6.79324 7.31019 7.02165 7.4048C7.25006 7.49941 7.50139 7.52416 7.74387 7.47593C7.98634 7.4277 8.20907 7.30865 8.38389 7.13383C8.5587 6.95902 8.67775 6.73629 8.72599 6.49381C8.77422 6.25134 8.74946 6 8.65485 5.77159C8.56025 5.54319 8.40003 5.34796 8.19447 5.21061C7.98891 5.07326 7.74723 4.99995 7.5 4.99995C7.16848 4.99995 6.85054 5.13165 6.61612 5.36607C6.3817 5.60049 6.25 5.91843 6.25 6.24995ZM13.3333 14.1666V15.8333H1.66667V14.1666C1.66667 14.1666 1.66667 10.8333 7.5 10.8333C13.3333 10.8333 13.3333 14.1666 13.3333 14.1666ZM11.6667 14.1666C11.55 13.5166 10.5583 12.4999 7.5 12.4999C4.44167 12.4999 3.39167 13.5916 3.33334 14.1666M13.2917 10.8333C13.8024 11.2306 14.22 11.7348 14.5152 12.3107C14.8103 12.8865 14.9758 13.52 15 14.1666V15.8333H18.3333V14.1666C18.3333 14.1666 18.3333 11.1416 13.2833 10.8333H13.2917Z" fill="white"/>
</g>
</svg>
