<svg width="23" height="22" viewBox="0 0 23 22" fill="none" xmlns="http://www.w3.org/2000/svg">
<g id="Group">
<path id="Vector" d="M10.0633 2.54547C10.0633 2.83467 10.0051 3.1209 9.89216 3.38714C9.77924 3.65337 9.61393 3.89418 9.40604 4.09522C9.19816 4.29626 8.95196 4.45343 8.6821 4.55738C8.41223 4.66133 8.12422 4.70993 7.83518 4.70029C7.69366 5.3909 7.35254 6.02478 6.85413 6.52332C6.35571 7.02187 5.72191 7.36315 5.03134 7.50485C5.03278 7.52881 5.03326 7.55276 5.03278 7.57672C5.03275 7.91928 4.95111 8.25691 4.79461 8.56163C4.63811 8.86635 4.41126 9.1294 4.13285 9.32899C3.85445 9.52858 3.53249 9.65897 3.19366 9.70935C2.85482 9.75973 2.50886 9.72866 2.18442 9.6187C1.85999 9.50875 1.56642 9.32308 1.32804 9.07708C1.08965 8.83107 0.913306 8.53181 0.813612 8.20407C0.713917 7.87634 0.693741 7.52957 0.754755 7.19249C0.815769 6.85541 0.956217 6.53772 1.16446 6.26572C1.21772 6.1978 1.24975 6.11566 1.25653 6.02961C1.2633 5.94356 1.24453 5.85743 1.20256 5.782C0.805987 5.09675 0.646808 4.2997 0.749748 3.51469C0.852689 2.72967 1.21198 2.00062 1.77183 1.44077C2.33167 0.88093 3.06072 0.521634 3.84574 0.418694C4.63076 0.315754 5.4278 0.474932 6.11306 0.871504C6.18848 0.913475 6.27462 0.932248 6.36067 0.925472C6.44672 0.918695 6.52885 0.88667 6.59678 0.83341C6.91617 0.588817 7.29762 0.438452 7.69801 0.399315C8.09839 0.360178 8.50174 0.433829 8.86245 0.611943C9.22316 0.790056 9.52686 1.06553 9.7392 1.40722C9.95154 1.7489 10.0633 2.14318 10.0633 2.54547Z" fill="url(#paint0_radial_308_8287)"/>
<path id="Vector_2" d="M7.90698 4.70166C9.09785 4.70166 10.0632 3.73627 10.0632 2.54541C10.0632 1.35455 9.09785 0.38916 7.90698 0.38916C6.71612 0.38916 5.75073 1.35455 5.75073 2.54541C5.75073 3.73627 6.71612 4.70166 7.90698 4.70166Z" fill="url(#paint1_radial_308_8287)"/>
<path id="Vector_3" d="M4.31323 7.57642C6.29801 7.57642 7.90698 5.96744 7.90698 3.98267C7.90698 1.99789 6.29801 0.388916 4.31323 0.388916C2.32846 0.388916 0.719482 1.99789 0.719482 3.98267C0.719482 5.96744 2.32846 7.57642 4.31323 7.57642Z" fill="url(#paint2_radial_308_8287)"/>
<path id="Vector_4" d="M12.9382 2.54547C12.9383 2.83467 12.9965 3.1209 13.1094 3.38714C13.2223 3.65337 13.3876 3.89418 13.5955 4.09522C13.8034 4.29626 14.0496 4.45343 14.3194 4.55738C14.5893 4.66133 14.8773 4.70993 15.1664 4.70029C15.3079 5.39099 15.6492 6.02494 16.1477 6.5235C16.6463 7.02205 17.2802 7.36328 17.9709 7.50485L17.9695 7.57672C17.9695 7.91928 18.0512 8.25691 18.2077 8.56163C18.3642 8.86635 18.591 9.1294 18.8694 9.32899C19.1478 9.52858 19.4698 9.65897 19.8086 9.70935C20.1474 9.75973 20.4934 9.72866 20.8178 9.6187C21.1423 9.50875 21.4358 9.32308 21.6742 9.07708C21.9126 8.83107 22.089 8.53181 22.1886 8.20407C22.2883 7.87634 22.3085 7.52957 22.2475 7.19249C22.1865 6.85541 22.046 6.53772 21.8378 6.26572C21.7845 6.1978 21.7525 6.11566 21.7457 6.02961C21.739 5.94356 21.7577 5.85743 21.7997 5.782C22.1963 5.09675 22.3555 4.2997 22.2525 3.51469C22.1496 2.72967 21.7903 2.00062 21.2304 1.44077C20.6706 0.88093 19.9415 0.521634 19.1565 0.418694C18.3715 0.315754 17.5745 0.474932 16.8892 0.871504C16.8138 0.913475 16.7276 0.932248 16.6416 0.925472C16.5555 0.918695 16.4734 0.88667 16.4055 0.83341C16.0861 0.588817 15.7046 0.438452 15.3043 0.399315C14.9039 0.360178 14.5005 0.433829 14.1398 0.611943C13.7791 0.790056 13.4754 1.06553 13.2631 1.40722C13.0507 1.7489 12.9382 2.14318 12.9382 2.54547Z" fill="url(#paint3_radial_308_8287)"/>
<g id="Group_2" filter="url(#filter0_f_308_8287)">
<path id="Vector_5" d="M17.7411 8.27381C17.9281 8.81422 18.3221 9.25821 18.8365 9.50812C19.3509 9.75802 19.9434 9.79336 20.4838 9.60637C20.7698 9.53378 21.0376 9.40283 21.2704 9.22176C21.5033 9.04069 21.6962 8.81341 21.837 8.55421C21.9778 8.295 22.0635 8.00948 22.0886 7.71557C22.1138 7.42167 22.0779 7.12573 21.9832 6.84637C21.5936 5.72081 20.6678 6.0845 19.5423 6.47406C18.4174 6.86291 17.3515 7.14825 17.7411 8.27381Z" fill="url(#paint4_radial_308_8287)"/>
</g>
<path id="Vector_6" d="M15.0945 4.70166C13.9036 4.70166 12.9382 3.73627 12.9382 2.54541C12.9382 1.35455 13.9036 0.38916 15.0945 0.38916C16.2853 0.38916 17.2507 1.35455 17.2507 2.54541C17.2507 3.73627 16.2853 4.70166 15.0945 4.70166Z" fill="url(#paint5_radial_308_8287)"/>
<path id="Vector_7" d="M15.0945 4.70166C13.9036 4.70166 12.9382 3.73627 12.9382 2.54541C12.9382 1.35455 13.9036 0.38916 15.0945 0.38916C16.2853 0.38916 17.2507 1.35455 17.2507 2.54541C17.2507 3.73627 16.2853 4.70166 15.0945 4.70166Z" fill="url(#paint6_radial_308_8287)"/>
<path id="Vector_8" d="M18.6882 7.57666C16.7035 7.57666 15.0945 5.96768 15.0945 3.98291C15.0945 1.99814 16.7035 0.38916 18.6882 0.38916C20.673 0.38916 22.282 1.99814 22.282 3.98291C22.282 5.96768 20.673 7.57666 18.6882 7.57666Z" fill="url(#paint7_radial_308_8287)"/>
<path id="Vector_9" d="M18.6882 7.57666C16.7035 7.57666 15.0945 5.96768 15.0945 3.98291C15.0945 1.99814 16.7035 0.38916 18.6882 0.38916C20.673 0.38916 22.282 1.99814 22.282 3.98291C22.282 5.96768 20.673 7.57666 18.6882 7.57666Z" fill="url(#paint8_radial_308_8287)"/>
<g id="Group_3" filter="url(#filter1_i_308_8287)">
<path id="Vector_10" d="M11.5 21.2307C18.2088 21.2307 21.5618 16.7263 21.5618 11.1697C21.5618 5.6123 18.2088 1.10718 11.5 1.10718C4.7912 1.10718 1.43823 5.6123 1.43823 11.1704C1.43823 16.7263 4.7912 21.2307 11.5 21.2307Z" fill="url(#paint9_radial_308_8287)"/>
</g>
<path id="Vector_11" d="M11.5115 21.2307C18.221 21.2307 21.5733 16.7263 21.5733 11.1697C21.5733 5.6123 18.221 1.10718 11.5115 1.10718C4.80268 1.10718 1.44971 5.6123 1.44971 11.1697C1.44971 16.7263 4.80268 21.2315 11.5122 21.2315" fill="url(#paint10_radial_308_8287)"/>
<g id="Group_4" filter="url(#filter2_f_308_8287)">
<path id="Vector_12" d="M14.5554 11.5298C14.9094 11.5298 15.2599 11.4601 15.5869 11.3246C15.9139 11.1892 16.211 10.9906 16.4613 10.7403C16.7116 10.4901 16.9101 10.1929 17.0456 9.86592C17.181 9.53891 17.2507 9.18843 17.2507 8.83447C17.2507 8.48052 17.181 8.13003 17.0456 7.80302C16.9101 7.47601 16.7116 7.17888 16.4613 6.9286C16.211 6.67832 15.9139 6.47978 15.5869 6.34433C15.2599 6.20888 14.9094 6.13916 14.5554 6.13916C13.8406 6.13916 13.155 6.42313 12.6495 6.9286C12.1441 7.43407 11.8601 8.11963 11.8601 8.83447C11.8601 9.54931 12.1441 10.2349 12.6495 10.7403C13.155 11.2458 13.8406 11.5298 14.5554 11.5298Z" fill="#8F74A1"/>
</g>
<path id="Vector_13" d="M15.8132 11.8892C16.7664 11.8892 17.6804 11.5105 18.3544 10.8366C19.0284 10.1626 19.407 9.24853 19.407 8.29541C19.407 7.34229 19.0284 6.4282 18.3544 5.75424C17.6804 5.08029 16.7664 4.70166 15.8132 4.70166C14.8601 4.70166 13.946 5.08029 13.2721 5.75424C12.5981 6.4282 12.2195 7.34229 12.2195 8.29541C12.2195 9.24853 12.5981 10.1626 13.2721 10.8366C13.946 11.5105 14.8601 11.8892 15.8132 11.8892Z" fill="url(#paint11_linear_308_8287)"/>
<path id="Vector_14" d="M7.18823 11.8892C8.14135 11.8892 9.05544 11.5105 9.7294 10.8366C10.4034 10.1626 10.782 9.24853 10.782 8.29541C10.782 7.34229 10.4034 6.4282 9.7294 5.75424C9.05544 5.08029 8.14135 4.70166 7.18823 4.70166C6.23511 4.70166 5.32103 5.08029 4.64707 5.75424C3.97311 6.4282 3.59448 7.34229 3.59448 8.29541C3.59448 9.24853 3.97311 10.1626 4.64707 10.8366C5.32103 11.5105 6.23511 11.8892 7.18823 11.8892Z" fill="url(#paint12_linear_308_8287)"/>
<path id="Vector_15" d="M17.0926 13.3267C17.0926 16.3742 14.5482 18.1782 11.5007 18.1782C8.45323 18.1782 5.93042 16.3742 5.93042 13.3267C5.93042 13.3267 7.92854 14.7642 11.5007 14.7642C15.4754 14.757 17.0926 13.3267 17.0926 13.3267Z" fill="url(#paint13_linear_308_8287)" stroke="url(#paint14_linear_308_8287)" stroke-width="0.9375" stroke-miterlimit="10" stroke-linecap="round" stroke-linejoin="round"/>
<g id="Group_5" filter="url(#filter3_f_308_8287)">
<path id="Vector_16" d="M11.5007 18.358C14.0271 18.358 16.3164 16.748 17.0258 14.4602" stroke="url(#paint15_linear_308_8287)" stroke-width="0.5625" stroke-miterlimit="10" stroke-linecap="round" stroke-linejoin="round"/>
</g>
<g id="Group_6" filter="url(#filter4_f_308_8287)">
<path id="Vector_17" d="M15.1967 11.2834C15.5381 11.2891 15.8772 11.2268 16.1942 11.1001C16.5113 10.9734 16.7999 10.7848 17.0434 10.5454C17.2868 10.306 17.4802 10.0206 17.6121 9.70566C17.7441 9.39077 17.8121 9.05275 17.8121 8.71132C17.8121 8.36989 17.7441 8.03188 17.6121 7.71698C17.4802 7.40209 17.2868 7.11662 17.0434 6.87722C16.7999 6.63782 16.5113 6.44927 16.1942 6.32257C15.8772 6.19588 15.5381 6.13357 15.1967 6.13928C14.5144 6.13928 13.8601 6.4103 13.3777 6.89272C12.8953 7.37514 12.6243 8.02944 12.6243 8.71168C12.6243 9.39393 12.8953 10.0482 13.3777 10.5306C13.8601 11.0131 14.5144 11.2834 15.1967 11.2834Z" fill="#3450A6"/>
</g>
<g id="Group_7" filter="url(#filter5_f_308_8287)">
<path id="Vector_18" d="M7.7273 11.5298C8.08125 11.5298 8.43174 11.4601 8.75875 11.3246C9.08576 11.1892 9.38289 10.9906 9.63317 10.7403C9.88345 10.4901 10.082 10.1929 10.2174 9.86592C10.3529 9.53891 10.4226 9.18843 10.4226 8.83447C10.4226 8.48052 10.3529 8.13003 10.2174 7.80302C10.082 7.47601 9.88345 7.17888 9.63317 6.9286C9.38289 6.67832 9.08576 6.47978 8.75875 6.34433C8.43174 6.20888 8.08125 6.13916 7.7273 6.13916C7.01245 6.13916 6.32689 6.42313 5.82142 6.9286C5.31595 7.43407 5.03198 8.11963 5.03198 8.83447C5.03198 9.54931 5.31595 10.2349 5.82142 10.7403C6.32689 11.2458 7.01245 11.5298 7.7273 11.5298Z" fill="#3450A6"/>
</g>
<path id="Vector_19" fill-rule="evenodd" clip-rule="evenodd" d="M10.782 8.4751C10.782 9.18994 10.498 9.8755 9.99254 10.381C9.48707 10.8864 8.80151 11.1704 8.08667 11.1704C7.37183 11.1704 6.68627 10.8864 6.1808 10.381C5.67533 9.8755 5.39136 9.18994 5.39136 8.4751C5.39136 7.76026 5.67533 7.07469 6.1808 6.56922C6.68627 6.06375 7.37183 5.77979 8.08667 5.77979C8.80151 5.77979 9.48707 6.06375 9.99254 6.56922C10.498 7.07469 10.782 7.76026 10.782 8.4751ZM17.6101 8.4751C17.6101 9.18994 17.3261 9.8755 16.8207 10.381C16.3152 10.8864 15.6296 11.1704 14.9148 11.1704C14.2 11.1704 13.5144 10.8864 13.0089 10.381C12.5035 9.8755 12.2195 9.18994 12.2195 8.4751C12.2195 7.76026 12.5035 7.07469 13.0089 6.56922C13.5144 6.06375 14.2 5.77979 14.9148 5.77979C15.6296 5.77979 16.3152 6.06375 16.8207 6.56922C17.3261 7.07469 17.6101 7.76026 17.6101 8.4751Z" fill="white"/>
<path id="Vector_20" d="M14.196 10.0923C14.6249 10.0923 15.0363 9.9219 15.3396 9.61862C15.6429 9.31534 15.8132 8.904 15.8132 8.4751C15.8132 8.04619 15.6429 7.63486 15.3396 7.33157C15.0363 7.02829 14.6249 6.85791 14.196 6.85791C13.7671 6.85791 13.3558 7.02829 13.0525 7.33157C12.7492 7.63486 12.5789 8.04619 12.5789 8.4751C12.5789 8.904 12.7492 9.31534 13.0525 9.61862C13.3558 9.9219 13.7671 10.0923 14.196 10.0923Z" fill="#3E2930"/>
<g id="Group_8" filter="url(#filter6_f_308_8287)">
<path id="Vector_21" d="M10.9827 13.0156C11.3163 13.0156 11.6362 12.8831 11.8721 12.6472C12.108 12.4113 12.2405 12.0914 12.2405 11.7578C12.2405 11.4242 12.108 11.1043 11.8721 10.8684C11.6362 10.6325 11.3163 10.5 10.9827 10.5C10.6491 10.5 10.3291 10.6325 10.0933 10.8684C9.85737 11.1043 9.72485 11.4242 9.72485 11.7578C9.72485 12.0914 9.85737 12.4113 10.0933 12.6472C10.3291 12.8831 10.6491 13.0156 10.9827 13.0156Z" fill="url(#paint16_radial_308_8287)"/>
</g>
<path id="Vector_22" d="M11.5007 12.6079C11.8343 12.6079 12.1543 12.4754 12.3901 12.2395C12.626 12.0036 12.7585 11.6837 12.7585 11.3501C12.7585 11.0165 12.626 10.6966 12.3901 10.4607C12.1543 10.2248 11.8343 10.0923 11.5007 10.0923C11.1671 10.0923 10.8472 10.2248 10.6113 10.4607C10.3754 10.6966 10.2429 11.0165 10.2429 11.3501C10.2429 11.6837 10.3754 12.0036 10.6113 12.2395C10.8472 12.4754 11.1671 12.6079 11.5007 12.6079Z" fill="url(#paint17_linear_308_8287)"/>
<g id="Group_9" filter="url(#filter7_f_308_8287)">
<path id="Vector_23" d="M11.7028 11.7576C11.7993 11.7607 11.8953 11.7443 11.9853 11.7095C12.0753 11.6747 12.1574 11.6222 12.2267 11.555C12.296 11.4879 12.3511 11.4075 12.3887 11.3187C12.4264 11.2298 12.4457 11.1343 12.4457 11.0378C12.4457 10.9413 12.4264 10.8458 12.3887 10.757C12.3511 10.6681 12.296 10.5877 12.2267 10.5206C12.1574 10.4534 12.0753 10.4009 11.9853 10.3661C11.8953 10.3313 11.7993 10.3149 11.7028 10.318C11.5158 10.3239 11.3385 10.4023 11.2083 10.5367C11.0782 10.671 11.0054 10.8507 11.0054 11.0378C11.0054 11.2249 11.0782 11.4046 11.2083 11.539C11.3385 11.6733 11.5158 11.7517 11.7028 11.7576Z" fill="url(#paint18_linear_308_8287)"/>
</g>
<path id="Vector_24" d="M8.80542 10.0923C9.23432 10.0923 9.64566 9.9219 9.94894 9.61862C10.2522 9.31534 10.4226 8.904 10.4226 8.4751C10.4226 8.04619 10.2522 7.63486 9.94894 7.33157C9.64566 7.02829 9.23432 6.85791 8.80542 6.85791C8.37652 6.85791 7.96518 7.02829 7.6619 7.33157C7.35861 7.63486 7.18823 8.04619 7.18823 8.4751C7.18823 8.904 7.35861 9.31534 7.6619 9.61862C7.96518 9.9219 8.37652 10.0923 8.80542 10.0923Z" fill="#3E2930"/>
</g>
<defs>
<filter id="filter0_f_308_8287" x="17.4717" y="5.90454" width="4.81226" height="4.00781" filterUnits="userSpaceOnUse" color-interpolation-filters="sRGB">
<feFlood flood-opacity="0" result="BackgroundImageFix"/>
<feBlend mode="normal" in="SourceGraphic" in2="BackgroundImageFix" result="shape"/>
<feGaussianBlur stdDeviation="0.09375" result="effect1_foregroundBlur_308_8287"/>
</filter>
<filter id="filter1_i_308_8287" x="1.43823" y="0.357178" width="20.8735" height="20.8735" filterUnits="userSpaceOnUse" color-interpolation-filters="sRGB">
<feFlood flood-opacity="0" result="BackgroundImageFix"/>
<feBlend mode="normal" in="SourceGraphic" in2="BackgroundImageFix" result="shape"/>
<feColorMatrix in="SourceAlpha" type="matrix" values="0 0 0 0 0 0 0 0 0 0 0 0 0 0 0 0 0 0 127 0" result="hardAlpha"/>
<feOffset dx="0.75" dy="-0.75"/>
<feGaussianBlur stdDeviation="0.75"/>
<feComposite in2="hardAlpha" operator="arithmetic" k2="-1" k3="1"/>
<feColorMatrix type="matrix" values="0 0 0 0 0 0 0 0 0 0 0 0 0 0 0 0 0 0 0.08 0"/>
<feBlend mode="normal" in2="shape" result="effect1_innerShadow_308_8287"/>
</filter>
<filter id="filter2_f_308_8287" x="11.2976" y="5.57666" width="6.51562" height="6.51562" filterUnits="userSpaceOnUse" color-interpolation-filters="sRGB">
<feFlood flood-opacity="0" result="BackgroundImageFix"/>
<feBlend mode="normal" in="SourceGraphic" in2="BackgroundImageFix" result="shape"/>
<feGaussianBlur stdDeviation="0.28125" result="effect1_foregroundBlur_308_8287"/>
</filter>
<filter id="filter3_f_308_8287" x="11.032" y="13.9915" width="6.46265" height="4.83521" filterUnits="userSpaceOnUse" color-interpolation-filters="sRGB">
<feFlood flood-opacity="0" result="BackgroundImageFix"/>
<feBlend mode="normal" in="SourceGraphic" in2="BackgroundImageFix" result="shape"/>
<feGaussianBlur stdDeviation="0.09375" result="effect1_foregroundBlur_308_8287"/>
</filter>
<filter id="filter4_f_308_8287" x="12.0618" y="5.57642" width="6.31274" height="6.26978" filterUnits="userSpaceOnUse" color-interpolation-filters="sRGB">
<feFlood flood-opacity="0" result="BackgroundImageFix"/>
<feBlend mode="normal" in="SourceGraphic" in2="BackgroundImageFix" result="shape"/>
<feGaussianBlur stdDeviation="0.28125" result="effect1_foregroundBlur_308_8287"/>
</filter>
<filter id="filter5_f_308_8287" x="4.46948" y="5.57666" width="6.51562" height="6.51562" filterUnits="userSpaceOnUse" color-interpolation-filters="sRGB">
<feFlood flood-opacity="0" result="BackgroundImageFix"/>
<feBlend mode="normal" in="SourceGraphic" in2="BackgroundImageFix" result="shape"/>
<feGaussianBlur stdDeviation="0.28125" result="effect1_foregroundBlur_308_8287"/>
</filter>
<filter id="filter6_f_308_8287" x="9.34985" y="10.125" width="3.26562" height="3.26562" filterUnits="userSpaceOnUse" color-interpolation-filters="sRGB">
<feFlood flood-opacity="0" result="BackgroundImageFix"/>
<feBlend mode="normal" in="SourceGraphic" in2="BackgroundImageFix" result="shape"/>
<feGaussianBlur stdDeviation="0.1875" result="effect1_foregroundBlur_308_8287"/>
</filter>
<filter id="filter7_f_308_8287" x="10.6304" y="9.94263" width="2.19043" height="2.19043" filterUnits="userSpaceOnUse" color-interpolation-filters="sRGB">
<feFlood flood-opacity="0" result="BackgroundImageFix"/>
<feBlend mode="normal" in="SourceGraphic" in2="BackgroundImageFix" result="shape"/>
<feGaussianBlur stdDeviation="0.1875" result="effect1_foregroundBlur_308_8287"/>
</filter>
<radialGradient id="paint0_radial_308_8287" cx="0" cy="0" r="1" gradientUnits="userSpaceOnUse" gradientTransform="translate(6.46956 0.389222) rotate(124.992) scale(8.77349 11.9822)">
<stop stop-color="#FF478C"/>
<stop offset="0.365" stop-color="#FC2E5F"/>
<stop offset="1" stop-color="#D02651"/>
</radialGradient>
<radialGradient id="paint1_radial_308_8287" cx="0" cy="0" r="1" gradientUnits="userSpaceOnUse" gradientTransform="translate(8.62573 1.10791) rotate(119.745) scale(2.89737)">
<stop stop-color="#FF4A90"/>
<stop offset="0.538" stop-color="#EF3062"/>
</radialGradient>
<radialGradient id="paint2_radial_308_8287" cx="0" cy="0" r="1" gradientUnits="userSpaceOnUse" gradientTransform="translate(6.07547 2.48562) rotate(154.021) scale(3.41857)">
<stop offset="0.184" stop-color="#FF508A"/>
<stop offset="1" stop-color="#FF4885" stop-opacity="0"/>
</radialGradient>
<radialGradient id="paint3_radial_308_8287" cx="0" cy="0" r="1" gradientUnits="userSpaceOnUse" gradientTransform="translate(16.532 0.389223) rotate(55.008) scale(8.77349 11.9822)">
<stop stop-color="#FF478C"/>
<stop offset="0.365" stop-color="#FC2E5F"/>
<stop offset="1" stop-color="#D02651"/>
</radialGradient>
<radialGradient id="paint4_radial_308_8287" cx="0" cy="0" r="1" gradientUnits="userSpaceOnUse" gradientTransform="translate(20.7855 5.55927) rotate(89.485) scale(2.794 2.79399)">
<stop offset="0.016" stop-color="#FF71A8"/>
<stop offset="0.832" stop-color="#EF3062"/>
</radialGradient>
<radialGradient id="paint5_radial_308_8287" cx="0" cy="0" r="1" gradientUnits="userSpaceOnUse" gradientTransform="translate(15.1714 3.48913) rotate(159.131) scale(5.80395 4.45847)">
<stop offset="0.016" stop-color="#FF71A8"/>
<stop offset="0.832" stop-color="#EF3062"/>
</radialGradient>
<radialGradient id="paint6_radial_308_8287" cx="0" cy="0" r="1" gradientUnits="userSpaceOnUse" gradientTransform="translate(10.9564 4.31899) rotate(-23.387) scale(2.85727 2.33527)">
<stop offset="0.506" stop-color="#D62853"/>
<stop offset="1" stop-color="#D62853" stop-opacity="0"/>
</radialGradient>
<radialGradient id="paint7_radial_308_8287" cx="0" cy="0" r="1" gradientUnits="userSpaceOnUse" gradientTransform="translate(13.3329 6.07969) rotate(25.979) scale(3.41857)">
<stop offset="0.184" stop-color="#FF508A"/>
<stop offset="1" stop-color="#FF4885" stop-opacity="0"/>
</radialGradient>
<radialGradient id="paint8_radial_308_8287" cx="0" cy="0" r="1" gradientUnits="userSpaceOnUse" gradientTransform="translate(11.7911 6.93769) rotate(-1.84798) scale(4.20515 3.43691)">
<stop offset="0.307" stop-color="#D62853"/>
<stop offset="1" stop-color="#D62853" stop-opacity="0"/>
</radialGradient>
<radialGradient id="paint9_radial_308_8287" cx="0" cy="0" r="1" gradientUnits="userSpaceOnUse" gradientTransform="translate(18.3293 6.13912) rotate(132.839) scale(26.9555)">
<stop offset="0.074" stop-color="#F5F3F7"/>
<stop offset="0.539" stop-color="#D6B1D8"/>
<stop offset="1" stop-color="#C693ED"/>
</radialGradient>
<radialGradient id="paint10_radial_308_8287" cx="0" cy="0" r="1" gradientUnits="userSpaceOnUse" gradientTransform="translate(12.8498 7.08143) rotate(111.564) scale(16.1331 21.8509)">
<stop offset="0.601" stop-color="#CD8BFF" stop-opacity="0"/>
<stop offset="1" stop-color="#C477FF"/>
</radialGradient>
<linearGradient id="paint11_linear_308_8287" x1="17.2507" y1="4.70166" x2="14.3757" y2="11.5298" gradientUnits="userSpaceOnUse">
<stop stop-color="#4095D9"/>
<stop offset="1" stop-color="#3E71C5"/>
</linearGradient>
<linearGradient id="paint12_linear_308_8287" x1="8.62573" y1="4.70166" x2="5.75073" y2="11.5298" gradientUnits="userSpaceOnUse">
<stop stop-color="#4095D9"/>
<stop offset="1" stop-color="#3E71C5"/>
</linearGradient>
<linearGradient id="paint13_linear_308_8287" x1="11.5007" y1="15.1235" x2="11.1414" y2="17.6392" gradientUnits="userSpaceOnUse">
<stop stop-color="#C8A7C0"/>
<stop offset="1" stop-color="#ECCEDF"/>
</linearGradient>
<linearGradient id="paint14_linear_308_8287" x1="4.22483" y1="15.7524" x2="13.5686" y2="14.7182" gradientUnits="userSpaceOnUse">
<stop stop-color="#E31F6A"/>
<stop offset="1" stop-color="#F83594"/>
</linearGradient>
<linearGradient id="paint15_linear_308_8287" x1="17.0258" y1="11.5284" x2="11.5007" y2="18.358" gradientUnits="userSpaceOnUse">
<stop offset="0.369" stop-color="#FF7BBC" stop-opacity="0.4"/>
<stop offset="1" stop-color="#FB3982" stop-opacity="0"/>
</linearGradient>
<radialGradient id="paint16_radial_308_8287" cx="0" cy="0" r="1" gradientUnits="userSpaceOnUse" gradientTransform="translate(11.6588 11.1956) rotate(138.31) scale(2.7371 3.72497)">
<stop offset="0.208" stop-color="#914BC7"/>
<stop offset="1" stop-color="#CD8BFF" stop-opacity="0"/>
</radialGradient>
<linearGradient id="paint17_linear_308_8287" x1="11.5036" y1="12.6079" x2="11.5036" y2="10.093" gradientUnits="userSpaceOnUse">
<stop stop-color="#E81123"/>
<stop offset="0.444" stop-color="#EA0A4F"/>
<stop offset="1" stop-color="#EC008C"/>
</linearGradient>
<linearGradient id="paint18_linear_308_8287" x1="12.0413" y1="10.4502" x2="11.2953" y2="11.0274" gradientUnits="userSpaceOnUse">
<stop offset="0.369" stop-color="#FF7BBC" stop-opacity="0.72"/>
<stop offset="1" stop-color="#FF7BBC" stop-opacity="0"/>
</linearGradient>
</defs>
</svg>
