<svg width="20" height="20" viewBox="0 0 20 20" fill="none" xmlns="http://www.w3.org/2000/svg">
<g id="Frame">
<path id="Vector" d="M12.0834 10.0001C12.0834 10.5526 11.8639 11.0825 11.4732 11.4732C11.0825 11.8639 10.5526 12.0834 10.0001 12.0834C9.44755 12.0834 8.91764 11.8639 8.52694 11.4732C8.13624 11.0825 7.91675 10.5526 7.91675 10.0001C7.91675 9.44755 8.13624 8.91764 8.52694 8.52694C8.91764 8.13624 9.44755 7.91675 10.0001 7.91675C10.5526 7.91675 11.0825 8.13624 11.4732 8.52694C11.8639 8.91764 12.0834 9.44755 12.0834 10.0001ZM18.3334 10.0001C18.3334 14.6001 14.6001 18.3334 10.0001 18.3334C5.40008 18.3334 1.66675 14.6001 1.66675 10.0001C1.66675 5.40008 5.40008 1.66675 10.0001 1.66675C14.6001 1.66675 18.3334 5.40008 18.3334 10.0001ZM16.6667 10.0001H13.3334C13.3334 8.15841 11.8417 6.66675 10.0001 6.66675C8.15841 6.66675 6.66675 8.15841 6.66675 10.0001H3.33341C3.33341 13.6751 6.32508 16.6667 10.0001 16.6667C13.6751 16.6667 16.6667 13.6751 16.6667 10.0001Z" fill="#E8E8E8"/>
</g>
</svg>
