<svg width="20" height="20" viewBox="0 0 20 20" fill="none" xmlns="http://www.w3.org/2000/svg">
<g id="Frame">
<path id="Vector" d="M10.0001 18.3334C14.6025 18.3334 18.3334 14.6025 18.3334 10.0001C18.3334 5.39771 14.6025 1.66675 10.0001 1.66675C5.39771 1.66675 1.66675 5.39771 1.66675 10.0001C1.66675 14.6025 5.39771 18.3334 10.0001 18.3334Z" fill="#00ACC1"/>
<path id="Vector_2" d="M9.99992 16.6666C13.6818 16.6666 16.6666 13.6818 16.6666 9.99992C16.6666 6.31802 13.6818 3.33325 9.99992 3.33325C6.31802 3.33325 3.33325 6.31802 3.33325 9.99992C3.33325 13.6818 6.31802 16.6666 9.99992 16.6666Z" fill="#EEEEEE"/>
<path id="Vector_3" d="M9.58325 4.58325H10.4166V9.99992H9.58325V4.58325Z" fill="black"/>
<path id="Vector_4" d="M13.0355 12.3559L12.3584 13.0334L9.64844 10.3234L10.3259 9.64551L13.0355 12.3559Z" fill="black"/>
<path id="Vector_5" d="M10.0001 10.8334C10.4603 10.8334 10.8334 10.4603 10.8334 10.0001C10.8334 9.53984 10.4603 9.16675 10.0001 9.16675C9.53984 9.16675 9.16675 9.53984 9.16675 10.0001C9.16675 10.4603 9.53984 10.8334 10.0001 10.8334Z" fill="black"/>
<path id="Vector_6" d="M9.99992 10.4166C10.23 10.4166 10.4166 10.23 10.4166 9.99992C10.4166 9.7698 10.23 9.58325 9.99992 9.58325C9.7698 9.58325 9.58325 9.7698 9.58325 9.99992C9.58325 10.23 9.7698 10.4166 9.99992 10.4166Z" fill="#00ACC1"/>
</g>
</svg>
