<svg width="118" height="96" viewBox="0 0 118 96" fill="none" xmlns="http://www.w3.org/2000/svg">
<g filter="url(#filter0_d_32_3658)">
<path d="M35 36C35 29.3726 40.3726 24 47 24H71C77.6274 24 83 29.3726 83 36V60C83 66.6274 77.6274 72 71 72H47C40.3726 72 35 66.6274 35 60V36Z" fill="white" shape-rendering="crispEdges"/>
<path d="M35.5 36C35.5 29.6487 40.6487 24.5 47 24.5H71C77.3513 24.5 82.5 29.6487 82.5 36V60C82.5 66.3513 77.3513 71.5 71 71.5H47C40.6487 71.5 35.5 66.3513 35.5 60V36Z" stroke="#F7F7F7" shape-rendering="crispEdges"/>
<path d="M60.905 46.4695L68.3512 38H66.5869L60.1184 45.3524L54.9558 38H49L56.8086 49.1192L49 58H50.7643L57.591 50.2338L63.0442 58H69L60.905 46.4695ZM58.4877 49.2168L57.6954 48.1089L51.4005 39.3015H54.1108L59.1925 46.412L59.9815 47.5199L66.5861 56.7619H63.8758L58.4877 49.2168Z" fill="#121212"/>
</g>
<defs>
<filter id="filter0_d_32_3658" x="0" y="-6" width="118" height="118" filterUnits="userSpaceOnUse" color-interpolation-filters="sRGB">
<feFlood flood-opacity="0" result="BackgroundImageFix"/>
<feColorMatrix in="SourceAlpha" type="matrix" values="0 0 0 0 0 0 0 0 0 0 0 0 0 0 0 0 0 0 127 0" result="hardAlpha"/>
<feOffset dy="5"/>
<feGaussianBlur stdDeviation="17.5"/>
<feComposite in2="hardAlpha" operator="out"/>
<feColorMatrix type="matrix" values="0 0 0 0 0.0705882 0 0 0 0 0.0705882 0 0 0 0 0.0705882 0 0 0 0.05 0"/>
<feBlend mode="normal" in2="BackgroundImageFix" result="effect1_dropShadow_32_3658"/>
<feBlend mode="normal" in="SourceGraphic" in2="effect1_dropShadow_32_3658" result="shape"/>
</filter>
</defs>
</svg>
